<svg xmlns="http://www.w3.org/2000/svg" xmlns:xlink="http://www.w3.org/1999/xlink" viewBox="0 0 153.27 74.2">
  <defs>
    <style>
      .cls-1 {
        fill: none;
      }

      .cls-2 {
        fill: #010000;
      }

      .cls-3 {
        clip-path: url(#clip-path);
      }

      .cls-4 {
        fill: #575756;
        fill-rule: evenodd;
      }

      .cls-5 {
        fill: #1d1d1b;
      }
    </style>
    <clipPath id="clip-path" transform="translate(0 0)">
      <rect class="cls-1" width="156" height="84.5"/>
    </clipPath>
  </defs>
  <g id="Calque_2" data-name="Calque 2">
    <g id="Calque_1-2" data-name="Calque 1">
      <g>
        <g>
          <path class="cls-2" d="M37.5,62.13h1.17v5.26h6V62.13h1.17V74H44.67V68.41h-6V74H37.5Z" transform="translate(0 0)"/>
          <path class="cls-2" d="M48.8,62.13h5.81v1H50v4.24h4.41v1H50V73h4.85v1h-6Z" transform="translate(0 0)"/>
          <path class="cls-2" d="M65.44,63.46A6.14,6.14,0,0,0,62.79,63C59.71,63,58,65.12,58,68.07s1.68,5.11,4.81,5.11a5.84,5.84,0,0,0,2.65-.51l.07,1a6.4,6.4,0,0,1-2.72.51c-3.74,0-6-2.46-6-6.13s2.31-6.14,6-6.14a7.72,7.72,0,0,1,2.72.44Z" transform="translate(0 0)"/>
          <path class="cls-2" d="M73.26,62.13h1.18V73H79.2v1H73.26Z" transform="translate(0 0)"/>
          <path class="cls-2" d="M85.78,72.61h0A3,3,0,0,1,83,74.2c-2.47,0-2.86-1.66-2.86-2.45,0-2.9,3.1-3,5.34-3h.2v-.44c0-1.48-.52-2.23-2-2.23a4.61,4.61,0,0,0-2.55.72v-1a6.9,6.9,0,0,1,2.55-.6c2.14,0,3,1,3,3.23v3.83A11.67,11.67,0,0,0,86.83,74h-1Zm-.11-3h-.3c-1.86,0-4.07.19-4.07,2.09,0,1.14.82,1.57,1.81,1.57,2.51,0,2.56-2.2,2.56-3.13Z" transform="translate(0 0)"/>
          <path class="cls-2" d="M96.06,72a20.26,20.26,0,0,0,.07,2h-1V72.45h0a2.76,2.76,0,0,1-2.81,1.75c-2.14,0-3-1.42-3-3.33V65.33h1.08V70.6c0,1.63.57,2.69,2,2.69,2,0,2.57-1.72,2.57-3.17V65.33h1.07Z" transform="translate(0 0)"/>
          <path class="cls-2" d="M98.08,72.74a5.16,5.16,0,0,0,2.26.55c1,0,1.93-.57,1.93-1.55,0-2.06-4.17-1.74-4.17-4.25,0-1.72,1.39-2.37,2.82-2.37a6.82,6.82,0,0,1,2.14.4l-.1.93A5.13,5.13,0,0,0,101,66c-1.1,0-1.87.34-1.87,1.45,0,1.61,4.27,1.41,4.27,4.25,0,1.83-1.72,2.46-3,2.46A6.47,6.47,0,0,1,98,73.79Z" transform="translate(0 0)"/>
          <path class="cls-2" d="M110.34,72.61h0a3.07,3.07,0,0,1-2.76,1.59c-2.46,0-2.85-1.66-2.85-2.45,0-2.9,3.09-3,5.33-3h.21v-.44c0-1.48-.53-2.23-2-2.23a4.61,4.61,0,0,0-2.55.72v-1a6.86,6.86,0,0,1,2.55-.6c2.14,0,3,1,3,3.23v3.83a13.12,13.12,0,0,0,.08,1.82h-1Zm-.1-3h-.31c-1.85,0-4.06.19-4.06,2.09,0,1.14.82,1.57,1.8,1.57,2.52,0,2.57-2.2,2.57-3.13Z" transform="translate(0 0)"/>
          <path class="cls-2" d="M113.86,67.37a20.26,20.26,0,0,0-.07-2h1v1.55h0a2.76,2.76,0,0,1,2.81-1.76c2.14,0,3,1.43,3,3.34V74h-1.07V68.73c0-1.63-.57-2.69-2-2.69-2,0-2.57,1.72-2.57,3.17V74h-1.07Z" transform="translate(0 0)"/>
          <path class="cls-2" d="M123.31,67.37a20.26,20.26,0,0,0-.07-2h1v1.55h0a2.76,2.76,0,0,1,2.81-1.76c2.14,0,3,1.43,3,3.34V74H129V68.73C129,67.1,128.43,66,127,66c-2,0-2.57,1.72-2.57,3.17V74h-1.07Z" transform="translate(0 0)"/>
          <path class="cls-2" d="M138.58,73.73a7.26,7.26,0,0,1-2.52.47c-2.87,0-3.94-1.94-3.94-4.54s1.46-4.54,3.65-4.54c2.45,0,3.45,2,3.45,4.31V70h-5.93c0,1.84,1,3.32,2.86,3.32a5.62,5.62,0,0,0,2.43-.65Zm-.53-4.68c0-1.51-.61-3-2.21-3a2.83,2.83,0,0,0-2.55,3Z" transform="translate(0 0)"/>
        </g>
        <g class="cls-3">
          <path class="cls-4" d="M124.21,29a70.14,70.14,0,0,0-9.95-.48c-2,.1-10.53,1.05-14.21,1.78A68.43,68.43,0,0,1,87.36,32c-6.11.09-9-1.23-10.6-1.89a10.13,10.13,0,0,1-3.44-2.47,2.7,2.7,0,0,1-.51-1.47s5.3-5.66,7.84-10.62a27.43,27.43,0,0,0,3-8.83,3.54,3.54,0,0,0-1-3.3,2.83,2.83,0,0,0-3.09-.12,13.89,13.89,0,0,0-4.09,4.16,24.31,24.31,0,0,0-3.83,7.81,29.23,29.23,0,0,0-1.48,7.07c0,1,.08,2.68.08,2.68a28.38,28.38,0,0,1-2.66,3c-1.4,1.35-3,2.58-4.87,2.26-1.47-.25-1.61-1.95-1.63-2.84a25,25,0,0,1,.52-3c.13-1,.22-.7-.19-1.08s-1-.22-1.77-.21-.62.5-1.07,1.27a17.06,17.06,0,0,1-2.82,4.21c-1.3,1.17-1.84,1.14-2.86,1a2.41,2.41,0,0,1-2.05-1.52c-.44-.9-.28-4.16-.34-5.05a2.18,2.18,0,0,0-1.24-1.91,2.48,2.48,0,0,0-2.76.48,21.11,21.11,0,0,0-3,3.89c-.64,1.05-2,2.55-2.33,2.54s-.38-.72-.24-1.93c.1-.8.19-1.86.22-2.79s-.47-1.33-1.39-1.54a2.16,2.16,0,0,0-2.28,1.08c-.66.94-1.93,2.5-3.25,4.18S30.83,30.78,30,30.71s-1.14-.65-1.44-1.59.16-4.57.3-5.92S30,16,30.62,12.85,31.54,9.29,32.13,7s.76-1.88.57-3S31.94,3,31.34,2.85a1.73,1.73,0,0,0-1.44.09c-.57.26-1,.48-1.38,1.91a51.87,51.87,0,0,1-3.43,8.72,111.85,111.85,0,0,1-7.66,13.3c-2.39,3.69-3.58,4-4.4,3.85s-.75-1.11-.77-1.95a13.2,13.2,0,0,1,.65-3.51c.43-1.48,1.55-4.39,2.56-6.82S18.58,11.72,20.28,8a36,36,0,0,0,2.38-6.53C22.91.67,22.17.36,21.57.11A2.8,2.8,0,0,0,20,.14a3.13,3.13,0,0,0-1.65.94A9.2,9.2,0,0,1,15.55,3c-.53.16-.56.44-.27.95a.71.71,0,0,0,.8.5c.66-.07.51-.15,1.21-.27s.78.69.31,2-2.31,5.9-3.54,9.17S9.62,26,9.31,29.52c-.26,2.83-.48,4.66,1.28,6.22,2.33,2.08,7.44-2.14,9.24-5.61,1.19-2.3,5.61-10.6,6.42-12.34s2.31-4.91,2.05-4.13a101.56,101.56,0,0,0-2.39,12.61c-.67,5.58,1.26,6.1,2.59,6.71s3.07-.49,4-1.16a41.16,41.16,0,0,0,4.6-5.66c.3-.6,1-.6,1-.27a14.15,14.15,0,0,0,.48,4,3.39,3.39,0,0,0,2.26,2.23c1.33.51,2.1-.36,3.65-2.52s2.39-4.28,2.76-4.72c.5-.61.48.33.56,1.23a6.9,6.9,0,0,0,1.35,4.11c1.21,1.44,2,2.17,4.48,1.88s4.78-3.57,4.78-3.57a6.45,6.45,0,0,0,1.78,3.7c1.58,1.51,2.36,1.46,4.75,1.17S71.25,28,71.25,28a15.21,15.21,0,0,0,4,3.59c2.69,1.5,7.91,2.52,12.38,2.59s11.75-1.25,17.48-2.67a76.89,76.89,0,0,1,13.29-2c2.24-.06,5.18.48,5.42.26s1.13-.67.44-.79ZM75.73,11.65c2.28-3.88,4.32-5.75,5-5.49s.65.44.17,1.87a28.86,28.86,0,0,1-4,8.36c-2.53,3.59-4.48,6.05-4.48,6.05a27.63,27.63,0,0,1,3.3-10.79Z" transform="translate(0 0)"/>
        </g>
        <path class="cls-4" d="M59.75,16.81s-.09-.19.19-.16a2.52,2.52,0,0,1,.54.13l.2,0a4.64,4.64,0,0,1,.23-.78c.06-.07.21-.1.28-.24a.9.9,0,0,1,.44-.45.81.81,0,0,1,.5-.1,3,3,0,0,1,.76.06.73.73,0,0,1,.37.24c.13.15.29.24.28.42s0,.23,0,.37-.11.21,0,.34a.44.44,0,0,1,.09.35c0,.15,0,.36-.1.42a5.71,5.71,0,0,1-.79.35,8.11,8.11,0,0,1-1,.25c-.16,0-.71,0-.89,0s-.59-.07-.66-.21a2.28,2.28,0,0,1-.2-.38c0-.17-.17-.63-.17-.63Z" transform="translate(0 0)"/>
        <path class="cls-5" d="M0,43.68H1.51V48c0,1.28.41,2.12,1.57,2.12S4.64,49.31,4.64,48V43.68H6.15v4.81c0,2-1.14,2.85-3.07,2.85S0,50.51,0,48.49V43.68Z" transform="translate(0 0)"/>
        <polygon class="cls-5" points="8.36 43.68 10.22 43.68 13.09 49.31 13.11 49.31 13.11 43.68 14.56 43.68 14.56 51.21 12.71 51.21 9.83 45.58 9.81 45.58 9.81 51.21 8.36 51.21 8.36 43.68 8.36 43.68"/>
        <polygon class="cls-5" points="16.7 43.68 18.21 43.68 18.21 51.21 16.7 51.21 16.7 43.68 16.7 43.68"/>
        <polygon class="cls-5" points="20.42 43.68 21.93 43.68 21.93 50.03 24.85 50.03 24.85 51.21 20.42 51.21 20.42 43.68 20.42 43.68"/>
        <polygon class="cls-5" points="30.7 43.12 30.7 53.91 29.96 53.91 29.96 43.12 30.7 43.12 30.7 43.12"/>
        <path class="cls-5" d="M42,48.58a2.73,2.73,0,1,1-5.45,0v-4.9h.74v4.9a2,2,0,1,0,4,0v-4.9H42v4.9Z" transform="translate(0 0)"/>
        <path class="cls-5" d="M44.35,47c0-.42,0-.85,0-1.29H45v1h0a1.75,1.75,0,0,1,1.78-1.11c1.36,0,1.88.91,1.88,2.11v3.52H48V47.87c0-1-.37-1.71-1.31-1.71-1.24,0-1.62,1.09-1.62,2v3h-.69V47Z" transform="translate(0 0)"/>
        <path class="cls-5" d="M51.63,44.24H51v-.91h.68v.91M51,45.71h.68v5.5H51v-5.5Z" transform="translate(0 0)"/>
        <polygon class="cls-5" points="55.85 51.21 55.05 51.21 53.19 45.71 53.93 45.71 55.45 50.47 55.47 50.47 57.07 45.71 57.78 45.71 55.85 51.21 55.85 51.21"/>
        <path class="cls-5" d="M63,51a4.57,4.57,0,0,1-1.59.3c-1.83,0-2.51-1.23-2.51-2.88s.93-2.88,2.32-2.88c1.56,0,2.19,1.25,2.19,2.73v.34H59.66c0,1.17.62,2.11,1.81,2.11A3.57,3.57,0,0,0,63,50.35V51m-.33-3c0-1-.39-1.91-1.4-1.91a1.8,1.8,0,0,0-1.62,1.91Z" transform="translate(0 0)"/>
        <path class="cls-5" d="M65.31,46.94a10.62,10.62,0,0,0,0-1.23H66v1.06h0a1.63,1.63,0,0,1,1.41-1.19,2.16,2.16,0,0,1,.48.06v.72a1.55,1.55,0,0,0-.5-.07c-1.08,0-1.37,1.21-1.37,2.2v2.72h-.68V46.94Z" transform="translate(0 0)"/>
        <path class="cls-5" d="M69.08,50.41a3.18,3.18,0,0,0,1.43.35c.65,0,1.22-.36,1.22-1,0-1.31-2.64-1.11-2.64-2.7,0-1.09.89-1.5,1.79-1.5a4.19,4.19,0,0,1,1.36.25l-.07.59A3.21,3.21,0,0,0,71,46.16c-.71,0-1.19.22-1.19.92,0,1,2.71.89,2.71,2.7,0,1.16-1.09,1.56-1.92,1.56A4.08,4.08,0,0,1,69,51.08l.07-.67Z" transform="translate(0 0)"/>
        <path class="cls-5" d="M75,44.24h-.68v-.91H75v.91m-.68,1.47H75v5.5h-.68v-5.5Z" transform="translate(0 0)"/>
        <path class="cls-5" d="M79.66,46.29H78.4v3.56c0,.5.19.91.74.91a1.62,1.62,0,0,0,.62-.13l0,.56a2.43,2.43,0,0,1-.84.15c-1.2,0-1.25-.83-1.25-1.84V46.29H76.64v-.58h1.08V44.38l.68-.24v1.57h1.26v.58Z" transform="translate(0 0)"/>
        <path class="cls-5" d="M85.16,51a4.63,4.63,0,0,1-1.6.3c-1.82,0-2.5-1.23-2.5-2.88s.93-2.88,2.32-2.88c1.55,0,2.19,1.25,2.19,2.73v.34H81.8a1.87,1.87,0,0,0,1.82,2.11,3.65,3.65,0,0,0,1.54-.41V51m-.34-3c0-1-.39-1.91-1.4-1.91a1.81,1.81,0,0,0-1.62,1.91h3m-1.13-4.49h.85l-1.36,1.56h-.49l1-1.56Z" transform="translate(0 0)"/>
        <path class="cls-5" d="M95.41,51.21h-.68v-.88h0a1.76,1.76,0,0,1-1.72,1c-1.51,0-2.26-1.25-2.26-2.88s.65-2.88,2.26-2.88a1.87,1.87,0,0,1,1.72,1.06h0V43.12h.68v8.09m-2.31-.45c1.21,0,1.63-1.3,1.63-2.3s-.42-2.3-1.63-2.3-1.63,1.23-1.63,2.3.33,2.3,1.63,2.3Z" transform="translate(0 0)"/>
        <path class="cls-5" d="M101.34,51a4.63,4.63,0,0,1-1.6.3c-1.82,0-2.51-1.23-2.51-2.88s.93-2.88,2.32-2.88c1.56,0,2.19,1.25,2.19,2.73v.34H98a1.86,1.86,0,0,0,1.81,2.11,3.65,3.65,0,0,0,1.55-.41V51m-.34-3c0-1-.39-1.91-1.4-1.91A1.8,1.8,0,0,0,98,48.07Z" transform="translate(0 0)"/>
        <polygon class="cls-5" points="107.24 43.68 107.98 43.68 107.98 50.56 111.01 50.56 111.01 51.21 107.24 51.21 107.24 43.68 107.24 43.68"/>
        <path class="cls-5" d="M115.78,50.33h0a1.93,1.93,0,0,1-1.75,1c-1.56,0-1.81-1.06-1.81-1.55,0-1.85,2-1.94,3.39-1.94h.13v-.28c0-.93-.34-1.41-1.25-1.41a3,3,0,0,0-1.62.45V46a4.23,4.23,0,0,1,1.62-.38c1.36,0,1.93.61,1.93,2.05v2.43a8.4,8.4,0,0,0,0,1.15h-.66v-.88m-.07-1.89h-.19c-1.18,0-2.58.12-2.58,1.32,0,.73.52,1,1.14,1,1.6,0,1.63-1.39,1.63-2v-.33Z" transform="translate(0 0)"/>
        <path class="cls-5" d="M122.9,49.92c0,.41,0,.85,0,1.29h-.66v-1h0a1.75,1.75,0,0,1-1.78,1.11c-1.36,0-1.88-.91-1.88-2.11V45.71h.68v3.34c0,1,.37,1.71,1.31,1.71,1.24,0,1.63-1.09,1.63-2v-3h.68v4.21Z" transform="translate(0 0)"/>
        <path class="cls-5" d="M124.77,50.41a3.19,3.19,0,0,0,1.44.35c.65,0,1.22-.36,1.22-1,0-1.31-2.64-1.11-2.64-2.7,0-1.09.88-1.5,1.79-1.5a4.19,4.19,0,0,1,1.36.25l-.07.59a3.22,3.22,0,0,0-1.22-.26c-.7,0-1.18.22-1.18.92,0,1,2.7.89,2.7,2.7,0,1.16-1.08,1.56-1.92,1.56a4.06,4.06,0,0,1-1.54-.26l.06-.67Z" transform="translate(0 0)"/>
        <path class="cls-5" d="M133.15,50.33h0a1.93,1.93,0,0,1-1.75,1c-1.57,0-1.81-1.06-1.81-1.55,0-1.85,2-1.94,3.38-1.94h.13v-.28c0-.93-.33-1.41-1.25-1.41a3,3,0,0,0-1.62.45V46a4.27,4.27,0,0,1,1.62-.38c1.36,0,1.93.61,1.93,2.05v2.43a7,7,0,0,0,.06,1.15h-.67v-.88m-.07-1.89h-.19c-1.18,0-2.58.12-2.58,1.32,0,.73.52,1,1.15,1,1.59,0,1.62-1.39,1.62-2v-.33Z" transform="translate(0 0)"/>
        <path class="cls-5" d="M136,47a11.3,11.3,0,0,0,0-1.29h.66v1h0a1.75,1.75,0,0,1,1.78-1.11c1.36,0,1.88.91,1.88,2.11v3.52h-.68V47.87c0-1-.36-1.71-1.3-1.71-1.24,0-1.63,1.09-1.63,2v3H136V47Z" transform="translate(0 0)"/>
        <path class="cls-5" d="M142.57,47c0-.42,0-.85,0-1.29h.66v1h0A1.73,1.73,0,0,1,145,45.58c1.36,0,1.88.91,1.88,2.11v3.52h-.69V47.87c0-1-.36-1.71-1.3-1.71-1.24,0-1.63,1.09-1.63,2v3h-.68V47Z" transform="translate(0 0)"/>
        <path class="cls-5" d="M152.85,51a4.57,4.57,0,0,1-1.59.3c-1.83,0-2.5-1.23-2.5-2.88s.92-2.88,2.31-2.88c1.56,0,2.2,1.25,2.2,2.73v.34H149.5a1.86,1.86,0,0,0,1.81,2.11,3.57,3.57,0,0,0,1.54-.41V51m-.33-3c0-1-.39-1.91-1.4-1.91a1.8,1.8,0,0,0-1.62,1.91Z" transform="translate(0 0)"/>
      </g>
    </g>
  </g>
</svg>
