<svg xmlns="http://www.w3.org/2000/svg" xmlns:xlink="http://www.w3.org/1999/xlink" viewBox="0 0 3840 1080"><defs><style>.cls-1{fill:url(#Áåçûìÿííûé_ãðàäèåíò_24);}.cls-2{fill:none;}.cls-3{isolation:isolate;}.cls-4{fill:#a5c1d9;}.cls-5{font-size:121.36px;font-family:ProductSans-Bold, Product Sans;font-weight:700;}.cls-6{letter-spacing:-0.01em;}.cls-7{letter-spacing:-0.02em;}.cls-8{letter-spacing:-0.03em;}.cls-9{letter-spacing:-0.01em;}.cls-10{letter-spacing:0em;}.cls-11{letter-spacing:-0.03em;}.cls-12{letter-spacing:0em;}.cls-13{letter-spacing:0em;}.cls-14{font-size:97.48px;font-family:ProductSans-Regular, Product Sans;}.cls-15{letter-spacing:-0.01em;}.cls-16{letter-spacing:0em;}.cls-17{letter-spacing:0em;}.cls-18{letter-spacing:-0.04em;}.cls-19{letter-spacing:0em;}.cls-20{letter-spacing:0em;}.cls-21{letter-spacing:-0.01em;}.cls-22{letter-spacing:-0.08em;}.cls-23{letter-spacing:0em;}.cls-24{letter-spacing:0em;}.cls-25{fill:#010000;}.cls-26{clip-path:url(#clip-path);}.cls-27{fill-rule:evenodd;}.cls-28{fill:#fffff7;}.cls-29{fill:#5454ac;}.cls-30{fill:#6666c4;}.cls-31{fill:#e78565;}.cls-32{fill:#817dec;}.cls-33{fill:#b28a7c;mix-blend-mode:multiply;opacity:0.6;}.cls-34{fill:url(#Áåçûìÿííûé_ãðàäèåíò_5);}.cls-35{fill:#2e2e70;}.cls-36,.cls-37{fill:#181019;}.cls-36,.cls-44{mix-blend-mode:screen;}.cls-36,.cls-43{opacity:0.3;}.cls-38{fill:#666673;}.cls-39{fill:#777784;}.cls-40{fill:#d1ccbf;}.cls-41{clip-path:url(#clip-path-2);}.cls-42{mask:url(#mask);}.cls-44{fill:url(#Áåçûìÿííûé_ãðàäèåíò_13);}.cls-45{fill:#8a18ed;}.cls-46{fill:#ffd03b;}.cls-47{fill:#e8a3d7;}.cls-48{fill:#e4ded2;}.cls-49{fill:#e467e8;}.cls-50{opacity:0.1;}.cls-51{fill:#ff9e7c;}.cls-52{fill:#5d5dbf;}.cls-53{fill:url(#Áåçûìÿííûé_ãðàäèåíò_16);}.cls-54{fill:url(#Áåçûìÿííûé_ãðàäèåíò_16-2);}.cls-55{fill:url(#Áåçûìÿííûé_ãðàäèåíò_16-3);}.cls-56{fill:#cbc6b9;}.cls-57{fill:#fcbe9f;}.cls-58{fill:#fff8ef;}.cls-59{fill:#fffbf3;}.cls-60{fill:#333372;}.cls-61{fill:#f1a782;}.cls-62{fill:#eee8de;}.cls-63{fill:#44448b;}.cls-64{fill:#30307a;}</style><linearGradient id="Áåçûìÿííûé_ãðàäèåíò_24" x1="3079.06" y1="650.82" x2="3160.56" y2="791.99" gradientUnits="userSpaceOnUse"><stop offset="0" stop-color="#fff"/><stop offset="0.03" stop-color="#f2f2f2"/><stop offset="0.25" stop-color="#aaa"/><stop offset="0.44" stop-color="#6d6d6d"/><stop offset="0.62" stop-color="#3e3e3e"/><stop offset="0.78" stop-color="#1c1c1c"/><stop offset="0.91" stop-color="#070707"/><stop offset="1"/></linearGradient><clipPath id="clip-path"><rect id="SVGID" class="cls-2" x="119.27" y="700.7" width="590.54" height="319.87"/></clipPath><linearGradient id="Áåçûìÿííûé_ãðàäèåíò_5" x1="2955.94" y1="782.56" x2="3559.03" y2="782.56" gradientUnits="userSpaceOnUse"><stop offset="0" stop-color="#cbc6b9"/><stop offset="1" stop-color="#e4ded2"/></linearGradient><clipPath id="clip-path-2"><path class="cls-2" d="M3551.86,760.47c9.52,5.5,9.57,14.39.11,19.88l-182.92,106.3c-9.4,5.47-24.75,5.47-34.26,0L2963.15,672.06c-9.51-5.49-9.56-14.38-.15-19.85l182.91-106.3c9.46-5.49,24.8-5.49,34.32,0Z"/></clipPath><mask id="mask" x="2992.75" y="508.5" width="256.62" height="430.14" maskUnits="userSpaceOnUse"><rect class="cls-1" x="2992.75" y="508.5" width="256.62" height="430.14"/></mask><linearGradient id="Áåçûìÿííûé_ãðàäèåíò_13" x1="3113.73" y1="-79.91" x2="3113.73" y2="124.73" gradientTransform="matrix(1, -0.58, 0, -1, 0, 2555.57)" gradientUnits="userSpaceOnUse"><stop offset="0" stop-color="#2e2e70"/><stop offset="1" stop-color="#e78565"/></linearGradient><linearGradient id="Áåçûìÿííûé_ãðàäèåíò_16" x1="3023.47" y1="809.9" x2="3099.34" y2="809.9" gradientUnits="userSpaceOnUse"><stop offset="0" stop-color="#e48464"/><stop offset="0.9" stop-color="#f18e6d"/><stop offset="1" stop-color="#f38f6e"/></linearGradient><linearGradient id="Áåçûìÿííûé_ãðàäèåíò_16-2" x1="3421.8" y1="971.3" x2="3455.98" y2="971.3" xlink:href="#Áåçûìÿííûé_ãðàäèåíò_16"/><linearGradient id="Áåçûìÿííûé_ãðàäèåíò_16-3" x1="3665.14" y1="874.02" x2="3718.95" y2="874.02" xlink:href="#Áåçûìÿííûé_ãðàäèåíò_16"/></defs><g class="cls-3"><g id="Calque_1" data-name="Calque 1"><rect class="cls-4" width="3840" height="1080"/><text class="cls-5" transform="translate(117.8 213.99)">Open D<tspan class="cls-6" x="423.17" y="0">at</tspan><tspan x="534.33" y="0">a</tspan><tspan class="cls-7" x="599.26" y="0"> </tspan><tspan class="cls-8" x="623.53" y="0">f</tspan><tspan class="cls-6" x="668.06" y="0">o</tspan><tspan x="736.75" y="0">r</tspan><tspan class="cls-7" x="786.14" y="0"> </tspan><tspan class="cls-9" x="810.42" y="0">C</tspan><tspan class="cls-10" x="897.67" y="0">ust</tspan><tspan class="cls-6" x="1072.79" y="0">o</tspan><tspan x="1141.48" y="0">mer</tspan><tspan class="cls-11" x="1365.14" y="0"> </tspan><tspan x="1388.19" y="0">A</tspan><tspan class="cls-10" x="1475.08" y="0">n</tspan><tspan x="1544.14" y="0">aly</tspan><tspan class="cls-12" x="1705.66" y="0">t</tspan><tspan class="cls-13" x="1754.93" y="0">i</tspan><tspan x="1785.75" y="0">cs</tspan></text><text class="cls-14" transform="translate(117.75 341.19)">MScIS <tspan class="cls-15" x="284.05" y="0">M</tspan><tspan class="cls-16" x="363.49" y="0">ast</tspan><tspan class="cls-17" x="490.61" y="0">er</tspan><tspan class="cls-18" x="578.24" y="0"> </tspan><tspan x="595.78" y="0">Th</tspan><tspan class="cls-19" x="701.25" y="0">e</tspan><tspan class="cls-20" x="753.99" y="0">s</tspan><tspan x="797.85" y="0">is</tspan><tspan x="0" y="125">A</tspan><tspan class="cls-16" x="65.12" y="125">l</tspan><tspan x="84.51" y="125">e</tspan><tspan class="cls-21" x="136.76" y="125">k</tspan><tspan class="cls-19" x="182.87" y="125">s</tspan><tspan x="227.71" y="125">an</tspan><tspan class="cls-16" x="330.25" y="125">d</tspan><tspan x="385.92" y="125">ar</tspan><tspan class="cls-18" x="471.01" y="125"> </tspan><tspan class="cls-22" x="488.56" y="125">T</tspan><tspan class="cls-20" x="533.4" y="125">o</tspan><tspan class="cls-17" x="587.5" y="125">pa</tspan><tspan class="cls-23" x="692.97" y="125">l</tspan><tspan class="cls-21" x="712.37" y="125">o</tspan><tspan class="cls-24" x="765.98" y="125">v</tspan><tspan class="cls-23" x="814.53" y="125">i</tspan><tspan x="835.49" y="125">c</tspan></text><path class="cls-25" d="M261.21,935.91h4.44v19.88h22.72V935.91h4.44v44.92h-4.44V959.66H265.65v21.17h-4.44Z"/><path class="cls-25" d="M304,935.91h22v3.86H308.45v16h16.66v3.87H308.45V977h18.34v3.86H304Z"/><path class="cls-25" d="M367,940.93c-2.83-1.48-6.89-1.93-10-1.93-11.65,0-18.21,8.24-18.21,19.37,0,11.32,6.37,19.37,18.21,19.37,3,0,7.46-.39,10-1.93l.26,3.86c-2.45,1.48-7.47,1.93-10.3,1.93-14.16,0-22.65-9.33-22.65-23.23,0-13.64,8.75-23.23,22.65-23.23,2.64,0,8,.45,10.3,1.67Z"/><path class="cls-25" d="M396.61,935.91h4.44V977h18v3.86H396.61Z"/><path class="cls-25" d="M444,975.55h-.12c-1.81,3.93-6.38,6.05-10.43,6.05-9.33,0-10.81-6.31-10.81-9.27,0-11,11.71-11.52,20.21-11.52h.77v-1.67c0-5.6-2-8.43-7.47-8.43a17.43,17.43,0,0,0-9.65,2.7v-3.92a25.73,25.73,0,0,1,9.65-2.25c8.11,0,11.52,3.66,11.52,12.22v14.48a46.94,46.94,0,0,0,.32,6.89h-4Zm-.38-11.26h-1.16c-7,0-15.38.71-15.38,7.91,0,4.32,3.09,5.93,6.82,5.93,9.53,0,9.72-8.31,9.72-11.84Z"/><path class="cls-25" d="M482.91,973.11c0,2.51,0,5.08.26,7.72h-3.93V975h-.13c-1.35,3-3.8,6.63-10.62,6.63-8.1,0-11.19-5.4-11.19-12.61V948h4.05v20c0,6.18,2.19,10.17,7.79,10.17,7.4,0,9.71-6.5,9.71-12V948h4.06Z"/><path class="cls-25" d="M490.57,976.07a19.3,19.3,0,0,0,8.55,2.06c3.86,0,7.28-2.13,7.28-5.86,0-7.79-15.77-6.56-15.77-16.09,0-6.5,5.27-8.94,10.68-8.94a25.94,25.94,0,0,1,8.11,1.47l-.38,3.55a19.11,19.11,0,0,0-7.28-1.55c-4.18,0-7.08,1.29-7.08,5.47,0,6.11,16.16,5.34,16.16,16.09,0,7-6.51,9.33-11.46,9.33a24.86,24.86,0,0,1-9.2-1.54Z"/><path class="cls-25" d="M537,975.55h-.12c-1.81,3.93-6.38,6.05-10.43,6.05-9.33,0-10.81-6.31-10.81-9.27,0-11,11.71-11.52,20.2-11.52h.78v-1.67c0-5.6-2-8.43-7.47-8.43a17.41,17.41,0,0,0-9.65,2.7v-3.92a25.68,25.68,0,0,1,9.65-2.25c8.11,0,11.52,3.66,11.52,12.22v14.48a46.94,46.94,0,0,0,.32,6.89h-4Zm-.38-11.26h-1.16c-7,0-15.38.71-15.38,7.91,0,4.32,3.09,5.93,6.82,5.93,9.52,0,9.72-8.31,9.72-11.84Z"/><path class="cls-25" d="M550.28,955.73c0-2.51,0-5.08-.25-7.72H554v5.85h.13c1.35-3,3.8-6.62,10.62-6.62,8.11,0,11.2,5.4,11.2,12.61v21h-4.06v-20c0-6.18-2.18-10.17-7.78-10.17-7.41,0-9.72,6.5-9.72,12v18.15h-4.06Z"/><path class="cls-25" d="M586.06,955.73c0-2.51,0-5.08-.25-7.72h3.92v5.85h.13c1.36-3,3.8-6.62,10.62-6.62,8.11,0,11.2,5.4,11.2,12.61v21h-4.06v-20c0-6.18-2.19-10.17-7.78-10.17-7.4,0-9.72,6.5-9.72,12v18.15h-4.06Z"/><path class="cls-25" d="M643.86,979.8a26.9,26.9,0,0,1-9.53,1.8c-10.88,0-14.93-7.34-14.93-17.18,0-10,5.54-17.18,13.84-17.18,9.26,0,13.06,7.46,13.06,16.28v2.06H623.84c0,6.95,3.73,12.55,10.81,12.55a21.22,21.22,0,0,0,9.21-2.45Zm-2-17.7c0-5.73-2.32-11.39-8.37-11.39s-9.65,6-9.65,11.39Z"/><g class="cls-26"><path class="cls-27" d="M589.45,810.48c-2.65-.45-24-2.55-37.64-1.82-7.6.4-39.85,4-53.8,6.75-12.23,2.42-29.32,6.22-48,6.48-23.13.32-34-4.66-40.14-7.17a38.62,38.62,0,0,1-13.05-9.35c-1.81-2.08-1.92-5.55-1.92-5.55s20.06-21.43,29.69-40.2c8.23-16,10.67-27.83,11.4-33.45s-.71-10.27-3.62-12.49a10.71,10.71,0,0,0-11.69-.45c-5.85,3.23-11.2,9.71-15.47,15.74a92.31,92.31,0,0,0-14.51,29.57c-4.71,16.17-5.48,23.05-5.6,26.76s.32,10.16.32,10.16A107.9,107.9,0,0,1,375.33,807c-5.3,5.1-11.23,9.73-18.46,8.52-5.57-.94-6.09-7.36-6.16-10.73s1.51-7.72,2-11.41.8-2.62-.73-4.08-3.68-.85-6.69-.77-2.36,1.86-4.06,4.8-5.77,11.5-10.69,15.92-7,4.32-10.83,3.82-6.12-2.33-7.76-5.74-1-15.76-1.27-19.13A8.3,8.3,0,0,0,306,781c-3.44-1.75-7.2-.84-10.44,1.83s-9.09,10.74-11.51,14.72-7.5,9.65-8.83,9.6c-1.58,0-1.44-2.72-.89-7.29.36-3,.7-7,.81-10.58s-1.76-5-5.27-5.83-6.46,1-8.61,4.12c-2.49,3.53-7.3,9.44-12.29,15.8S236,817.23,233,817s-4.33-2.44-5.45-6,.61-17.29,1.14-22.39,4-27.42,6.49-39.17,3.48-13.48,5.72-22.06,2.9-7.11,2.15-11.2-2.85-4-5.14-4.63-3.29-.65-5.44.34-3.8,1.84-5.23,7.26-4.41,14.75-13,33-18.49,34.15-29,50.35c-9.05,14-13.56,15.26-16.66,14.57-2.59-.59-2.84-4.2-2.91-7.37s.86-7.7,2.47-13.29,5.85-16.62,9.7-25.85,11.76-25.42,18.2-39.68c7-15.62,8.31-22.51,9-24.72.92-2.86-1.88-4-4.15-5s-5.91.11-5.91.11c-2.4.78-4.21,1.35-6.24,3.58s-7.91,6.27-10.64,7.09c-2,.61-2.11,1.66-1,3.59a2.67,2.67,0,0,0,3,1.9c2.49-.27,1.93-.6,4.59-1s2.93,2.61,1.16,7.5-8.77,22.32-13.42,34.7-16.78,40.59-18,53.92c-1,10.7-1.81,17.65,4.85,23.55,8.83,7.85,28.18-8.11,35-21.25,4.52-8.71,21.24-40.11,24.29-46.71s8.76-18.6,7.76-15.63-6.54,26.63-9,47.74,4.78,23.08,9.81,25.38,11.62-1.84,15.05-4.38,16.26-19.18,17.39-21.44,3.9-2.25,3.85-1,0,11,1.81,15.31,3.48,6.48,8.54,8.43,8-1.36,13.81-9.53c6-8.38,9.08-16.22,10.46-17.9,1.91-2.3,1.83,1.27,2.14,4.67.35,3.75.53,10.09,5.11,15.55s7.72,8.22,16.94,7.12,18.09-13.49,18.09-13.49.77,8.33,6.75,14,8.93,5.51,18,4.4S389,806.68,389,806.68s6.78,9,14.95,13.6c10.2,5.7,29.93,9.56,46.88,9.8S495.28,825.34,517,820c19.1-4.73,41.83-7.26,50.31-7.49s19.62,1.83,20.53,1,4.27-2.55,1.64-3ZM405.94,744.81C414.56,730.1,422.3,723,424.78,724s2.46,1.68.67,7.1-5.43,18-15,31.63-17,22.9-17,22.9,1.47-22,12.5-40.84Z"/></g><path class="cls-27" d="M345.45,764.34c0-.21-.33-.72.71-.62a8.31,8.31,0,0,1,2.06.51,5.86,5.86,0,0,0,.74.06,18.43,18.43,0,0,1,.87-2.95c.25-.27.79-.37,1.06-.89a3.37,3.37,0,0,1,1.68-1.7,2.9,2.9,0,0,1,1.88-.4,10.8,10.8,0,0,1,2.89.24,2.71,2.71,0,0,1,1.4.91c.48.56,1.08.9,1.05,1.58a9.62,9.62,0,0,1-.08,1.4c-.09.52-.39.8-.08,1.29a1.68,1.68,0,0,1,.36,1.33c-.11.57.15,1.37-.39,1.6a26,26,0,0,1-3,1.33c-.71.15-3.21.93-3.87.94s-2.72,0-3.4,0-2.24-.27-2.5-.81a7.29,7.29,0,0,1-.73-1.42l-.66-2.39Z"/><path d="M119.27,866.06H125v16.46c0,4.86,1.54,8,5.91,8s5.93-3.18,5.93-8V866.06h5.72v18.21c0,7.64-4.32,10.79-11.65,10.79s-11.64-3.15-11.64-10.79V866.06Z"/><polygon points="150.93 866.06 157.96 866.06 168.83 887.38 168.91 887.38 168.91 866.06 174.39 866.06 174.39 894.57 167.39 894.57 156.48 873.25 156.41 873.25 156.41 894.57 150.93 894.57 150.93 866.06 150.93 866.06"/><polygon points="182.47 866.06 188.19 866.06 188.19 894.57 182.47 894.57 182.47 866.06 182.47 866.06"/><polygon points="196.56 866.06 202.28 866.06 202.28 890.08 213.36 890.08 213.36 894.57 196.56 894.57 196.56 866.06 196.56 866.06"/><polygon points="235.5 863.92 235.5 904.79 232.67 904.79 232.67 863.92 235.5 863.92 235.5 863.92"/><path d="M278.43,884.6c0,8.42-6.16,10.46-10.34,10.46s-10.33-2-10.33-10.46V866.06h2.81V884.6c0,4.65,2.59,8,7.52,8s7.52-3.36,7.52-8V866.06h2.82V884.6Z"/><path d="M287.17,878.63a47.68,47.68,0,0,0-.17-4.89h2.5v3.7h.08c.86-1.87,2.42-4.19,6.75-4.19,5.13,0,7.1,3.43,7.1,8v13.33h-2.57V881.91c0-3.93-1.38-6.46-4.95-6.46-4.69,0-6.16,4.12-6.16,7.6v11.52h-2.58V878.63Z"/><path d="M314.71,868.17h-2.58v-3.42h2.58v3.42m-2.58,5.57h2.58v20.83h-2.58V873.74Z"/><polygon points="330.69 894.57 327.67 894.57 320.6 873.74 323.42 873.74 329.18 891.74 329.25 891.74 335.31 873.74 337.99 873.74 330.69 894.57 330.69 894.57"/><path d="M357.81,893.92a17.22,17.22,0,0,1-6.05,1.14c-6.89,0-9.48-4.65-9.48-10.9s3.52-10.91,8.78-10.91c5.89,0,8.3,4.73,8.3,10.32v1.31H345.09c0,4.42,2.39,8,6.88,8a13.53,13.53,0,0,0,5.84-1.55v2.62m-1.26-11.23c0-3.65-1.48-7.24-5.32-7.24s-6.14,3.8-6.14,7.24Z"/><path d="M366.51,878.38a35.77,35.77,0,0,0-.17-4.64h2.59v4H369c.94-2.34,2.7-4.49,5.34-4.49a7.35,7.35,0,0,1,1.81.24v2.7a6.16,6.16,0,0,0-1.88-.25c-4.09,0-5.19,4.58-5.19,8.33v10.3h-2.57V878.38Z"/><path d="M380.77,891.54a12.32,12.32,0,0,0,5.43,1.31c2.44,0,4.62-1.35,4.62-3.72,0-4.93-10-4.17-10-10.21,0-4.12,3.36-5.67,6.78-5.67a16.43,16.43,0,0,1,5.14.93l-.25,2.24a12.29,12.29,0,0,0-4.61-1c-2.65,0-4.49.82-4.49,3.47,0,3.88,10.26,3.39,10.26,10.21,0,4.41-4.14,5.93-7.28,5.93a15.41,15.41,0,0,1-5.84-1l.25-2.53Z"/><path d="M403.08,868.17H400.5v-3.42h2.58v3.42m-2.58,5.57h2.58v20.83H400.5V873.74Z"/><path d="M420.8,875.94h-4.73v13.47c0,1.89.68,3.44,2.78,3.44a6.17,6.17,0,0,0,2.37-.49l.16,2.12a9.1,9.1,0,0,1-3.15.58c-4.58,0-4.75-3.15-4.75-6.95V875.94H409.4v-2.2h4.08v-5l2.59-.9v5.93h4.73v2.2Z"/><path d="M441.63,893.92a17.17,17.17,0,0,1-6,1.14c-6.9,0-9.48-4.65-9.48-10.9s3.52-10.91,8.79-10.91c5.87,0,8.28,4.73,8.28,10.32v1.31H428.93c0,4.42,2.38,8,6.87,8a13.49,13.49,0,0,0,5.83-1.55v2.62m-1.26-11.23c0-3.65-1.48-7.24-5.32-7.24s-6.12,3.8-6.12,7.24h11.44m-4.29-17h3.22l-5.14,5.88h-1.88l3.8-5.88Z"/><path d="M480.44,894.57h-2.57v-3.32h-.08a6.67,6.67,0,0,1-6.5,3.81c-5.72,0-8.57-4.74-8.57-10.9,0-6.34,2.45-10.91,8.57-10.91a7,7,0,0,1,6.5,4h.08V863.92h2.57v30.65m-8.73-1.72c4.57,0,6.16-4.9,6.16-8.69s-1.59-8.71-6.16-8.71c-4.92,0-6.17,4.66-6.17,8.71s1.25,8.69,6.17,8.69Z"/><path d="M502.88,893.92a17.23,17.23,0,0,1-6.06,1.14c-6.89,0-9.47-4.65-9.47-10.9s3.52-10.91,8.78-10.91c5.89,0,8.29,4.73,8.29,10.32v1.31H490.16c0,4.42,2.38,8,6.88,8a13.57,13.57,0,0,0,5.84-1.55v2.62m-1.28-11.23c0-3.65-1.45-7.24-5.3-7.24s-6.14,3.8-6.14,7.24Z"/><polygon points="525.22 866.06 528.05 866.06 528.05 892.11 539.49 892.11 539.49 894.57 525.22 894.57 525.22 866.06 525.22 866.06"/><path d="M557.54,891.22h-.1c-1.13,2.49-4,3.84-6.6,3.84-5.93,0-6.87-4-6.87-5.88,0-7,7.43-7.32,12.82-7.32h.5v-1.07c0-3.54-1.27-5.34-4.72-5.34a11.16,11.16,0,0,0-6.15,1.71v-2.48a16.3,16.3,0,0,1,6.15-1.43c5.13,0,7.29,2.32,7.29,7.75v9.2a30.33,30.33,0,0,0,.2,4.37h-2.52v-3.35m-.25-7.15h-.73c-4.46,0-9.77.45-9.77,5,0,2.75,2,3.76,4.34,3.76,6,0,6.16-5.27,6.16-7.52v-1.26Z"/><path d="M584.49,889.67a45.41,45.41,0,0,0,.18,4.9h-2.51v-3.72h-.07c-.87,1.88-2.41,4.21-6.73,4.21-5.15,0-7.12-3.43-7.12-8V873.74h2.57v12.65c0,3.93,1.4,6.46,5,6.46,4.69,0,6.16-4.13,6.16-7.6V873.74h2.57v15.93Z"/><path d="M591.6,891.54a12.37,12.37,0,0,0,5.44,1.31c2.45,0,4.62-1.35,4.62-3.72,0-4.93-10-4.17-10-10.21,0-4.12,3.35-5.67,6.77-5.67a16.48,16.48,0,0,1,5.15.93l-.24,2.24a12.41,12.41,0,0,0-4.61-1c-2.65,0-4.5.82-4.5,3.47,0,3.88,10.26,3.39,10.26,10.21,0,4.41-4.13,5.93-7.28,5.93a15.36,15.36,0,0,1-5.83-1l.23-2.53Z"/><path d="M623.31,891.22h-.08a7.33,7.33,0,0,1-6.61,3.84c-5.94,0-6.87-4-6.87-5.88,0-7,7.43-7.32,12.82-7.32h.49v-1.07c0-3.54-1.27-5.34-4.75-5.34a11.11,11.11,0,0,0-6.12,1.71v-2.48a16.32,16.32,0,0,1,6.12-1.43c5.16,0,7.33,2.32,7.33,7.75v9.2a30.33,30.33,0,0,0,.2,4.37h-2.53v-3.35m-.25-7.15h-.73c-4.46,0-9.78.45-9.78,5,0,2.75,2,3.76,4.35,3.76,6,0,6.16-5.27,6.16-7.52v-1.26Z"/><path d="M634,878.63a47.68,47.68,0,0,0-.17-4.89h2.5v3.7h.08c.86-1.87,2.42-4.19,6.74-4.19,5.15,0,7.11,3.43,7.11,8v13.33h-2.56V881.91c0-3.93-1.4-6.46-5-6.46-4.69,0-6.17,4.12-6.17,7.6v11.52H634V878.63Z"/><path d="M659,878.63a47.68,47.68,0,0,0-.17-4.89h2.51v3.7h.07c.86-1.87,2.41-4.19,6.74-4.19,5.15,0,7.11,3.43,7.11,8v13.33h-2.58V881.91c0-3.93-1.38-6.46-4.93-6.46-4.71,0-6.17,4.12-6.17,7.6v11.52H659V878.63Z"/><path d="M697.9,893.92a17.15,17.15,0,0,1-6,1.14c-6.92,0-9.48-4.65-9.48-10.9s3.5-10.91,8.77-10.91c5.88,0,8.3,4.73,8.3,10.32v1.31H685.2c0,4.42,2.37,8,6.86,8a13.42,13.42,0,0,0,5.84-1.55v2.62m-1.26-11.23c0-3.65-1.47-7.24-5.32-7.24s-6.12,3.8-6.12,7.24Z"/><g id="_1" data-name="1"><g id="_2" data-name="2"><g id="_14" data-name="14"><path class="cls-28" d="M3299.2,473.11a1.65,1.65,0,0,1,1.45-.6l11.71,1.36a1.62,1.62,0,0,1,1.22,2.43,1.69,1.69,0,0,1-.59.6l-2.37,1.36,397.25,229.36c-.23,1.12-.45,2.24-.68,3.37L3307.36,480.14l-3.73,2.16a1.62,1.62,0,0,1-1.39.11,1.64,1.64,0,0,1-1-1l-2.34-6.76A1.63,1.63,0,0,1,3299.2,473.11Z"/><path class="cls-29" d="M3359.27,350.45l19.11.9c3.35.16,7.31,2.26,10.81,5.73l38.88,38.58a21.48,21.48,0,0,0,7.69,5.09l34.43,12a22.63,22.63,0,0,1,9.06,6.55l44.46,50.77a22.62,22.62,0,0,0,9.14,6.58l43.79,15a21.53,21.53,0,0,1,8.13,5.49l33.69,34.69c3.16,3.24,6.75,5.4,10,6l35.41,6.21c4,.7,8.52,3.85,12,8.36l32,41V709.19L3308,478.29V327l22.58,4.06a19,19,0,0,1,9.28,5.32l8.92,8.61C3352.17,348.3,3356,350.3,3359.27,350.45Z"/><path class="cls-30" d="M3318.65,392.49l18,19.09c3.36,3.57,7.26,5.89,10.68,6.35l55.86,7.52a17.92,17.92,0,0,1,9.08,4.79l35,31.61a19.94,19.94,0,0,0,7.21,4.37L3498.73,480a22.25,22.25,0,0,1,9.65,6.88l44.48,51.62a24.06,24.06,0,0,0,8.1,6.29L3595.48,560a23,23,0,0,1,7.11,5.2L3641.45,606a20.57,20.57,0,0,0,9.38,6l32.84,8.14V723.16l-399.92-230.9V381.48l24.79,4.76C3311.82,386.87,3315.48,389.13,3318.65,392.49Z"/><path class="cls-31" d="M3290,427.53l19.76,17.75c3,2.68,6.22,4.37,9.08,4.74l19.74,2.55c3,.39,6.47,2.26,9.59,5.2l26.84,25.4c3.24,3.07,6.84,5,9.94,5.24l32.41,2.94c3.7.34,8,2.94,11.64,7L3488.32,565c3.56,4,7.83,6.59,11.5,7l23.79,2.5c3.47.36,7.5,2.71,10.95,6.37l42.77,45.39c3.57,3.8,7.74,6.16,11.28,6.41l25.18,1.73c3,.21,6.51,2,9.72,4.87l32.63,29.59v70.24l-399.93-230.9v-92l26.1,6.86A19.26,19.26,0,0,1,3290,427.53Z"/><path class="cls-28" d="M3264.34,495.75l19.72,17.72c3,2.74,6.34,4.44,9.24,4.76l18.71,2.09c3.45.38,7.43,2.7,10.85,6.33l16.11,17c3.91,4.14,8.52,6.54,12.2,6.38l40.76-1.85c3.93-.18,8.87,2.56,12.9,7.15l46.51,52.87c3.73,4.24,8.26,6.92,12.06,7.14l34.68,2c3.43.2,7.49,2.42,11,6l43.32,44.34c3.18,3.25,6.8,5.39,10,5.92l26.12,4.32a18.22,18.22,0,0,1,8.81,4.76l33.18,30.09v41l-399.93-230.9V484.14l26.15,7.18A19.51,19.51,0,0,1,3264.34,495.75Z"/><path class="cls-32" d="M3240.43,545.66l13.77,9.89a48.81,48.81,0,0,0,12.57,6.65l14.43,4.88a51.87,51.87,0,0,1,16,9.28l12,9.92a52.24,52.24,0,0,0,15.6,9.15l38.11,13.35a51.2,51.2,0,0,1,14.26,8.08l43.37,33.89a48.41,48.41,0,0,0,16.8,8.86l26.57,7.1c5.83,1.56,12,4.94,18,9.79l38.62,31.6a50.18,50.18,0,0,0,17.2,9.58l14.76,4.32c7.17,2.1,14.82,6.9,21.75,13.66L3602.3,763v7.14L3202.37,539.25V533l22.21,5.08A45.26,45.26,0,0,1,3240.43,545.66Z"/><path class="cls-28" d="M3584.2,779.34,3706,709V503.84a1.63,1.63,0,0,1,3.26,0V710a1.63,1.63,0,0,1-.81,1.41l-122.63,70.8a1.72,1.72,0,0,1-.82.21,1.63,1.63,0,0,1-.81-3Z"/><path class="cls-28" d="M3701.86,501.85l4.68-5.41a1.64,1.64,0,0,1,2.73.42l4.68,10.81a1.64,1.64,0,0,1-1.5,2.28,1.57,1.57,0,0,1-.81-.22l-9.36-5.4a1.66,1.66,0,0,1-.79-1.15A1.6,1.6,0,0,1,3701.86,501.85Z"/><path class="cls-28" d="M3578,783.83l1.35-7a1.63,1.63,0,0,1,2.57-1l9.46,7a1.63,1.63,0,0,1-.16,2.72,1.61,1.61,0,0,1-.81.22h-10.81a1.63,1.63,0,0,1-1.6-1.94Z"/></g><g id="_16" data-name="16"><g id="_16-2" data-name="16"><path class="cls-33" d="M3551.86,787.47,3180.23,572.9c-9.52-5.49-24.86-5.49-34.32,0L2963,679.2c-9.41,5.47-9.36,14.36.15,19.85l371.64,214.57c9.51,5.49,24.86,5.49,34.26,0L3552,807.34C3561.43,801.85,3561.38,793,3551.86,787.47Z"/><path class="cls-34" d="M2956,662l0,12.32c0,3.62,2.38,7.25,7.18,10l371.63,214.56c9.52,5.5,24.86,5.5,34.27,0l182.92-106.3c4.69-2.73,7-6.3,7-9.87l0-12.32Z"/><path class="cls-35" d="M3551.86,760.47c9.52,5.5,9.57,14.39.11,19.88l-182.92,106.3c-9.4,5.47-24.75,5.47-34.26,0L2963.15,672.06c-9.51-5.49-9.56-14.38-.15-19.85l182.91-106.3c9.46-5.49,24.8-5.49,34.32,0Z"/><path class="cls-36" d="M3165.47,541.93c-7-.41-14.21.88-19.56,4L2963,652.21c-9.41,5.47-9.36,14.36.15,19.85l202.32,116.81Z"/><polygon class="cls-37" points="3008.08 626.01 3042.45 626.01 3116.7 583.15 3116.7 562.89 3008.08 626.01"/><path class="cls-38" d="M3476.4,834.29l-22.26,12.85c-1.75,1-3.17.41-3.17-1.34v-1.46a6.58,6.58,0,0,1,3.17-5l22.26-12.85c1.75-1,3.17-.41,3.17,1.34v1.45A6.58,6.58,0,0,1,3476.4,834.29Z"/><path class="cls-39" d="M3477.78,833.15l-6.46-3.73-17.18,9.92a6.58,6.58,0,0,0-3.17,5v1.46c0,1.75,1.42,2.35,3.17,1.34l22.26-12.85A6.16,6.16,0,0,0,3477.78,833.15Z"/><g class="cls-3"><path class="cls-28" d="M3044,722.42a6.08,6.08,0,0,0-1-1.58,4.49,4.49,0,0,0-1.14-1L3016.07,705a1.86,1.86,0,0,0-1.86-.19l-2.08,1.21a1.86,1.86,0,0,1,1.86.19l25.75,14.86a4.53,4.53,0,0,1,1.15,1,6.35,6.35,0,0,1,1,1.58,5.07,5.07,0,0,1,.45,2v3.33a1.81,1.81,0,0,1-.76,1.67l2.07-1.21a1.81,1.81,0,0,0,.76-1.67v-3.33A4.73,4.73,0,0,0,3044,722.42Z"/><path class="cls-40" d="M3039.74,721.08,3014,706.22c-1.44-.84-2.61-.17-2.62,1.49V711a5.72,5.72,0,0,0,2.61,4.51l25.75,14.87c1.44.83,2.61.17,2.62-1.49v-3.33A5.75,5.75,0,0,0,3039.74,721.08Z"/></g><g class="cls-3"><path class="cls-28" d="M3087,747.26a6.08,6.08,0,0,0-1-1.58,4.49,4.49,0,0,0-1.14-1l-25.75-14.86a1.86,1.86,0,0,0-1.86-.19l-2.08,1.22a1.83,1.83,0,0,1,1.86.18l25.75,14.87a4.66,4.66,0,0,1,1.15,1,6.31,6.31,0,0,1,1,1.58,4.92,4.92,0,0,1,.46,2v3.32a1.89,1.89,0,0,1-.76,1.68l2.07-1.21a1.84,1.84,0,0,0,.76-1.68v-3.33A4.89,4.89,0,0,0,3087,747.26Z"/><path class="cls-40" d="M3082.77,745.93,3057,731.06c-1.44-.84-2.61-.17-2.62,1.49v3.33a5.75,5.75,0,0,0,2.61,4.51l25.75,14.86c1.44.84,2.61.17,2.62-1.49v-3.32A5.72,5.72,0,0,0,3082.77,745.93Z"/></g><g class="cls-41"><g class="cls-42"><g class="cls-43"><path class="cls-44" d="M3200.21,763.3c-1.09,2.89-4.31,4.65-5.32,2.94-6.06-10.28-9.58-80.93-18.5-91-.73-.83-2.46,0-3.34,1.7-4.69,8.8-10.57,37.24-14.94,58.8-.55,2.72-4.92,5.16-5.34,3-2.6-13.61-10.93-38.94-14.77-36.73-8.2,4.74-17.45,119.1-22,133.65-.9,2.88-4.32,4.7-5.33,3-3.09-5.24-10.78-90.83-20.51-85.21-6.73,3.89-12.92,49.45-16.28,63.12-.69,2.83-4.81,5.14-5.33,3-6-24.66-10.89-77.29-17.63-72.16-4,1.27-7.63,35.44-8.28,40.52-2.84,22-5.71,59-10.88,72.73-1.09,2.91-4.31,4.7-5.33,3-3.08-5.24-4.21-22.27-11.43-67.08-2.09-12.91-2.94-23.55-6.91-25.25V692.91l211.3-122v58.36C3215.41,630.55,3205.38,749.6,3200.21,763.3Z"/></g></g><g class="cls-43"><path class="cls-29" d="M3472.18,749.9v144c-.06,3.52,2.24,7.05,6.89,9.73,9.18,5.3,24.08,5.3,33.26,0,4.54-2.62,6.84-6,6.89-9.48v-144Z"/><path class="cls-45" d="M3512.22,740.25a30.69,30.69,0,0,0-12.93-3.81c-10.23-.94-19.84,1.9-24.51,7.25s-3,11.52,4.39,15.76c5.52,3.19,12.6,4.52,20.27,3.81s13.67-3.23,17.18-7.24C3521.29,750.67,3519.57,744.49,3512.22,740.25Z"/><path class="cls-29" d="M3429.35,774V897.73c0,3.52,2.24,7,6.89,9.73,9.19,5.31,24.08,5.31,33.26,0,4.54-2.62,6.84-6,6.89-9.48V774.27Z"/><path class="cls-46" d="M3469.39,764.37a30.69,30.69,0,0,0-12.93-3.81c-10.23-.94-19.84,1.9-24.51,7.25s-2.95,11.52,4.4,15.76c5.51,3.18,12.59,4.52,20.27,3.81s13.67-3.23,17.17-7.25C3478.47,774.79,3476.74,768.61,3469.39,764.37Z"/><path class="cls-31" d="M3386.52,796.34V900.42c-.05,3.52,2.24,7,6.89,9.73,9.19,5.3,24.08,5.3,33.27,0,4.53-2.62,6.83-6,6.89-9.48V796.59Z"/><path class="cls-45" d="M3426.57,786.69a30.78,30.78,0,0,0-12.94-3.81c-10.23-.94-19.84,1.9-24.51,7.25s-2.95,11.52,4.4,15.76c5.51,3.19,12.6,4.52,20.27,3.81s13.67-3.23,17.18-7.24C3435.64,797.11,3433.91,790.93,3426.57,786.69Z"/><path class="cls-31" d="M3343,822.68v77.74c-.06,3.52,2.24,7,6.89,9.73,9.18,5.3,24.08,5.3,33.26,0,4.54-2.62,6.84-6,6.89-9.48V822.93Z"/><path class="cls-47" d="M3383.07,813a30.69,30.69,0,0,0-12.93-3.81c-10.23-.93-19.84,1.91-24.51,7.25s-3,11.53,4.4,15.77c5.51,3.18,12.59,4.51,20.27,3.81s13.67-3.24,17.17-7.25C3392.15,823.45,3390.42,817.28,3383.07,813Z"/><path class="cls-48" d="M3299.54,849.87v54.29c-.06,3.52,2.24,7.05,6.88,9.73,9.19,5.31,24.08,5.31,33.27,0,4.54-2.62,6.83-6,6.89-9.47v-54.3Z"/><path class="cls-49" d="M3339.58,840.22a30.78,30.78,0,0,0-12.93-3.81c-10.24-.94-19.85,1.9-24.51,7.25s-2.95,11.52,4.39,15.76c5.51,3.18,12.6,4.52,20.27,3.81S3340.47,860,3344,856C3348.65,850.64,3346.93,844.46,3339.58,840.22Z"/></g></g><g class="cls-50"><polygon class="cls-28" points="3238.91 798.54 3218.58 810.28 3214.21 807.75 3234.53 796.02 3238.91 798.54"/><polygon class="cls-28" points="3258 787.52 3244.78 795.15 3240.41 792.63 3253.63 784.99 3258 787.52"/><polygon class="cls-28" points="3291.3 768.29 3263.88 784.12 3259.51 781.6 3286.93 765.77 3291.3 768.29"/><polygon class="cls-28" points="3328.52 746.8 3297.18 764.9 3292.81 762.38 3324.15 744.28 3328.52 746.8"/><polygon class="cls-28" points="3330.02 740.89 3334.4 743.41 3365.74 725.32 3361.36 722.79 3330.02 740.89"/><polygon class="cls-28" points="3384.67 714.38 3371.61 721.92 3367.24 719.4 3380.3 711.86 3384.67 714.38"/><polygon class="cls-28" points="3422.3 692.66 3390.55 710.99 3386.18 708.47 3417.92 690.14 3422.3 692.66"/><polygon class="cls-28" points="3262.04 798.89 3230.45 817.13 3226.08 814.61 3257.67 796.37 3262.04 798.89"/><polygon class="cls-28" points="3281.14 787.87 3267.92 795.5 3263.54 792.98 3276.76 785.34 3281.14 787.87"/><polygon class="cls-28" points="3303.17 775.14 3287.01 784.48 3282.64 781.95 3298.8 772.62 3303.17 775.14"/><polygon class="cls-28" points="3327.01 761.39 3309.05 771.75 3304.68 769.23 3322.63 758.86 3327.01 761.39"/><polygon class="cls-28" points="3328.51 755.47 3332.88 757.99 3361.77 741.31 3357.4 738.79 3328.51 755.47"/><polygon class="cls-28" points="3387.07 726.71 3367.65 737.92 3363.28 735.4 3382.7 724.18 3387.07 726.71"/><polygon class="cls-28" points="3434.16 699.52 3392.95 723.31 3388.58 720.79 3429.79 696.99 3434.16 699.52"/><polygon class="cls-28" points="3262.65 812.25 3242.32 823.98 3237.95 821.46 3258.28 809.73 3262.65 812.25"/><polygon class="cls-28" points="3281.74 801.22 3268.52 808.86 3264.15 806.33 3277.37 798.7 3281.74 801.22"/><polygon class="cls-28" points="3315.04 782 3287.62 797.83 3283.25 795.31 3310.67 779.48 3315.04 782"/><polygon class="cls-28" points="3352.26 760.51 3320.92 778.61 3316.55 776.08 3347.89 757.99 3352.26 760.51"/><polygon class="cls-28" points="3353.76 754.6 3358.14 757.12 3389.48 739.02 3385.11 736.5 3353.76 754.6"/><polygon class="cls-28" points="3408.41 728.09 3395.35 735.63 3390.98 733.11 3404.04 725.57 3408.41 728.09"/><polygon class="cls-28" points="3446.03 706.37 3414.29 724.7 3409.91 722.17 3441.66 703.85 3446.03 706.37"/><polygon class="cls-28" points="3285.78 812.6 3254.2 830.84 3249.82 828.31 3281.41 810.08 3285.78 812.6"/><polygon class="cls-28" points="3304.88 801.58 3291.66 809.21 3287.28 806.68 3300.51 799.05 3304.88 801.58"/><polygon class="cls-28" points="3326.91 788.85 3310.75 798.18 3306.38 795.66 3322.54 786.33 3326.91 788.85"/><polygon class="cls-28" points="3350.75 775.09 3332.79 785.46 3328.42 782.93 3346.37 772.57 3350.75 775.09"/><polygon class="cls-28" points="3352.25 769.18 3356.62 771.7 3385.51 755.02 3381.14 752.5 3352.25 769.18"/><polygon class="cls-28" points="3410.81 740.41 3391.39 751.63 3387.02 749.1 3406.44 737.89 3410.81 740.41"/><polygon class="cls-28" points="3457.91 713.22 3416.69 737.02 3412.32 734.5 3453.53 710.7 3457.91 713.22"/><polygon class="cls-28" points="3092.39 713.95 3072.07 725.69 3067.7 723.16 3088.02 711.43 3092.39 713.95"/><polygon class="cls-28" points="3111.49 702.93 3098.27 710.56 3093.9 708.04 3107.12 700.4 3111.49 702.93"/><polygon class="cls-28" points="3144.79 683.7 3117.37 699.53 3112.99 697.01 3140.42 681.18 3144.79 683.7"/><polygon class="cls-28" points="3182.01 662.21 3150.67 680.31 3146.29 677.78 3177.63 659.69 3182.01 662.21"/><polygon class="cls-28" points="3183.51 656.3 3187.88 658.82 3219.22 640.73 3214.85 638.2 3183.51 656.3"/><polygon class="cls-28" points="3238.16 629.79 3225.1 637.33 3220.73 634.81 3233.78 627.27 3238.16 629.79"/><polygon class="cls-28" points="3275.78 608.07 3244.03 626.4 3239.66 623.88 3271.41 605.55 3275.78 608.07"/><polygon class="cls-28" points="3115.53 714.3 3083.94 732.54 3079.57 730.01 3111.15 711.78 3115.53 714.3"/><polygon class="cls-28" points="3134.62 703.28 3121.4 710.91 3117.03 708.39 3130.25 700.75 3134.62 703.28"/><polygon class="cls-28" points="3156.66 690.55 3140.5 699.88 3136.13 697.36 3152.29 688.03 3156.66 690.55"/><polygon class="cls-28" points="3180.49 676.79 3162.54 687.16 3158.16 684.64 3176.12 674.27 3180.49 676.79"/><polygon class="cls-28" points="3182 670.88 3186.37 673.4 3215.26 656.72 3210.89 654.2 3182 670.88"/><polygon class="cls-28" points="3240.56 642.11 3221.14 653.33 3216.76 650.8 3236.19 639.59 3240.56 642.11"/><polygon class="cls-28" points="3287.65 614.92 3246.44 638.72 3242.06 636.2 3283.28 612.4 3287.65 614.92"/><path class="cls-32" d="M3194.34,743.57l-63.64-5.82c2.23-8.11,8-14.67,18.08-20.48Z"/><path class="cls-28" d="M3194.34,743.57l-29.25,33.14c-25.37-7.46-38.84-22.73-34.39-39Z"/><path class="cls-51" d="M3194.34,743.57l45.55,26.3c-20.12,11.62-49.44,14.3-74.8,6.84Z"/><path class="cls-30" d="M3194.34,743.57l63.63-5.82c3.34,12.18-3,23.41-18.08,32.12Z"/><path class="cls-30" d="M3194.34,743.57l29.25-33.14c19,5.59,31,15.15,34.38,27.32Z"/><path class="cls-29" d="M3194.34,743.57l-45.56-26.3c20.13-11.62,49.44-14.3,74.81-6.84Z"/><path class="cls-32" d="M3306.48,678.73,3328.15,714a105.49,105.49,0,0,1-40,.62Z"/><path class="cls-28" d="M3306.48,678.73l62.11,10.58c-6.08,11.88-20.21,20.5-40.44,24.65Z"/><path class="cls-29" d="M3306.48,678.73l-18.33,35.85c-34.3-5.84-53.9-26.64-43.77-46.44s46.14-31.12,80.44-25.27c13.72,2.34,24.29,6.52,33,13.07Z"/><path class="cls-51" d="M3306.48,678.73l51.34-22.79c13.08,9.82,16.85,21.49,10.77,33.37Z"/></g><path class="cls-31" d="M3200.21,400.62c-1.09-1.63-4.31.32-5.32,3.21-6.06,17.28-9.58,92-18.5,112.41-.73,1.66-2.46,2.79-3.34,2.16-4.69-3.39-10.57-25-14.94-41.55-.55-2.08-4.92.52-5.34,3.19-2.6,16.61-10.93,51.56-14.77,53.78-8.2,4.73-17.45-99-22-108.24-.9-1.83-4.32.3-5.33,3.19-3.09,8.81-10.78,103.27-20.51,108.89-6.73,3.89-12.92-34.52-16.28-44.32-.69-2-4.81.41-5.33,3.19-6,31.56-10.89,89.86-17.63,92.52-4,3.31-7.63-26.63-8.28-31-2.84-18.75-5.71-52.41-10.88-60.18-1.09-1.65-4.31.29-5.33,3.19-3.08,8.8-4.21,27.13-11.43,80.29-2.09,15.31-2.94,26.93-6.91,33.22v78.26l211.3-122V512.52C3215.41,515.82,3205.38,408.35,3200.21,400.62Z"/><polygon class="cls-28" points="3008.08 455.08 3008.08 455.82 3219.38 333.82 3219.38 333.09 3008.08 455.08"/><polygon class="cls-28" points="3008.08 475.7 3219.38 353.7 3219.38 352.97 3008.08 474.96 3008.08 475.7"/><polygon class="cls-28" points="3008.08 672.55 3008.08 673.29 3219.38 551.29 3219.38 550.56 3008.08 672.55"/><polygon class="cls-28" points="3008.08 693.17 3219.38 571.17 3219.38 570.44 3008.08 692.43 3008.08 693.17"/><polygon class="cls-28" points="3008.08 495.57 3219.38 373.58 3219.38 372.84 3008.08 494.84 3008.08 495.57"/><polygon class="cls-28" points="3008.08 515.45 3219.38 393.46 3219.38 392.72 3008.08 514.72 3008.08 515.45"/><polygon class="cls-28" points="3008.08 535.33 3219.38 413.34 3219.38 412.6 3008.08 534.6 3008.08 535.33"/><polygon class="cls-28" points="3008.08 555.21 3219.38 433.22 3219.38 432.48 3008.08 554.47 3008.08 555.21"/><polygon class="cls-28" points="3008.08 575.09 3219.38 453.09 3219.38 452.36 3008.08 574.35 3008.08 575.09"/><polygon class="cls-28" points="3008.08 594.97 3219.38 472.97 3219.38 472.24 3008.08 594.23 3008.08 594.97"/><polygon class="cls-28" points="3008.08 614.85 3219.38 492.85 3219.38 492.12 3008.08 614.11 3008.08 614.85"/><polygon class="cls-28" points="3008.08 634.72 3219.38 512.73 3219.38 511.99 3008.08 633.99 3008.08 634.72"/><polygon class="cls-28" points="3008.08 654.6 3219.38 532.61 3219.38 531.87 3008.08 653.87 3008.08 654.6"/><path class="cls-28" d="M3123.63,448.49a5.64,5.64,0,0,1-2.71,4.28c-1.5.86-2.72.35-2.72-1.15a5.62,5.62,0,0,1,2.72-4.28C3122.42,446.47,3123.63,447,3123.63,448.49Z"/><path class="cls-28" d="M3070.61,499.23a5.65,5.65,0,0,1-2.71,4.28c-1.5.87-2.72.35-2.72-1.15a5.64,5.64,0,0,1,2.72-4.28C3069.39,497.21,3070.61,497.73,3070.61,499.23Z"/><path class="cls-28" d="M3035.64,499.29a5.62,5.62,0,0,1-2.72,4.28c-1.5.87-2.71.35-2.71-1.15a5.63,5.63,0,0,1,2.71-4.28C3034.42,497.28,3035.64,497.79,3035.64,499.29Z"/><path class="cls-28" d="M3163.27,485.49a5.62,5.62,0,0,1-2.72,4.28c-1.5.87-2.71.35-2.71-1.15a5.64,5.64,0,0,1,2.71-4.28C3162.05,483.48,3163.27,484,3163.27,485.49Z"/><path class="cls-28" d="M3203.92,402.13a5.61,5.61,0,0,1-2.71,4.28c-1.5.87-2.72.36-2.72-1.14a5.65,5.65,0,0,1,2.72-4.29C3202.71,400.12,3203.92,400.63,3203.92,402.13Z"/><polygon class="cls-28" points="3238.91 746.86 3218.58 758.6 3214.21 756.07 3234.53 744.34 3238.91 746.86"/><polygon class="cls-28" points="3258 735.84 3244.78 743.47 3240.41 740.95 3253.63 733.31 3258 735.84"/><polygon class="cls-28" points="3291.3 716.61 3263.88 732.44 3259.51 729.92 3286.93 714.09 3291.3 716.61"/><polygon class="cls-28" points="3328.52 695.12 3297.18 713.22 3292.81 710.69 3324.15 692.6 3328.52 695.12"/><polygon class="cls-28" points="3330.02 689.21 3334.4 691.73 3365.74 673.64 3361.36 671.11 3330.02 689.21"/><polygon class="cls-28" points="3384.67 662.71 3371.61 670.24 3367.24 667.72 3380.3 660.18 3384.67 662.71"/><polygon class="cls-28" points="3422.3 640.98 3390.55 659.31 3386.18 656.79 3417.92 638.46 3422.3 640.98"/><polygon class="cls-28" points="3262.04 747.21 3230.45 765.45 3226.08 762.92 3257.67 744.69 3262.04 747.21"/><polygon class="cls-28" points="3281.14 736.19 3267.92 743.82 3263.54 741.3 3276.76 733.66 3281.14 736.19"/><polygon class="cls-28" points="3303.17 723.47 3287.01 732.79 3282.64 730.27 3298.8 720.94 3303.17 723.47"/><polygon class="cls-28" points="3327.01 709.71 3309.05 720.07 3304.68 717.55 3322.63 707.18 3327.01 709.71"/><polygon class="cls-28" points="3328.51 703.79 3332.88 706.31 3361.77 689.63 3357.4 687.11 3328.51 703.79"/><polygon class="cls-28" points="3387.07 675.02 3367.65 686.24 3363.28 683.72 3382.7 672.5 3387.07 675.02"/><polygon class="cls-28" points="3434.16 647.84 3392.95 671.63 3388.58 669.11 3429.79 645.31 3434.16 647.84"/><polygon class="cls-28" points="3262.65 760.57 3242.32 772.3 3237.95 769.78 3258.28 758.04 3262.65 760.57"/><polygon class="cls-28" points="3281.74 749.54 3268.52 757.18 3264.15 754.65 3277.37 747.02 3281.74 749.54"/><polygon class="cls-28" points="3315.04 730.32 3287.62 746.15 3283.25 743.63 3310.67 727.79 3315.04 730.32"/><polygon class="cls-28" points="3352.26 708.83 3320.92 726.92 3316.55 724.4 3347.89 706.31 3352.26 708.83"/><polygon class="cls-28" points="3353.76 702.91 3358.14 705.44 3389.48 687.34 3385.11 684.82 3353.76 702.91"/><polygon class="cls-28" points="3408.41 676.41 3395.35 683.95 3390.98 681.43 3404.04 673.89 3408.41 676.41"/><polygon class="cls-28" points="3446.03 654.69 3414.29 673.02 3409.91 670.5 3441.66 652.16 3446.03 654.69"/><polygon class="cls-28" points="3285.78 760.92 3254.2 779.16 3249.82 776.63 3281.41 758.4 3285.78 760.92"/><polygon class="cls-28" points="3304.88 749.89 3291.66 757.53 3287.28 755 3300.51 747.37 3304.88 749.89"/><polygon class="cls-28" points="3326.91 737.17 3310.75 746.5 3306.38 743.98 3322.54 734.65 3326.91 737.17"/><polygon class="cls-28" points="3350.75 723.41 3332.79 733.78 3328.42 731.25 3346.37 720.89 3350.75 723.41"/><polygon class="cls-28" points="3352.25 717.5 3356.62 720.02 3385.51 703.34 3381.14 700.81 3352.25 717.5"/><polygon class="cls-28" points="3410.81 688.73 3391.39 699.95 3387.02 697.42 3406.44 686.21 3410.81 688.73"/><polygon class="cls-28" points="3457.91 661.54 3416.69 685.34 3412.32 682.81 3453.53 659.02 3457.91 661.54"/><polygon class="cls-28" points="3092.39 662.27 3072.07 674 3067.7 671.48 3088.02 659.75 3092.39 662.27"/><polygon class="cls-28" points="3111.49 651.25 3098.27 658.88 3093.9 656.36 3107.12 648.72 3111.49 651.25"/><polygon class="cls-28" points="3144.79 632.02 3117.37 647.85 3112.99 645.33 3140.42 629.5 3144.79 632.02"/><polygon class="cls-28" points="3182.01 610.53 3150.67 628.63 3146.29 626.1 3177.63 608.01 3182.01 610.53"/><polygon class="cls-28" points="3183.51 604.62 3187.88 607.14 3219.22 589.05 3214.85 586.52 3183.51 604.62"/><polygon class="cls-28" points="3238.16 578.11 3225.1 585.65 3220.73 583.13 3233.78 575.59 3238.16 578.11"/><polygon class="cls-28" points="3275.78 556.39 3244.03 574.72 3239.66 572.2 3271.41 553.87 3275.78 556.39"/><polygon class="cls-28" points="3115.53 662.62 3083.94 680.86 3079.57 678.33 3111.15 660.1 3115.53 662.62"/><polygon class="cls-28" points="3134.62 651.6 3121.4 659.23 3117.03 656.71 3130.25 649.07 3134.62 651.6"/><polygon class="cls-28" points="3156.66 638.87 3140.5 648.2 3136.13 645.68 3152.29 636.35 3156.66 638.87"/><polygon class="cls-28" points="3180.49 625.11 3162.54 635.48 3158.16 632.96 3176.12 622.59 3180.49 625.11"/><polygon class="cls-28" points="3182 619.2 3186.37 621.72 3215.26 605.04 3210.89 602.52 3182 619.2"/><polygon class="cls-28" points="3240.56 590.43 3221.14 601.65 3216.76 599.12 3236.19 587.91 3240.56 590.43"/><polygon class="cls-28" points="3287.65 563.24 3246.44 587.04 3242.06 584.52 3283.28 560.72 3287.65 563.24"/><path class="cls-32" d="M3194.34,691.89l-63.64-5.82c2.23-8.12,8-14.67,18.08-20.48Z"/><path class="cls-28" d="M3194.34,691.89,3165.09,725c-25.37-7.46-38.84-22.73-34.39-39Z"/><path class="cls-51" d="M3194.34,691.89l45.55,26.3c-20.12,11.62-49.44,14.3-74.8,6.84Z"/><path class="cls-30" d="M3194.34,691.89l63.63-5.82c3.34,12.17-3,23.41-18.08,32.12Z"/><path class="cls-30" d="M3194.34,691.89l29.25-33.14c19,5.59,31,15.15,34.38,27.32Z"/><path class="cls-29" d="M3194.34,691.89l-45.56-26.3c20.13-11.62,49.44-14.3,74.81-6.84Z"/><path class="cls-32" d="M3306.48,627l21.67,35.24a105.49,105.49,0,0,1-40,.62Z"/><path class="cls-28" d="M3306.48,627l62.11,10.59c-6.08,11.88-20.21,20.5-40.44,24.65Z"/><path class="cls-29" d="M3306.48,627l-18.33,35.86c-34.3-5.85-53.9-26.64-43.77-46.44s46.14-31.12,80.44-25.27c13.72,2.34,24.29,6.52,33,13.07Z"/><path class="cls-51" d="M3306.48,627l51.34-22.78c13.08,9.82,16.85,21.49,10.77,33.37Z"/><path class="cls-29" d="M3472.18,606.93V751c-.06,3.52,2.24,7,6.89,9.73,9.18,5.3,24.08,5.3,33.26,0,4.54-2.62,6.84-6,6.89-9.48v-144Z"/><path class="cls-32" d="M3512.22,597.28a30.69,30.69,0,0,0-12.93-3.81c-10.23-.94-19.84,1.9-24.51,7.25s-3,11.52,4.39,15.76c5.52,3.19,12.6,4.52,20.27,3.81s13.67-3.23,17.18-7.24C3521.29,607.7,3519.57,601.52,3512.22,597.28Z"/><path class="cls-29" d="M3429.35,652V775.69c0,3.51,2.24,7,6.89,9.73,9.19,5.3,24.08,5.3,33.26,0,4.54-2.62,6.84-6,6.89-9.48V652.22Z"/><path class="cls-32" d="M3469.39,642.32a30.69,30.69,0,0,0-12.93-3.81c-10.23-.94-19.84,1.9-24.51,7.25s-2.95,11.52,4.4,15.76c5.51,3.19,12.59,4.52,20.27,3.82s13.67-3.24,17.17-7.25C3478.47,652.74,3476.74,646.56,3469.39,642.32Z"/><path class="cls-31" d="M3386.52,696.34V800.41c-.05,3.52,2.24,7.05,6.89,9.73,9.19,5.31,24.08,5.31,33.27,0,4.53-2.62,6.83-6,6.89-9.48V696.59Z"/><path class="cls-51" d="M3426.57,686.69a30.64,30.64,0,0,0-12.94-3.81c-10.23-.94-19.84,1.9-24.51,7.24s-2.95,11.53,4.4,15.77c5.51,3.18,12.6,4.52,20.27,3.81s13.67-3.24,17.18-7.25C3435.64,697.11,3433.91,690.93,3426.57,686.69Z"/><path class="cls-31" d="M3343,747.79v77.74c-.06,3.51,2.24,7,6.89,9.72,9.18,5.31,24.08,5.31,33.26,0,4.54-2.62,6.84-6,6.89-9.47V748Z"/><path class="cls-51" d="M3383.07,738.14a30.69,30.69,0,0,0-12.93-3.81c-10.23-.94-19.84,1.9-24.51,7.25s-3,11.52,4.4,15.76c5.51,3.19,12.59,4.52,20.27,3.81s13.67-3.23,17.17-7.24C3392.15,748.56,3390.42,742.38,3383.07,738.14Z"/><path class="cls-48" d="M3299.54,796.34v54.3c-.06,3.51,2.24,7,6.88,9.72,9.19,5.31,24.08,5.31,33.27,0,4.54-2.62,6.83-6,6.89-9.47v-54.3Z"/><path class="cls-28" d="M3339.58,786.69a30.78,30.78,0,0,0-12.93-3.81c-10.24-.94-19.85,1.9-24.51,7.25s-2.95,11.52,4.39,15.76c5.51,3.19,12.6,4.52,20.27,3.81s13.67-3.23,17.18-7.24C3348.65,797.11,3346.93,790.93,3339.58,786.69Z"/></g></g></g><path class="cls-33" d="M3164,864.2c-1.22-1-2.91-1.25-4.49-1.48-7.19-1.05-15.62-2.92-20.4-7.44a31.12,31.12,0,0,1-13.41-8.43c-4.81-5-9.78-13.17-9.33-20.65.05-.84-16.91-2.18-18.4-2.39a153.42,153.42,0,0,0-15.7-.51c-2.14.13-11.85-.53-22.14-.3l5.4-27.79H3042.9c-29.31,0-59,38.43-33.34,38.43h22.87c.6,2.78,3.14,6.26,8.34,10.63,17.51,14.71,46.94,14.14,46.94,14.14s38.6,20,46.5,25.63c3.14,2.22,11.37,4.52,14.17,0,1.35-2.19-.53-5.54-1.59-7.88l7.61-.94c3.09-.38,8.64-.84,11-2.85S3166.38,866.21,3164,864.2Z"/><path class="cls-33" d="M3415.53,982h21.85l3.37-17.31h-10.2C3417.34,964.68,3404,982,3415.53,982Z"/><path class="cls-33" d="M3655.27,890.86h34.4l5.31-27.25h-16.06C3658.13,863.61,3637.07,890.86,3655.27,890.86Z"/><path class="cls-28" d="M3308,327.54a.59.59,0,0,1-.59-.58V278.79l-25.65,14.81a.57.57,0,0,1-.79-.21.58.58,0,0,1,.21-.8l26.53-15.31a.55.55,0,0,1,.58,0,.57.57,0,0,1,.29.5V327A.58.58,0,0,1,3308,327.54Z"/><path class="cls-28" d="M3305.45,328.44c0,1.6,1.12,2.24,2.5,1.44a5.49,5.49,0,0,0,2.49-4.32c0-1.59-1.11-2.24-2.49-1.44A5.52,5.52,0,0,0,3305.45,328.44Z"/><polygon class="cls-28" points="3049.56 379.02 3043.84 382.33 3043.84 384.79 3049.56 381.49 3049.56 379.02"/><polygon class="cls-28" points="3060.32 372.81 3052.87 377.11 3052.87 379.57 3060.32 375.27 3060.32 372.81"/><polygon class="cls-28" points="3084.09 361.55 3084.09 359.09 3063.63 370.9 3063.63 373.36 3084.09 361.55"/><polygon class="cls-28" points="3055.91 382.05 3043.84 389.01 3043.84 391.48 3055.91 384.51 3055.91 382.05"/><polygon class="cls-28" points="3059.22 382.6 3066.66 378.3 3066.66 375.84 3059.22 380.14 3059.22 382.6"/><polygon class="cls-28" points="3076.3 372.74 3076.3 370.27 3069.97 373.93 3069.97 376.39 3076.3 372.74"/><polygon class="cls-28" points="3079.61 370.83 3083.84 368.38 3083.84 365.92 3079.61 368.36 3079.61 370.83"/><polygon class="cls-28" points="3049.56 392.39 3043.84 395.7 3043.84 398.16 3049.56 394.86 3049.56 392.39"/><polygon class="cls-28" points="3052.87 392.95 3060.32 388.65 3060.32 386.19 3052.87 390.48 3052.87 392.95"/><polygon class="cls-28" points="3063.63 386.74 3079.61 377.51 3079.61 375.05 3063.63 384.27 3063.63 386.74"/><polygon class="cls-28" points="3055.91 395.42 3043.84 402.39 3043.84 404.85 3055.91 397.88 3055.91 395.42"/><polygon class="cls-28" points="3066.66 389.21 3059.22 393.51 3059.22 395.97 3066.66 391.67 3066.66 389.21"/><polygon class="cls-28" points="3069.97 387.3 3069.97 389.76 3076.3 386.11 3076.3 383.65 3069.97 387.3"/><polygon class="cls-28" points="3049.56 405.77 3043.84 409.07 3043.84 411.53 3049.56 408.23 3049.56 405.77"/><polygon class="cls-28" points="3052.87 406.32 3060.32 402.02 3060.32 399.56 3052.87 403.86 3052.87 406.32"/><polygon class="cls-28" points="3078.22 391.69 3078.22 389.22 3063.63 397.65 3063.63 400.11 3078.22 391.69"/><path class="cls-28" d="M3505.85,642.35a.59.59,0,0,1-.5-.29.58.58,0,0,1,.21-.8l90.27-52.12a.58.58,0,1,1,.58,1l-90.27,52.12A.6.6,0,0,1,3505.85,642.35Z"/><path class="cls-28" d="M3503.36,643.2c0,1.6,1.11,2.24,2.49,1.44a5.51,5.51,0,0,0,2.5-4.32c0-1.59-1.12-2.24-2.5-1.44A5.51,5.51,0,0,0,3503.36,643.2Z"/><polygon id="Cube_face_-_right" data-name="Cube face - right" class="cls-52" points="3004.76 434.31 3009.57 431.54 3009.57 364.63 3004.76 367.41 3004.76 434.31"/><polygon id="Cube_face_-_right-2" data-name="Cube face - right" class="cls-52" points="3009.57 431.54 3014.38 428.76 3014.38 376.44 3009.57 379.22 3009.57 431.54"/><polygon id="Cube_face_-_right-3" data-name="Cube face - right" class="cls-28" points="3014.38 428.76 3019.19 425.99 3019.19 378.8 3014.38 381.57 3014.38 428.76"/><polygon id="Cube_face_-_right-4" data-name="Cube face - right" class="cls-28" points="3019.19 425.99 3024 423.21 3024 397.85 3019.19 400.63 3019.19 425.99"/><polygon id="Cube_face_-_right-5" data-name="Cube face - right" class="cls-28" points="3024 423.21 3028.8 420.43 3028.8 384.57 3024 387.35 3024 423.21"/><polygon id="Cube_face_-_right-6" data-name="Cube face - right" class="cls-28" points="3028.8 420.43 3033.61 417.66 3033.61 399.29 3028.8 402.06 3028.8 420.43"/><polygon id="Cube_face_-_right-7" data-name="Cube face - right" class="cls-28" points="3033.61 417.66 3038.42 414.88 3038.42 411.46 3033.61 414.24 3033.61 417.66"/><path class="cls-28" d="M3552.62,496.75c0,1.59,1.12,2.24,2.5,1.44a5.54,5.54,0,0,0,2.49-4.32c0-1.6-1.12-2.24-2.49-1.44A5.51,5.51,0,0,0,3552.62,496.75Z"/><path class="cls-28" d="M3450.91,504.09a.57.57,0,0,1-.5-.29.59.59,0,0,1,.21-.8l104.2-60.16a.62.62,0,0,1,.59,0,.6.6,0,0,1,.29.51v52a.59.59,0,0,1-1.17,0V444.36L3451.21,504A.56.56,0,0,1,3450.91,504.09Z"/><polygon class="cls-28" points="3511.43 450.41 3517.15 447.1 3517.15 449.56 3511.43 452.87 3511.43 450.41"/><polygon class="cls-28" points="3500.67 456.62 3508.12 452.32 3508.12 454.78 3500.67 459.08 3500.67 456.62"/><polygon class="cls-28" points="3480.79 470.56 3480.79 468.09 3497.36 458.53 3497.36 460.99 3480.79 470.56"/><polygon class="cls-28" points="3505.08 460.76 3517.15 453.79 3517.15 456.25 3505.08 463.22 3505.08 460.76"/><polygon class="cls-28" points="3501.77 465.13 3494.32 469.43 3494.32 466.97 3501.77 462.67 3501.77 465.13"/><polygon class="cls-28" points="3484.69 474.99 3484.69 472.53 3491.01 468.88 3491.01 471.34 3484.69 474.99"/><polygon id="Cube_face_-_right-8" data-name="Cube face - right" class="cls-52" points="3521.72 453.77 3526.52 450.99 3526.52 445.71 3521.72 448.49 3521.72 453.77"/><polygon id="Cube_face_-_right-9" data-name="Cube face - right" class="cls-52" points="3526.52 450.99 3531.33 448.22 3531.33 427.96 3526.52 430.74 3526.52 450.99"/><polygon id="Cube_face_-_right-10" data-name="Cube face - right" class="cls-28" points="3531.33 448.22 3536.14 445.44 3536.14 421.96 3531.33 424.74 3531.33 448.22"/><polygon id="Cube_face_-_right-11" data-name="Cube face - right" class="cls-28" points="3536.14 445.44 3540.95 442.66 3540.95 407.79 3536.14 410.56 3536.14 445.44"/><polygon id="Cube_face_-_right-12" data-name="Cube face - right" class="cls-28" points="3540.95 442.66 3545.76 439.89 3545.76 410.06 3540.95 412.83 3540.95 442.66"/><polygon id="Cube_face_-_right-13" data-name="Cube face - right" class="cls-28" points="3545.76 439.89 3550.57 437.11 3550.57 418.74 3545.76 421.52 3545.76 439.89"/><polygon id="Cube_face_-_right-14" data-name="Cube face - right" class="cls-28" points="3550.57 437.11 3555.37 434.33 3555.37 410.06 3550.57 412.83 3550.57 437.11"/><path class="cls-53" d="M3084.7,786.47l-31.85-.17-29.37-.16v25.45c-.19,11.84,14.46,19,27.16,21.13,0,.06,2.21.39,2.21.39,10.89,1.41,22.63.09,31.85-4.06a33.94,33.94,0,0,0,6.08-3.4c5.63-4,8.48-8.81,8.56-13.66V786.55Z"/><path class="cls-51" d="M3088.15,770.59c-20.39-11.78-55.18-6.63-63.24,9.35-2.35,4.66-2.12,9,.71,13.59a25.05,25.05,0,0,0,8.94,8.29,49,49,0,0,0,16.19,5.46c12.09,2.06,23.94.78,33.89-3.66,6.65-3,10.88-6.56,13.23-11.22C3101.91,784.39,3097.71,776.11,3088.15,770.59Z"/><path class="cls-54" d="M3449.39,960.74l-14.36-.08-13.23-.07v11.47c-.09,5.33,6.51,8.55,12.24,9.52,0,0,1,.17,1,.17a27.5,27.5,0,0,0,14.36-1.82,15.74,15.74,0,0,0,2.74-1.54c2.53-1.78,3.82-4,3.85-6.15V960.77Z"/><path class="cls-51" d="M3450.94,953.58c-9.19-5.31-24.87-3-28.5,4.21a5.83,5.83,0,0,0,.32,6.13,11.22,11.22,0,0,0,4,3.73,21.82,21.82,0,0,0,7.3,2.46,26.44,26.44,0,0,0,15.27-1.65c3-1.33,4.9-3,6-5.05C3457.14,959.8,3455.25,956.07,3450.94,953.58Z"/><path class="cls-55" d="M3708.57,857.41l-22.59-.12-20.84-.12v18.06c-.13,8.39,10.26,13.45,19.27,15,0,0,1.57.28,1.57.28,7.72,1,16.05.07,22.59-2.88a24.76,24.76,0,0,0,4.32-2.41c4-2.82,6-6.25,6.06-9.69v-18Z"/><path class="cls-51" d="M3711,846.14c-14.46-8.35-39.14-4.7-44.86,6.63a9.15,9.15,0,0,0,.51,9.65,17.59,17.59,0,0,0,6.33,5.87,34.87,34.87,0,0,0,11.49,3.88,41.92,41.92,0,0,0,24-2.6c4.72-2.1,7.71-4.65,9.38-8C3720.78,855.93,3717.8,850.05,3711,846.14Z"/><path class="cls-28" d="M3522.07,107.09c-3-1.71-7-1.47-11.52,1.13l8.37,4.87c4.5-2.6,8.58-2.84,11.53-1.13Z"/><polygon class="cls-56" points="3365.36 300.43 3356.98 295.56 3357.07 326.63 3365.45 331.5 3365.36 300.43"/><path class="cls-56" d="M3347.85,291.9l-.17-61.31-8.38-4.87.17,61.31c0,5.1,1.82,8.69,4.73,10.38l8.38,4.87C3349.67,300.59,3347.87,297,3347.85,291.9Z"/><polygon class="cls-28" points="3510.55 108.22 3355.44 197.77 3363.82 202.64 3518.92 113.09 3510.55 108.22"/><path class="cls-48" d="M3355.44,197.77c-8.93,5.16-16.17,17.66-16.14,27.95l8.38,4.87c0-10.29,7.21-22.79,16.14-28Z"/><path class="cls-32" d="M3518.92,113.09c8.93-5.16,16.22-1,16.25,9.26l.17,61.3c0,10.26-7.21,22.8-16.14,27.95l-136.61,78.88-17.14,41-.09-31.07-1.26.73c-8.93,5.15-16.22,1-16.25-9.26l-.17-61.31c0-10.29,7.21-22.79,16.14-28Z"/><path class="cls-28" d="M3367.12,226.31a.59.59,0,0,1-.59-.59v-61.9l-83.3,48.1a.58.58,0,0,1-.8-.21.59.59,0,0,1,.21-.8l84.19-48.6a.55.55,0,0,1,.58,0,.57.57,0,0,1,.29.5v62.91A.58.58,0,0,1,3367.12,226.31Z"/><path class="cls-28" d="M3364.62,227.17c0,1.59,1.12,2.23,2.5,1.44a5.53,5.53,0,0,0,2.49-4.33c0-1.59-1.11-2.23-2.49-1.44A5.52,5.52,0,0,0,3364.62,227.17Z"/><polygon class="cls-28" points="3434.77 276.58 3429.05 279.89 3429.05 282.35 3434.77 279.04 3434.77 276.58"/><polygon class="cls-28" points="3445.53 270.37 3438.08 274.67 3438.08 277.13 3445.53 272.83 3445.53 270.37"/><polygon class="cls-28" points="3469.05 259.26 3469.05 256.79 3448.84 268.46 3448.84 270.92 3469.05 259.26"/><polygon class="cls-28" points="3476.57 252.45 3472.36 254.88 3472.36 257.35 3476.57 254.91 3476.57 252.45"/><polygon class="cls-28" points="3441.12 279.61 3429.05 286.57 3429.05 289.03 3441.12 282.07 3441.12 279.61"/><polygon class="cls-28" points="3444.43 280.16 3451.87 275.86 3451.87 273.39 3444.43 277.69 3444.43 280.16"/><polygon class="cls-28" points="3461.51 270.3 3461.51 267.83 3455.18 271.48 3455.18 273.95 3461.51 270.3"/><polygon class="cls-28" points="3464.82 268.38 3472.95 263.69 3472.95 261.22 3464.82 265.92 3464.82 268.38"/><polygon class="cls-28" points="3434.77 289.95 3429.05 293.26 3429.05 295.72 3434.77 292.42 3434.77 289.95"/><polygon class="cls-28" points="3438.08 290.5 3445.53 286.2 3445.53 283.74 3438.08 288.04 3438.08 290.5"/><polygon class="cls-28" points="3448.84 284.29 3469.05 272.63 3469.05 270.17 3448.84 281.83 3448.84 284.29"/><polygon class="cls-28" points="3441.12 292.98 3429.05 299.94 3429.05 302.41 3441.12 295.44 3441.12 292.98"/><polygon class="cls-28" points="3451.87 286.77 3444.43 291.07 3444.43 293.53 3451.87 289.23 3451.87 286.77"/><polygon class="cls-28" points="3455.18 284.86 3455.18 287.32 3461.51 283.67 3461.51 281.2 3455.18 284.86"/><polygon class="cls-28" points="3472.95 274.6 3464.82 279.29 3464.82 281.76 3472.95 277.06 3472.95 274.6"/><polygon class="cls-28" points="3434.77 303.33 3429.05 306.63 3429.05 309.09 3434.77 305.79 3434.77 303.33"/><polygon class="cls-28" points="3438.08 303.88 3445.53 299.58 3445.53 297.12 3438.08 301.42 3438.08 303.88"/><polygon class="cls-28" points="3469.05 286 3469.05 283.54 3448.84 295.2 3448.84 297.67 3469.05 286"/><polygon class="cls-28" points="3293.55 186.53 3281.48 193.49 3281.48 195.96 3293.55 188.99 3293.55 186.53"/><polygon class="cls-28" points="3304.31 180.31 3296.86 184.61 3296.86 187.08 3304.31 182.78 3304.31 180.31"/><polygon class="cls-28" points="3307.62 178.4 3307.62 180.87 3313.94 177.22 3313.94 174.75 3307.62 178.4"/><polygon class="cls-28" points="3287.2 196.87 3281.48 200.18 3281.48 202.64 3287.2 199.34 3287.2 196.87"/><polygon class="cls-28" points="3290.51 197.43 3297.96 193.13 3297.96 190.66 3290.51 194.96 3290.51 197.43"/><polygon class="cls-28" points="3311.17 185.5 3311.17 183.04 3301.27 188.75 3301.27 191.22 3311.17 185.5"/><polygon class="cls-28" points="3472.1 176.09 3466.38 179.4 3466.38 181.86 3472.1 178.55 3472.1 176.09"/><polygon class="cls-28" points="3482.86 169.88 3475.41 174.18 3475.41 176.64 3482.86 172.34 3482.86 169.88"/><polygon class="cls-28" points="3506.63 158.62 3506.63 156.16 3486.17 167.97 3486.17 170.43 3506.63 158.62"/><polygon class="cls-28" points="3478.45 179.12 3466.38 186.08 3466.38 188.54 3478.45 181.58 3478.45 179.12"/><polygon class="cls-28" points="3481.76 179.67 3489.2 175.37 3489.2 172.9 3481.76 177.2 3481.76 179.67"/><polygon class="cls-28" points="3498.84 169.81 3498.84 167.34 3492.51 170.99 3492.51 173.46 3498.84 169.81"/><polygon class="cls-28" points="3502.15 167.89 3506.38 165.45 3506.38 162.99 3502.15 165.43 3502.15 167.89"/><polygon class="cls-28" points="3472.1 189.46 3466.38 192.77 3466.38 195.23 3472.1 191.93 3472.1 189.46"/><polygon class="cls-28" points="3475.41 190.01 3482.86 185.72 3482.86 183.25 3475.41 187.55 3475.41 190.01"/><polygon class="cls-28" points="3486.17 183.81 3502.15 174.58 3502.15 172.12 3486.17 181.34 3486.17 183.81"/><polygon class="cls-28" points="3478.45 192.49 3466.38 199.45 3466.38 201.92 3478.45 194.95 3478.45 192.49"/><polygon class="cls-28" points="3489.2 186.28 3481.76 190.58 3481.76 193.04 3489.2 188.74 3489.2 186.28"/><polygon class="cls-28" points="3492.51 184.37 3492.51 186.83 3498.84 183.18 3498.84 180.72 3492.51 184.37"/><polygon class="cls-28" points="3472.1 202.84 3466.38 206.14 3466.38 208.6 3472.1 205.3 3472.1 202.84"/><polygon class="cls-28" points="3475.41 203.39 3482.86 199.09 3482.86 196.63 3475.41 200.93 3475.41 203.39"/><polygon class="cls-28" points="3500.76 188.75 3500.76 186.29 3486.17 194.71 3486.17 197.18 3500.76 188.75"/><path class="cls-51" d="M3454.94,189.64c-4.84-3.87-13-1.81-20.85,5.26l5.76,14.42,18.66-10.77C3458.51,194.42,3457.37,191.57,3454.94,189.64Z"/><path class="cls-52" d="M3439.85,209.32l-18.65,10.77c0-8.25,5.05-18.11,12.89-25.19Z"/><path class="cls-30" d="M3439.85,209.32l-11,21.42c-5-.75-7.69-4.47-7.69-10.65Z"/><path class="cls-28" d="M3445.62,223.73c7.83-7.07,12.89-16.94,12.89-25.18l-18.66,10.77-11,21.42C3433.89,231.48,3439.74,229,3445.62,223.73Z"/><path class="cls-52" d="M3395.27,235.05l-9-11.29a40.39,40.39,0,0,0-8,13c-2.67,7.15-2.5,13,.46,16.75Z"/><path class="cls-30" d="M3395.27,235.05l-9-11.29c9.1-10.2,20.49-13.42,25.43-7.18s1.59,19.57-7.5,29.77a33.48,33.48,0,0,1-11.4,8.7Z"/><path class="cls-28" d="M3395.27,235.05l-2.43,20c-6.16,2.75-11.07,2.22-14-1.53Z"/><path class="cls-33" d="M3618.48,960.37c-9.86.93-47.09.85-61.45-1.54-31.52-5.26-65.56-33.79-32.19-40.36,22.31-4.39,66.33-4.19,66.33-4.19l-.42,4.19c-.37.73-9.24,5.54-12.25,11.76-1.76,3.65,11.07,11.62,18.47,11.62,1.9,0,20.09.39,20.09.39S3619.47,960.28,3618.48,960.37Z"/><path class="cls-57" d="M3542.67,803.91a262.26,262.26,0,0,1,25-10.19s5-15.07,8.67-23.1c1.64,1.56,10,10.52,10.07,10.58a109.17,109.17,0,0,1-10.06,20.13,7,7,0,0,1-3.79,3c-7.52,2.43-25.64,6.65-29,7.51C3539,813,3538.59,805.82,3542.67,803.91Z"/><path class="cls-58" d="M3566.31,786.85c-.47,2.16,17.25,10,18.78,5.32,2.47-7.57,9.21-29.53-3.27-30C3574.66,761.86,3567.8,779.9,3566.31,786.85Z"/><g id="_15" data-name="15"><path class="cls-48" d="M3569.07,924a47.47,47.47,0,0,1,7.52-5.5,43.84,43.84,0,0,0,6.38-.48c4.15-.49,9-1.34,12.41-4a15.32,15.32,0,0,1,.18,2.46c0,1.66.12,2.54-1.71,3.84-9.22,6.53-10.53,7.39-12.22,8.37-1.91,1.11-4.43,2.71-9.72,1.59-3.13-1-3.34-2.23-3.29-3.19C3568.65,926.63,3568.44,924.67,3569.07,924Z"/><path class="cls-59" d="M3569.52,922.91c1.6-1.49,6.39-5.23,9-7.45a10.86,10.86,0,0,0,3.26-3.91c0-.12.1-.24.13-.34.94-2.65,8.21-3.68,11.61-2.19,1.6.7,2.06,3.33,2.06,5.8,0,1.65-.08,2.34-1.91,3.64-9.23,6.53-11.71,8-13.45,8.85a10.23,10.23,0,0,1-7.24,1.12,6.39,6.39,0,0,1-3.51-1.63A2.71,2.71,0,0,1,3569.52,922.91Z"/><path class="cls-48" d="M3623.37,963.68c-3.63,2.86-12.21,3.72-14.26-1.18-1-2.27,2.81-17.15,3.19-21.46.11-1.23.29-3.4.29-3.4.35-.41,1.64-.66,2.13-.86,2.11-.88,5.81.2,8.09.2,1.16,0,1.73,7.81,1.78,8.59C3624.92,950.31,3626.2,961.46,3623.37,963.68Z"/><path class="cls-59" d="M3623.57,961.13c-3.64,2.85-12.21,3.71-14.26-1.18-.95-2.28,2.48-17.14,2.86-21.45.11-1.23.29-3.4.29-3.4.35-.41,2-.67,2.46-.88,2.11-.87,5.81.2,8.09.2,1.16,0,1.73,7.81,1.78,8.59C3625.12,947.75,3626.4,958.9,3623.57,961.13Z"/><path class="cls-60" d="M3610.72,827.22c9.12,4,6.17,35.21,6.15,48.8a71.23,71.23,0,0,0,.28,7.73,51.78,51.78,0,0,0,3.41,13c3.08,8,4.84,31.47,4.6,40-.35,5.23-14.31,4.09-14.24,1.1-3.22-21.18-6-24.9-8.68-37.06-.46-2.08-.81-4.18-1.43-6.22-.58-1.88-1.4-3.68-2-5.56a68.67,68.67,0,0,1-2.28-11.22c-1.24-8.39-1.69-14.13-2.13-21.21l-1.15,22c.64,2.63,1.22,6.39,1.64,9.06.76,4.86-.14,10.61.12,15.52.2,4,.71,7.24.66,7.84-.23,3.25-12.83,5.43-14.89,1-.83-11.16-1.65-13.08-3.68-25.69a73.54,73.54,0,0,1-.88-7.83c-.11-3.67-2-7-2.64-10.56-1.9-10.15-2.75-42.42,2.46-43.73C3584.71,822.06,3602.81,823.78,3610.72,827.22Z"/><path class="cls-58" d="M3573.15,829.27c.8-9.75,3.51-18.62,2.48-33.3-.61-8.7-5-25.72,2.46-31.5,5-3.92,8.66-1.65,13.64-.72,12.66,2.35,22.84,7.19,24.7,10.48,4.25,7.5-.68,23-2.85,40.72a27.17,27.17,0,0,0-.11,5.1,101.1,101.1,0,0,0,1.81,13.66C3616.89,841,3572.05,842.56,3573.15,829.27Z"/><path class="cls-61" d="M3586.55,762.07c5.39-.67,11-3.09,15.77-5.2-1.72,3.68-1.2,8.46-1.13,10.61.1,2.83-3.25,6.46-8.19,6.46-5.89,0-7.83-2.37-7.17-5.22A37,37,0,0,0,3586.55,762.07Z"/></g><path class="cls-57" d="M3559.67,817.14a10.43,10.43,0,0,1,1.86-.14c1.3-.11,10.59-.65,9.93-1.31-1.33-.33-3.89-1.24-4.27-2.7a1,1,0,0,1,.16-1c.33-.28.81-.08,1.2.09,2.95,1.29,6.5.43,9.44,1.74a11.14,11.14,0,0,0,2.32.87c7.54-1.73,25.06-5.21,25.06-5.21s-.19-23.74.7-30.18c1.19-8.67,8.36-7.77,9.52-6.18,8.27,11.35,3,35.32,1.4,41.34s-32.45,7.31-36.34,7.94a9.25,9.25,0,0,0-1.87,1,15.63,15.63,0,0,1-1.75.71c-1,.32-5.21,1-6,.54-1.9-1-4.06-5.29-4.06-5.29-.5-.2-5.73-.3-6.6-.53a1.88,1.88,0,0,1-1.19-.69C3558.8,817.55,3559.14,817.27,3559.67,817.14Z"/><g class="cls-3"><path class="cls-58" d="M3557.6,824.45l-14-22.57a5.68,5.68,0,0,0-1.17-1.22,5.9,5.9,0,0,0-.77-.53L3522,788.78c-.47-.26-.74-.32-.82-.21l-.53.63c.08-.1.35-.05.76.18l19.71,11.38a5.15,5.15,0,0,1,.77.54,5.44,5.44,0,0,1,1.17,1.21l14.05,22.58c.13.21.16.36.1.43l.53-.64C3557.76,824.81,3557.73,824.67,3557.6,824.45Z"/><path class="cls-62" d="M3521.42,789.41l19.66,11.35a6.54,6.54,0,0,1,1.94,1.75l14.05,22.58c.33.54,0,.64-.71.22L3536.7,814a6.54,6.54,0,0,1-1.94-1.75l-14.05-22.58C3520.38,789.09,3520.7,789,3521.42,789.41Z"/></g><path class="cls-57" d="M3529,808.06a10.2,10.2,0,0,0,10.48,7.28.45.45,0,0,0,.28-.07.52.52,0,0,0,.16-.34,4.6,4.6,0,0,0-.45-2.32,16.83,16.83,0,0,0-4-6,12.57,12.57,0,0,0-5.1-3c-.33-.1-1-.38-1.29-.18s-.35,1.08-.4,1.38A7.44,7.44,0,0,0,3529,808.06Z"/><path class="cls-58" d="M3603.23,800.42c.36,2.18,19.72,3,19.43-1.94-.48-8-2.27-30.85-14.06-26.74C3601.84,774.1,3602.07,793.4,3603.23,800.42Z"/><path class="cls-57" d="M3580,750.48c-.05-1.82.19-3.78,1.72-4.8,2.36-1.57,7.82-4.35,17.28.8a11,11,0,0,1,3.17,3.4,4.52,4.52,0,0,1,.92,3.91c-.33,3.07.15,4.38-4.23,9.39a43.07,43.07,0,0,1-10.09,8.18,6,6,0,0,1-4.5.57c-1.38-.39-2.8-1.76-3.18-5.06C3580.76,764.35,3580.13,757.18,3580,750.48Z"/><path class="cls-60" d="M3596.87,756.05c-.48.91-2.37,1.24-2.89-.89-.63-2.59-3.08-3.17-4.95-3.24a17.36,17.36,0,0,1-7.91-1.92,3.56,3.56,0,0,1-1.12-1s-1.07-1.18-.13-4c.5-1.51,2.79-7.42,9.1-9a16.62,16.62,0,0,1,9.11.44c11.14,3.68,7.64,17.66,6.14,20.24a22,22,0,0,1-4.39,5.31c.65-2.08,3.17-6.3,1-7.73a2.31,2.31,0,0,0-2.67,0A4.36,4.36,0,0,0,3596.87,756.05Z"/><path class="cls-62" d="M3123.78,866.28c-.43.55-1.13,3.32-.27,4.15,2.07,2.19,3.18,2.91,5.49,5.43,1.58,1.72,3.76,5.08,5.76,6.38s5.37,3.49,7.79,3.9c3.16.55,5.85-.2,6.92-3.45a4.82,4.82,0,0,0-.81-4c-1.33-1.53-7.6-3.45-10.52-5.86-3.09-2.54-6.25-5-9.18-7.62C3127.65,864,3124,865.88,3123.78,866.28Z"/><path class="cls-63" d="M3124.55,868.05c-1.42-2,.27-3.55,1-5.36.45-1.06.78-2.88,1.9-3.48,1.53-.82,4,.75,5.48,1.22,1.1.35,3.1.75,3.94,1.58s.56,2.57,1.08,3.66c1.41,3,4.21,4.78,6.51,7,1.93,1.89,4.32,4.3,5,7.07a3.64,3.64,0,0,1-3.95,4.24c-3.78-.3-7.7-2.75-10.4-5.29-1.82-1.72-3.43-3.62-5.08-5.48S3126,870.15,3124.55,868.05Z"/><path class="cls-62" d="M3143.3,867.92a6.2,6.2,0,0,0,3.73,2.89c6.84,1,15.69,1.75,19.58-1.48,3.45-2.87,5.22-7.08,3.94-9.44a5.07,5.07,0,0,0-1.88-1.72,5.92,5.92,0,0,0-5.22-.34c-2,.79-4.39,1.95-6.63,2.12-3.78.29-7.28,2.46-10.83,3.61C3144.39,864.08,3143.06,867.58,3143.3,867.92Z"/><path class="cls-63" d="M3146.22,869.59c-3.48-1-2.87-2.14-4.19-3.16-1.74-1.35-3.51-2.85-3.68-3.93a4,4,0,0,1,.07-1.34,7.11,7.11,0,0,1,2-3.34,10,10,0,0,1,4.68-3.06c1.33-.43,1.74.7,4,1.29,2.69.69,14-.15,18.67,1.69a3.23,3.23,0,0,1,1.53,4,14.43,14.43,0,0,1-3.12,5.4C3162,871.56,3147.52,870,3146.22,869.59Z"/><path class="cls-60" d="M3150,815c-3.1-2.72-39-1-41.74,1.64-1.31,1.47-2.56,14.15-3.83,15.66,4.14,3.68,1.92-.49,6,3.19l23.11-1.38c-.76,1.32-4.66,12.48-7.39,26.22-1.09,3.44,10.57,8,12.31,4.87C3142.85,856.9,3157,821,3150,815Z"/><path class="cls-60" d="M3147.91,855.22c-2.9-2.33-26.59-21.7-28.81-22.78-2.47-1.19-13.41-8.84-16.35-8.89.9-4.77,2.41-13.33,1.3-18.63-9.89.23-23.45,11-23.45,11a38.07,38.07,0,0,0,.45,16.46,17.91,17.91,0,0,0,15.68,13.75c7,.69,14.57,2.24,14.57,2.24.75,0,15.29,10.92,29.5,17.24C3143.54,867.24,3150.24,857.17,3147.91,855.22Z"/><path class="cls-57" d="M3106.85,762.18a24.11,24.11,0,0,0,.14,3.8c.78,7.17,3.06,19.41,5.67,26.13,4.57.66,8.25-.52,9.86-6-1.46-7.84-2.42-19.35-5.31-26.47C3113.8,760.62,3110.33,761.44,3106.85,762.18Z"/><path class="cls-58" d="M3106.33,780.81s7.57,4.15,16.64-2.5c-.27-6.75-4.64-25.91-12.16-24.29C3101.21,756.08,3103.46,768.07,3106.33,780.81Z"/><path class="cls-58" d="M3117.54,776.47c-.05-2.27.9-10.82-1.18-16.76a7.78,7.78,0,0,0-8.69-4.86,36.51,36.51,0,0,0-14.76,5.36c-3.2,2.09-14.91,10-15.33,12.82-.3,1.92-1.32,3.66-1.2,5.61.42,7.15,3,22.55,3.46,44.11,3.35,5.37,16.45,5.81,22.8,4.27,9.47-2.29,12.66-6.21,13.34-12.35C3116,814.54,3117.69,784.75,3117.54,776.47Z"/><g class="cls-3"><path class="cls-58" d="M3149.11,804.08l-.66.8L3127,819.31l-3,1.15s-13.38.78-13.42.66l.25.62c0,.11.24.17.57.15l12.86-.82a7.51,7.51,0,0,0,3-1.14l21.44-14.44c.51-.34.74-.63.67-.8Z"/><path class="cls-63" d="M3148.54,803.92l-12.86.82a7.45,7.45,0,0,0-3,1.15l-21.44,14.43c-.86.58-.91,1-.1,1l12.86-.82a7.4,7.4,0,0,0,3-1.15l21.45-14.43C3149.3,804.3,3149.36,803.87,3148.54,803.92Z"/></g><path class="cls-57" d="M3117.77,821.48a4,4,0,0,1-3-1.1c-.56-.53-1.07-1-1-1.09a9.47,9.47,0,0,1,2.08-.78c.45-.15,3.39-1,2.67-1.91-.21-.27-.81-.14-1.09-.11-.7.08-1.39.2-2.1.25a16.3,16.3,0,0,0-2.28.34c-1.66.34-4.11.86-4.39,1l-15.63-9.9a4.13,4.13,0,0,1-1.92-3.16c-.64-8-.52-28-2.49-31.49-2.39-4.18-13.93-4.24-12.2,6.93,1.2,7.68,4,22.46,6.13,31.53a4.14,4.14,0,0,0,2.12,2.72,225.34,225.34,0,0,0,22.45,9.82c1.19.61,2.79,1.28,3.85,1.7a2.77,2.77,0,0,0,2.27-.11,5.52,5.52,0,0,1,1.24-.49c.45-.11.93-.12,1.38-.26a4.38,4.38,0,0,0,2.17-1.53,6.17,6.17,0,0,1,1.49-.94,19.24,19.24,0,0,0,2-1.65Z"/><path class="cls-57" d="M3143,802.93a1.19,1.19,0,0,0,.44-1.43c-.08-.22-.7-3.28-2.14-4-.5-.24-7.9.41-7.9.41s-10.64-11.09-10.91-11.83l-5.35,4.79-.13,2.93c.61.32,13.28,9.83,13.42,9.9.67.36,1,1.52,1.14,2.28s-.09,2,1,2a1.61,1.61,0,0,0,1.28-1.25c.31-1-.06-1.91.17-2.87a1.44,1.44,0,0,1,.15-.41c.4-.7,1.16-.48,1.78-.32.34.08,1.06.14,1.31.39.64.62.9,2.9,1.6,3.39.33.24,1.13.21,1.14-.47.24.67.47,1.35.49,1.38.49.71,1.52.21,1.66-.51a1.22,1.22,0,0,0,1.41-.66,3,3,0,0,0,0-2.16C3143.42,804,3143,802.93,3143,802.93Z"/><path class="cls-58" d="M3075.8,794.37s6.83,5.27,16.82.1c.78-6.71-.58-26.32-8.26-25.88C3074.56,769.15,3074.94,781.33,3075.8,794.37Z"/><path class="cls-57" d="M3106.4,756a25.19,25.19,0,0,0-10.75,3c-4.22,2.56-6.69,4.19-5.8,5.51,3.4,5.06,9.43,10.17,15.16,7.53l.14-.06a8.61,8.61,0,0,0,4.5-10.86C3108.78,758.82,3107.6,757.77,3106.4,756Z"/><path class="cls-61" d="M3098.55,751.39l-5.73,11.42s.06,1.59,2.24,4.12c3.36,3.9,6.59,4.12,8.59,3.72a3.46,3.46,0,0,0,2.65-2.57l.33-1.27Z"/><path class="cls-57" d="M3101,737.25c-4.67,2.18-8,5.82-6.25,14.94,1.33,7,7.75,13.77,13.3,17.26,1.38.86,5.47,1.62,6.56-1.52.93-2.66,3-10.4,2.65-17-.31-5.3-.8-9.83-5.06-12.82C3109.32,736.07,3105.93,735,3101,737.25Z"/><path class="cls-64" d="M3103.06,755c.62-1.38.58-2.47,2-3.32,2.37-1.4,9.61-4.19,11.85-3.6.16,0,.19-.05.22-.09.37-.55.93-1.35.77-2.06s-.67-1.07-.7-1.74c0-.48.29-.93.3-1.41,0-.81-.79-1.39-1.09-2.15-.39-1,.05-2.2-.57-3s-1.62-.83-2.27-1.46c-1.08-1-.5-1.08-2.46-1-.89,0-1.16-.61-1.88-.94s-1.48-.11-2.2-.27-1.39-.71-2.15-.73-1.55.62-2.36.89c-1.05.36-2.28.1-3.23.67-.8.48-1.24,1.47-2.1,1.83-.36.15-.77.17-1.11.35-.9.48-1,1.74-1.49,2.61s-1.43,1.37-1.75,2.28c-.4,1.15.36,2.46,0,3.62a11.58,11.58,0,0,0-.48,1.23c-.16.89.5,1.71.68,2.61.38,1.88-.65,2.39,1.48,5.83.3.49,2,3.46,2.72,3.24s0-3.15.08-4a1.57,1.57,0,0,1,2.64-1.2c.81.76.74,2.25,2,2.53A.91.91,0,0,0,3103.06,755Z"/></g></g></g></svg>