<svg xmlns="http://www.w3.org/2000/svg" viewBox="0 0 1073.5 221.5">
  <defs>
    <style>
      .cls-1 {
        fill: #ffce11;
      }

      .cls-2 {
        fill: #1b1f23;
        fill-rule: evenodd;
      }

      .cls-3 {
        fill: #151514;
      }

      .cls-4 {
        fill: #1ca9be;
      }

      .cls-5 {
        fill: #78cbc3;
      }

      .cls-6 {
        fill: #51666d;
      }

      .cls-7 {
        fill: #80c5e6;
      }

      .cls-8 {
        fill: #dae4e8;
      }

      .cls-9 {
        fill: #9e3e97;
      }

      .cls-10 {
        fill: #da5ba2;
      }

      .cls-11 {
        fill: #ab1807;
      }

      .cls-12 {
        fill: #ac1806;
      }

      .cls-13 {
        fill: #d83122;
      }

      .cls-14 {
        fill: #d9301e;
      }
    </style>
  </defs>
  <g id="Calque_2" data-name="Calque 2">
    <g id="Calque_1-2" data-name="Calque 1">
      <rect class="cls-1" width="1073.5" height="221.5"/>
      <g>
        <path d="M36.36,22v4.92H31V42.67h-5.7V26.89H19.83V22Z"/>
        <path d="M51.06,36H41.19c.15,2.43.93,3.45,2.4,3.45a2,2,0,0,0,2.1-1.89h5.37C50.61,40.87,48,43,43.41,43c-4.95,0-7.77-2.79-7.77-7.86s3-8.16,8-8.16,7.47,2.7,7.47,7.86ZM41.28,33.1h4.5c-.21-1.8-.93-2.7-2.22-2.7S41.52,31.18,41.28,33.1Z"/>
        <path d="M67.89,33.07v9.6h-4.2v-1l.42-1.47H63.6Q62.07,43,58,43c-3.45,0-5.37-1.71-5.37-4.35s2-4.38,5.91-4.83l3.84-.42v-.6q0-2.16-2.07-2.16a1.84,1.84,0,0,0-2.07,2.1H52.92C52.92,29,55.65,27,60.45,27,65.4,27,67.89,29,67.89,33.07Zm-5.49,4v-.93L60,36.46c-1.29.15-1.92.66-1.92,1.53s.57,1.44,1.74,1.44A2.38,2.38,0,0,0,62.4,37.12Z"/>
        <path d="M93.36,31.9V42.67H88V33c0-1.29-.51-1.92-1.53-1.92-1.2,0-1.95.87-1.95,2.4v9.21H79.14V33c0-1.29-.51-1.92-1.53-1.92-1.2,0-2,.87-2,2.4v9.21H70.29V27.34h4v1L73.89,30h.48a5.09,5.09,0,0,1,4.92-3,5,5,0,0,1,3.81,1.5L82.71,30h.45a5.28,5.28,0,0,1,5.16-3C91.53,27,93.36,28.87,93.36,31.9Z"/>
        <path d="M103.05,42.67V22h8.82l2.64,11.64.3,2.1h.69l.27-2.1L118.41,22h8.52v20.7h-5.16l.33-12.12V28.27h-.75l-.3,2-3.12,12.36h-5.76l-3.09-12.36-.3-2H108v2.28l.33,12.12Z"/>
        <path d="M144.72,36h-9.87c.15,2.43.93,3.45,2.4,3.45a2,2,0,0,0,2.1-1.89h5.37c-.45,3.36-3.09,5.49-7.65,5.49-4.95,0-7.77-2.79-7.77-7.86s3-8.16,7.95-8.16,7.47,2.7,7.47,7.86Zm-9.78-2.85h4.5c-.21-1.8-.93-2.7-2.22-2.7S135.18,31.18,134.94,33.1Z"/>
        <path d="M169.92,31.9V42.67h-5.37V33c0-1.29-.51-1.92-1.53-1.92-1.2,0-2,.87-2,2.4v9.21H155.7V33c0-1.29-.51-1.92-1.53-1.92-1.2,0-2,.87-2,2.4v9.21h-5.34V27.34h4v1L150.45,30h.48a5.09,5.09,0,0,1,4.92-3,5,5,0,0,1,3.81,1.5l-.39,1.5h.45a5.28,5.28,0,0,1,5.16-3C168.09,27,169.92,28.87,169.92,31.9Z"/>
        <path d="M188.07,35c0,5.13-2.46,8-6.33,8a5.29,5.29,0,0,1-5.13-2.82h-.48l.39,1.44v1.05h-4.23V21.07h5.49v6l-1.26,1.35-.39,1.41h.48A5.35,5.35,0,0,1,181.74,27C185.61,27,188.07,29.86,188.07,35Zm-5.64,0c0-2.64-.81-4-2.4-4s-2.37,1.32-2.34,4,.81,4,2.34,4S182.46,37.54,182.43,35Z"/>
        <path d="M205.2,36h-9.87c.15,2.43.93,3.45,2.4,3.45a2,2,0,0,0,2.1-1.89h5.37c-.45,3.36-3.09,5.49-7.65,5.49-5,0-7.77-2.79-7.77-7.86s3-8.16,7.95-8.16,7.47,2.7,7.47,7.86Zm-9.78-2.85h4.5c-.21-1.8-.93-2.7-2.22-2.7S195.66,31.18,195.42,33.1Z"/>
        <path d="M218.28,27.34v5.07a6.24,6.24,0,0,0-1.92-.3c-2.16,0-3.54,1.41-3.54,3.78v6.78h-5.49V27.34h4.26v1l-.45,2.1h.48A4.66,4.66,0,0,1,216.27,27,4.82,4.82,0,0,1,218.28,27.34Z"/>
        <path d="M219.45,38.05h5.13c.21,1.17,1,1.74,2.37,1.74s1.86-.42,1.86-1.29-.69-1.23-2-1.5l-2.61-.42c-3-.6-4.59-2.22-4.59-4.5,0-3.12,2.61-5.1,7.26-5.1,4.44,0,6.84,1.74,7,4.83h-5.1c-.12-1.08-.84-1.62-2.13-1.62-1.11,0-1.8.45-1.8,1.14s.69,1.14,2,1.41l2.55.45c3.27.57,4.89,2.1,4.89,4.53,0,3.39-2.85,5.31-7.56,5.28S219.69,41.35,219.45,38.05Z"/>
      </g>
      <g>
        <path d="M207,115.18v-9.37h1.56v.88a2.41,2.41,0,0,1,.51-.58,2.22,2.22,0,0,1,.63-.37,1.81,1.81,0,0,1,.69-.14,1.61,1.61,0,0,1,.72.16,1.5,1.5,0,0,1,.58.45,2,2,0,0,1,.34.71,2.15,2.15,0,0,1,.51-.7,2.2,2.2,0,0,1,.72-.45,2.27,2.27,0,0,1,.86-.17,1.68,1.68,0,0,1,.84.19,1.77,1.77,0,0,1,.59.5,2.32,2.32,0,0,1,.33.8,4.12,4.12,0,0,1,.09,1v7.07h-1.58v-6.54a5.16,5.16,0,0,0-.1-1.14A.77.77,0,0,0,214,107a.73.73,0,0,0-.42-.11.89.89,0,0,0-.66.31,2.32,2.32,0,0,0-.5.81,2.88,2.88,0,0,0-.2,1v6.11H210.7v-6.44a3.62,3.62,0,0,0-.19-1.46.83.83,0,0,0-1.15-.22,1.6,1.6,0,0,0-.39.39,2.31,2.31,0,0,0-.29.65,3.5,3.5,0,0,0-.11.89v6.19Z"/>
        <path d="M221,115.18a3.18,3.18,0,0,1-.91-.48,3.81,3.81,0,0,1-.75-.75l-.47,1.23h-1.21V101.54h2v.17a.52.52,0,0,0-.15.27,1.87,1.87,0,0,0,0,.49v4.67a4.3,4.3,0,0,1,.52-.61,3.19,3.19,0,0,1,.64-.51,2.71,2.71,0,0,1,.75-.31,3,3,0,0,1,.78-.11,3.79,3.79,0,0,1,1.57.31,3.26,3.26,0,0,1,1.22.9,4,4,0,0,1,.79,1.48,6.84,6.84,0,0,1,.28,2.08,6.66,6.66,0,0,1-.33,2.2,4.46,4.46,0,0,1-.88,1.55,3.47,3.47,0,0,1-1.26.92,3.59,3.59,0,0,1-1.47.31A3.3,3.3,0,0,1,221,115.18Zm1.69-1.48a2,2,0,0,0,.77-.57,2.72,2.72,0,0,0,.55-1.06,5.53,5.53,0,0,0,.19-1.57,5.74,5.74,0,0,0-.17-1.52,3.55,3.55,0,0,0-.48-1.09,2.07,2.07,0,0,0-.75-.64,2.27,2.27,0,0,0-1-.21,2,2,0,0,0-1.25.42,2.75,2.75,0,0,0-.83,1.21,5,5,0,0,0-.3,1.81,6.57,6.57,0,0,0,.14,1.4A3.29,3.29,0,0,0,220,113a1.74,1.74,0,0,0,.72.68,2.32,2.32,0,0,0,1.07.23A2.53,2.53,0,0,0,222.71,113.7Z"/>
        <path d="M231,115.35a3.76,3.76,0,0,1-2.46-.72,2.32,2.32,0,0,1-.86-1.86,2.67,2.67,0,0,1,.36-1.37,3.25,3.25,0,0,1,1-1.05,5.55,5.55,0,0,1,1.56-.66,8.3,8.3,0,0,1,2-.23h.61l.68,0,.72.07.07,1.3-.68-.08-.69,0h-.64a7.06,7.06,0,0,0-1.37.12,3.23,3.23,0,0,0-1,.36,1.64,1.64,0,0,0-.64.58,1.48,1.48,0,0,0-.23.81,1.36,1.36,0,0,0,.15.67,1.12,1.12,0,0,0,.39.42,1.46,1.46,0,0,0,.57.23,3.77,3.77,0,0,0,2-.16,2.47,2.47,0,0,0,1-.69,3.25,3.25,0,0,0,.6-1.14,6.53,6.53,0,0,0-.09-3.6,1.92,1.92,0,0,0-.89-1,3.49,3.49,0,0,0-1.5-.29,3.78,3.78,0,0,0-1.3.23,3.36,3.36,0,0,0-1.18.79l-.9-1.08a4.35,4.35,0,0,1,1.62-1,5.36,5.36,0,0,1,1.86-.33,5.84,5.84,0,0,1,1.68.22,3.25,3.25,0,0,1,1.33.72,3.44,3.44,0,0,1,.87,1.37,6.59,6.59,0,0,1,.31,2.16v5.11h-1.87v-1.35a2.92,2.92,0,0,1-.63.75,2.81,2.81,0,0,1-.75.46,4.13,4.13,0,0,1-.83.24A6.22,6.22,0,0,1,231,115.35Z"/>
        <path d="M238.43,118.5a3.12,3.12,0,0,1-1-.63l.67-1.19.12-.18.15.08a.78.78,0,0,0,.14.29,1.93,1.93,0,0,0,.37.3,2.66,2.66,0,0,0,.38.1,2.6,2.6,0,0,0,.4,0,1.41,1.41,0,0,0,.86-.25,2,2,0,0,0,.63-.76,9.88,9.88,0,0,0,.54-1.32l1.89-5.56c.2-.61.39-1.21.56-1.8a9.22,9.22,0,0,0,.34-1.8h1.7a9.89,9.89,0,0,1-.44,1.91c-.21.65-.43,1.29-.66,1.91l-2.34,6.5a4.29,4.29,0,0,1-1.31,2,2.94,2.94,0,0,1-1.81.58A3.36,3.36,0,0,1,238.43,118.5Zm-.54-12.69h1.8l3,7.58-.85,2Z"/>
        <path d="M248.82,115.18v-1.39h2.73V102.94h-2.61v-1.4h4.39v12.25h2.73v1.39Z"/>
        <path d="M263.14,115.35a5.41,5.41,0,0,1-1.88-.32,4,4,0,0,1-1.47-.92,3.88,3.88,0,0,1-1-1.52,6,6,0,0,1-.33-2.06,6.11,6.11,0,0,1,.34-2.09,4.49,4.49,0,0,1,.94-1.54,3.94,3.94,0,0,1,1.39-1,4.35,4.35,0,0,1,3.22-.06,3.36,3.36,0,0,1,1.24.82,3.86,3.86,0,0,1,.83,1.4,5.64,5.64,0,0,1,.31,2c0,.12,0,.26,0,.4s0,.27,0,.38h-6.54a3.86,3.86,0,0,0,.29,1.4,2.66,2.66,0,0,0,.67,1,2.58,2.58,0,0,0,.93.55,3.42,3.42,0,0,0,1.12.18,3.62,3.62,0,0,0,.89-.1,2.75,2.75,0,0,0,.79-.33,3,3,0,0,0,.68-.55l.94.9a3.85,3.85,0,0,1-.93.83,3.56,3.56,0,0,1-1.13.49A4.93,4.93,0,0,1,263.14,115.35Zm-2.89-5.83H265a3.2,3.2,0,0,0-.17-1.07,2.65,2.65,0,0,0-.45-.81,1.82,1.82,0,0,0-.71-.51,2.33,2.33,0,0,0-.93-.17,2.54,2.54,0,0,0-.88.15,2.2,2.2,0,0,0-.75.47,2.63,2.63,0,0,0-.57.8A3.39,3.39,0,0,0,260.25,109.52Z"/>
        <path d="M270.71,115.13a4.14,4.14,0,0,1-1.46-.87l1-1.25.14-.17.12.11a.77.77,0,0,0,.11.3,2.13,2.13,0,0,0,.32.35,2.46,2.46,0,0,0,.65.28,3,3,0,0,0,.77.09,2,2,0,0,0,1.3-.43,3.12,3.12,0,0,0,.89-1.16,6.76,6.76,0,0,0,.54-1.68,10.54,10.54,0,0,0,.18-2,13.53,13.53,0,0,0-.24-2.81,3.31,3.31,0,0,0-.77-1.62,1.79,1.79,0,0,0-1.33-.52,2.23,2.23,0,0,0-.9.18,2,2,0,0,0-.71.55,2.92,2.92,0,0,0-.45.88,4.15,4.15,0,0,0-.15,1.17,3,3,0,0,0,.17,1,2.3,2.3,0,0,0,.49.78,1.92,1.92,0,0,0,.7.47,2.22,2.22,0,0,0,.85.17,4.1,4.1,0,0,0,1.13-.14,2.25,2.25,0,0,0,.87-.5,3.49,3.49,0,0,0,.73-.92l.15,1.64a5.29,5.29,0,0,1-.78.72,3.73,3.73,0,0,1-1,.48,3.78,3.78,0,0,1-1.2.17,4.16,4.16,0,0,1-1.5-.27,3.49,3.49,0,0,1-2-2,4.84,4.84,0,0,1,0-3.27,4.06,4.06,0,0,1,.82-1.34,3.65,3.65,0,0,1,2.71-1.21,3.37,3.37,0,0,1,2.15.7,4.31,4.31,0,0,1,1.36,1.94,8.26,8.26,0,0,1,.47,3,14,14,0,0,1-.52,4.16,5.16,5.16,0,0,1-1.51,2.49,3.64,3.64,0,0,1-2.38.85A5.2,5.2,0,0,1,270.71,115.13Z"/>
        <path d="M283.2,115.41a4.58,4.58,0,0,1-2.13-.46,3.58,3.58,0,0,1-1.4-1.23,3.26,3.26,0,0,1-.49-1.74,3.31,3.31,0,0,1,.32-1.42,4.17,4.17,0,0,1,.88-1.22,4.74,4.74,0,0,1,1.33-.88,4.73,4.73,0,0,1-1-.78,3.45,3.45,0,0,1-.68-1,2.92,2.92,0,0,1-.24-1.17,3,3,0,0,1,1.6-2.74,3.85,3.85,0,0,1,1.91-.44,4,4,0,0,1,1.95.42,2.83,2.83,0,0,1,1.16,1.11,3.06,3.06,0,0,1,.39,1.53,2.89,2.89,0,0,1-.14.92,4,4,0,0,1-.39.84,3.25,3.25,0,0,1-.61.73,4.16,4.16,0,0,1-.81.57,4.18,4.18,0,0,1,1,.63,4.4,4.4,0,0,1,.75.81,3.6,3.6,0,0,1,.48,1,3.45,3.45,0,0,1,.16,1.06,3.26,3.26,0,0,1-.5,1.81,3.53,3.53,0,0,1-1.4,1.24A4.65,4.65,0,0,1,283.2,115.41Zm0-1.5a2.63,2.63,0,0,0,1.25-.27,1.87,1.87,0,0,0,.75-.75,2,2,0,0,0,.26-1,2.19,2.19,0,0,0-.18-.87,2.61,2.61,0,0,0-.53-.76,4.24,4.24,0,0,0-.82-.64,4.12,4.12,0,0,0-1.07-.46,3.81,3.81,0,0,0-.78.46,2.69,2.69,0,0,0-.63.63,3.33,3.33,0,0,0-.4.74,2.32,2.32,0,0,0-.14.84,2.22,2.22,0,0,0,.26,1.06,2,2,0,0,0,.79.77A2.55,2.55,0,0,0,283.24,113.91Zm.33-6a3.82,3.82,0,0,0,.64-.48,3.77,3.77,0,0,0,.49-.58,2.65,2.65,0,0,0,.33-.65,2.09,2.09,0,0,0,.12-.69,1.74,1.74,0,0,0-.21-.84,1.68,1.68,0,0,0-.64-.63,2.08,2.08,0,0,0-1-.24,1.94,1.94,0,0,0-1,.23,1.62,1.62,0,0,0-.61.61,1.77,1.77,0,0,0-.2.82,1.86,1.86,0,0,0,.16.79,2.22,2.22,0,0,0,.46.64,4.86,4.86,0,0,0,.69.54C283,107.56,283.29,107.72,283.57,107.87Z"/>
      </g>
      <g>
        <path d="M556.08,115.16V102.38h3.74a7.29,7.29,0,0,1,1.92.22,3.83,3.83,0,0,1,1.36.65,2.67,2.67,0,0,1,.79,1,3.14,3.14,0,0,1,.25,1.28,3.18,3.18,0,0,1-.21,1.13,3,3,0,0,1-.63,1,2.6,2.6,0,0,1-1,.67,3.81,3.81,0,0,1,1.72,1.28,3.18,3.18,0,0,1,.48.91,2.91,2.91,0,0,1,.18,1,3.56,3.56,0,0,1-.3,1.48,3.11,3.11,0,0,1-.89,1.15,4.23,4.23,0,0,1-1.52.74,8.14,8.14,0,0,1-2.16.26Zm1.72-7.55h1.81a4.43,4.43,0,0,0,1.66-.25,1.63,1.63,0,0,0,.87-.69,1.88,1.88,0,0,0,.26-1,2,2,0,0,0-.14-.75,1.79,1.79,0,0,0-.44-.59,2.1,2.1,0,0,0-.79-.4,4.15,4.15,0,0,0-1.19-.15h-2Zm0,6.07H560a4.13,4.13,0,0,0,1.47-.23,2,2,0,0,0,1-.71,2.2,2.2,0,0,0,.35-1.28,2.5,2.5,0,0,0-.31-1.26,2.09,2.09,0,0,0-1-.86,4.46,4.46,0,0,0-1.85-.32H557.8Z"/>
        <path d="M569.68,115.32a3.76,3.76,0,0,1-2.46-.72,2.32,2.32,0,0,1-.86-1.86,2.7,2.7,0,0,1,.36-1.37,3.13,3.13,0,0,1,1-1,5,5,0,0,1,1.56-.66,7.75,7.75,0,0,1,2-.24h.61l.68,0,.72.08.07,1.29-.68-.07c-.23,0-.46,0-.69,0h-.65a7,7,0,0,0-1.36.12,3.39,3.39,0,0,0-1,.35,1.77,1.77,0,0,0-.63.58,1.51,1.51,0,0,0-.23.82,1.29,1.29,0,0,0,.15.66,1.08,1.08,0,0,0,.39.43,1.84,1.84,0,0,0,.57.23,4,4,0,0,0,.72.07,3.47,3.47,0,0,0,1.3-.23,2.6,2.6,0,0,0,1-.7,3.25,3.25,0,0,0,.6-1.14,5.35,5.35,0,0,0,.21-1.58,5.48,5.48,0,0,0-.3-2,1.87,1.87,0,0,0-.89-1,3.34,3.34,0,0,0-1.5-.3,3.57,3.57,0,0,0-1.3.24,3.36,3.36,0,0,0-1.18.79l-.91-1.09a4.49,4.49,0,0,1,1.62-1,5.46,5.46,0,0,1,1.87-.33,6.23,6.23,0,0,1,1.68.21,3.25,3.25,0,0,1,1.33.72,3.44,3.44,0,0,1,.87,1.37,6.59,6.59,0,0,1,.31,2.16v5.12h-1.87V113.8a2.92,2.92,0,0,1-.63.75,2.81,2.81,0,0,1-.75.46,4,4,0,0,1-.84.24A4.76,4.76,0,0,1,569.68,115.32Z"/>
        <path d="M577.21,115.16v-1.4h2.73V102.91h-2.61v-1.4h4.39v12.25h2.73v1.4Z"/>
        <path d="M591.08,115.32a4.25,4.25,0,0,1-2.27-.62,4.43,4.43,0,0,1-1.57-1.72,5.86,5.86,0,0,1,0-5,4.46,4.46,0,0,1,1.57-1.73,4.4,4.4,0,0,1,4.54,0,4.46,4.46,0,0,1,1.57,1.73,5.86,5.86,0,0,1,0,5,4.43,4.43,0,0,1-1.57,1.72A4.25,4.25,0,0,1,591.08,115.32Zm0-1.43a2.08,2.08,0,0,0,1.33-.45,3,3,0,0,0,.92-1.22,4.83,4.83,0,0,0,0-3.56,2.93,2.93,0,0,0-.92-1.21,2.13,2.13,0,0,0-1.33-.44,2.16,2.16,0,0,0-1.32.44,3,3,0,0,0-.93,1.21,5,5,0,0,0,0,3.56,3,3,0,0,0,.92,1.22A2.12,2.12,0,0,0,591.08,113.89Z"/>
        <path d="M601.34,115.32a4.22,4.22,0,0,1-2.27-.62A4.36,4.36,0,0,1,597.5,113a5.86,5.86,0,0,1,0-5,4.39,4.39,0,0,1,1.57-1.73,4.39,4.39,0,0,1,4.53,0,4.31,4.31,0,0,1,1.57,1.73,5.76,5.76,0,0,1,0,5,4.28,4.28,0,0,1-1.57,1.72A4.21,4.21,0,0,1,601.34,115.32Zm0-1.43a2.1,2.1,0,0,0,1.33-.45,3,3,0,0,0,.91-1.22,4.83,4.83,0,0,0,0-3.56,2.92,2.92,0,0,0-.91-1.21,2.23,2.23,0,0,0-2.66,0,2.93,2.93,0,0,0-.92,1.21,4.28,4.28,0,0,0-.34,1.78,4.45,4.45,0,0,0,.33,1.78,2.93,2.93,0,0,0,.91,1.22A2.15,2.15,0,0,0,601.34,113.89Z"/>
        <path d="M612.76,115.16v-3.1h-5.37v-1.21l5.74-8.47h1.4v8.26h1.64v1.44h-1.64v3.08Zm-3.48-4.52h3.5v-5.32Z"/>
        <path d="M619.59,115a4.06,4.06,0,0,1-1.62-1.1l1-1.32.14-.16.13.1a1.16,1.16,0,0,0,.08.32,1.41,1.41,0,0,0,.29.4,3.27,3.27,0,0,0,.83.5,2.75,2.75,0,0,0,1.09.2,2.46,2.46,0,0,0,1.27-.3,1.91,1.91,0,0,0,.75-.84,3.05,3.05,0,0,0,0-2.42,1.69,1.69,0,0,0-.69-.76,3,3,0,0,0-1.11-.38,5.48,5.48,0,0,0-1.47,0v-1.38a5.12,5.12,0,0,0,1.58-.16,2.3,2.3,0,0,0,1-.51,1.9,1.9,0,0,0,.47-.74,2.9,2.9,0,0,0,.13-.89,2,2,0,0,0-.13-.74,1.8,1.8,0,0,0-.36-.56,1.52,1.52,0,0,0-.57-.37,1.88,1.88,0,0,0-.72-.13,3.59,3.59,0,0,0-.81.1,3.26,3.26,0,0,0-.78.31,3.11,3.11,0,0,0-.73.55l-1-1a3.93,3.93,0,0,1,1.58-1.08,5.19,5.19,0,0,1,1.75-.32,4,4,0,0,1,1.86.41,3,3,0,0,1,1.21,1.14,3.16,3.16,0,0,1,.43,1.66,3.28,3.28,0,0,1-.23,1.26,2.8,2.8,0,0,1-.69,1,3,3,0,0,1-1.09.65,3.73,3.73,0,0,1,1.24.63,3.29,3.29,0,0,1,.87,1.08,3.38,3.38,0,0,1,.31,1.52,3.81,3.81,0,0,1-.46,1.87,3.37,3.37,0,0,1-1.34,1.36,4.28,4.28,0,0,1-2.17.51A5.56,5.56,0,0,1,619.59,115Z"/>
      </g>
      <path class="cls-2" d="M191.68,95.92a12,12,0,0,0-3.79,23.35c.6.11.82-.25.82-.57s0-1.23,0-2.23c-3,.55-3.79-.73-4-1.41a4.4,4.4,0,0,0-1.23-1.69c-.42-.23-1-.78,0-.79a2.35,2.35,0,0,1,1.84,1.22,2.55,2.55,0,0,0,3.49,1,2.51,2.51,0,0,1,.77-1.6c-2.67-.3-5.45-1.33-5.45-5.92a4.68,4.68,0,0,1,1.22-3.22,4.34,4.34,0,0,1,.12-3.17s1-.32,3.3,1.22a11.41,11.41,0,0,1,6,0c2.29-1.55,3.3-1.22,3.3-1.22a4.29,4.29,0,0,1,.12,3.17,4.65,4.65,0,0,1,1.23,3.22c0,4.6-2.81,5.62-5.47,5.92a2.84,2.84,0,0,1,.81,2.22c0,1.6,0,2.89,0,3.29s.23.69.83.57a12,12,0,0,0-3.82-23.35Z"/>
      <path class="cls-2" d="M538.74,95.79A12,12,0,0,0,535,119.14c.6.11.83-.25.83-.56s0-1.23,0-2.24c-3,.56-3.79-.73-4-1.4a4.4,4.4,0,0,0-1.22-1.7c-.42-.22-1-.78,0-.79a2.38,2.38,0,0,1,1.84,1.23,2.57,2.57,0,0,0,3.49,1,2.54,2.54,0,0,1,.77-1.61c-2.67-.3-5.46-1.33-5.46-5.91a4.7,4.7,0,0,1,1.23-3.23,4.28,4.28,0,0,1,.12-3.17s1-.32,3.3,1.23a11.14,11.14,0,0,1,6,0c2.29-1.56,3.3-1.23,3.3-1.23a4.28,4.28,0,0,1,.12,3.17,4.67,4.67,0,0,1,1.22,3.23c0,4.59-2.8,5.61-5.46,5.91a2.88,2.88,0,0,1,.81,2.22c0,1.6,0,2.89,0,3.3s.23.68.82.56a12,12,0,0,0-3.82-23.35Z"/>
      <g>
        <rect x="20.02" y="63" width="150.24" height="141.32"/>
        <rect class="cls-1" x="26.85" y="69.57" width="136.58" height="128.39"/>
        <g>
          <path class="cls-3" d="M45.1,177.22a145,145,0,0,1,.39-20.52c.34-3.74.8-7.47,1.21-11.2.45-2.24.9-4.47,1.34-6.71a3.59,3.59,0,0,1,2.88-3c2.28-.55,4.56-1.09,6.87-1.54,1.77-.35,2,.34,1.85,1.75-.22,3.06-.36,6.11-.54,9.17h0c.06,10.1.31,20.2.81,30.3.36,7.18.41,14.37.6,21.56a10.43,10.43,0,0,0,.13,1.24h7.1c-.4-13.83-.87-27.65-1.27-41.47-.33-11.63,0-23.23,2.18-34.7.83-4.38,1.49-8.84,3.34-13a32.73,32.73,0,0,1,3.19-8.36,13.59,13.59,0,0,1,8.87-7.14,52.14,52.14,0,0,1,25-.92c8.23,1.64,15.15,5.34,20.36,12,.34.43,1,.87.68,1.45s-1,.26-1.56.31a6.42,6.42,0,0,1-1.07,0c-8-.39-16-.8-23.86,1-5.38,1.22-9.78,3.9-12.59,8.79-3.43,6-3.91,12.42-3.23,19.06a18.47,18.47,0,0,0,6.66,12.54c6.8,5.77,15,7.77,23.57,8.44a54.53,54.53,0,0,0,21.88-3.07c2.47-.83,2.5-.81,2.48,1.86,0,3.57-.07,7.14-.11,10.71h0c.13,10.86.52,21.73-1.25,32.52h7.33a142.56,142.56,0,0,0,1.3-20.76c0-9.14,0-18.28,0-27.42a3.34,3.34,0,0,1,.87-2.73c6.91-6.6,7.24-14.65,4.84-23.16-1.94-6.88-6.45-11.61-13-14.46a4.63,4.63,0,0,1-2.29-2.12C134,96.54,125.21,89,112.73,86a71.46,71.46,0,0,0-15.46-1.83,82.66,82.66,0,0,0-12.89,1.74c-8.49,1.78-14,6.81-17.22,14.72a99.69,99.69,0,0,0-6.23,24.15c-.21,1.47-.78,1.84-2.14,2a50.83,50.83,0,0,0-10,2.07,10.48,10.48,0,0,0-7.57,8.15,102.4,102.4,0,0,0-2.55,15.15,185,185,0,0,0-.91,22.21c.21,8.18,1.12,16.23,3.9,23.94h7.88C46.42,191.57,45.46,184.43,45.1,177.22ZM138.72,116c5.15,2.22,9,5.61,9.93,11.53h0c1.94,8.14-.51,14.18-8.07,17.55a47.46,47.46,0,0,1-11.24,3.14,42.68,42.68,0,0,1-25.88-3.13c-4.33-2-7.77-5.09-8.49-10.2a25.65,25.65,0,0,1,1.37-13.45,10.5,10.5,0,0,1,9.54-6.76,8.9,8.9,0,0,1,3.48-.88,125,125,0,0,1,16.65-.3A34.46,34.46,0,0,1,138.72,116Z"/>
          <path class="cls-4" d="M140.67,194.85c1.28-9,.75-18.07.93-27.12a59.38,59.38,0,0,1-4.45,11.46c-3.52,6.47-8.62,10.52-16.16,11.4-5.27.61-10.54.2-15.8.37a33.89,33.89,0,0,1-15.14-2.89,13.39,13.39,0,0,1-6.61-6.31A90.09,90.09,0,0,1,78,169.06a118,118,0,0,1-7-49.83c.2-2.49.47-5,.73-7.45a66.84,66.84,0,0,0-1.65,7,145.08,145.08,0,0,0-2.89,27.8c0,5.21.43,10.42.34,15.6-.19,11.92,1.12,23.79,1,35.7v.29h71.7a18.9,18.9,0,0,0,.28-1.88C140.54,195.84,140.6,195.34,140.67,194.85Z"/>
          <path class="cls-4" d="M142.21,165.7c-.2.68-.4,1.35-.61,2-.18,9.05.35,18.11-.93,27.12-.07.49-.13,1-.18,1.49a18.9,18.9,0,0,1-.28,1.88H141C142.73,187.43,142.34,176.56,142.21,165.7Z"/>
          <path class="cls-4" d="M67.52,162.23c.09-5.18-.3-10.39-.34-15.6a145.08,145.08,0,0,1,2.89-27.8,66.84,66.84,0,0,1,1.65-7l.27-2.7c-1.85,4.13-2.51,8.59-3.34,13-2.15,11.47-2.51,23.07-2.18,34.7.4,13.82.87,27.64,1.27,41.47h.77v-.29C68.64,186,67.33,174.15,67.52,162.23Z"/>
          <path class="cls-4" d="M58.65,163c-.35-5.84-.26-11.67-.14-17.51,0-.11,0-.21,0-.32-3.94.6-7.9,1.17-11.49,3.16l-.1-.25a16.61,16.61,0,0,1,0,2.34A140.76,140.76,0,0,0,46.23,182c.59,5.57,1.49,11.12,4.11,16.18H60c-.41-6.89-.69-13.78-.73-20.68C59.19,172.7,58.93,167.86,58.65,163Z"/>
          <path class="cls-4" d="M46.91,150.46a16.61,16.61,0,0,0,0-2.34c-.35-1,0-1.82-.21-2.62-.41,3.73-.87,7.46-1.21,11.2a145,145,0,0,0-.39,20.52c.36,7.21,1.32,14.35,4.42,21h.82c-2.62-5.06-3.52-10.61-4.11-16.18A140.76,140.76,0,0,1,46.91,150.46Z"/>
          <path class="cls-4" d="M59.91,175.42c-.5-10.1-.75-20.2-.81-30.3h0l-.6.09c0,.11,0,.21,0,.32-.12,5.84-.21,11.67.14,17.51.28,4.82.54,9.66.57,14.5,0,6.9.32,13.79.73,20.68h.69a10.43,10.43,0,0,1-.13-1.24C60.32,189.79,60.27,182.6,59.91,175.42Z"/>
          <path class="cls-5" d="M72.37,112.31A110.28,110.28,0,0,0,72,140.89a125.51,125.51,0,0,0,10.57,37.74c1.53,3.34,3.3,6.54,6.74,8.32a29.2,29.2,0,0,0,12.52,3.27c5.27.2,10.55.14,15.83,0,8.56-.18,15-3.85,19-11.63a57.78,57.78,0,0,0,4.17-10.75c.19-.66.22-1.47.81-1.91-.08-3.42,0-6.84,0-10.25,0-2.17-.24-2.37-2.17-1.72a63.62,63.62,0,0,1-10.21,2.3,48.46,48.46,0,0,1-28.44-3.65c-7.85-3.56-13-9.34-13.9-18.31A34.43,34.43,0,0,1,88.49,120a18.74,18.74,0,0,1,12.67-12.63,34.46,34.46,0,0,1,6.68-1.46,111.17,111.17,0,0,1,19.65-.16c.47,0,1,.23,1.37-.55-3-3.31-6-6.67-10.16-8.56-11.4-5.15-23.14-5.68-35.09-2.2A12.38,12.38,0,0,0,77.09,99c-2.36,3.15-3.53,6.82-4.66,10.51l0,.11A4.47,4.47,0,0,1,72.37,112.31Z"/>
          <path class="cls-5" d="M72.43,109.54c1.13-3.69,2.3-7.36,4.66-10.51a12.38,12.38,0,0,1,6.52-4.62c12-3.48,23.69-3,35.09,2.2,4.19,1.89,7.2,5.25,10.16,8.56-.36.78-.9.58-1.37.55a111.17,111.17,0,0,0-19.65.16,34.46,34.46,0,0,0-6.68,1.46A18.74,18.74,0,0,0,88.49,120a34.43,34.43,0,0,0-1.6,14.36c.86,9,6,14.75,13.9,18.31a48.46,48.46,0,0,0,28.44,3.65,63.62,63.62,0,0,0,10.21-2.3c1.93-.65,2.14-.45,2.17,1.72,0,3.41-.05,6.83,0,10.25a1.5,1.5,0,0,1,.57-.26h0c0-3.57.09-7.14.11-10.71,0-2.67,0-2.69-2.48-1.86A54.53,54.53,0,0,1,118,156.2c-8.59-.67-16.77-2.67-23.57-8.44a18.47,18.47,0,0,1-6.66-12.54c-.68-6.64-.2-13.11,3.23-19.06,2.81-4.89,7.21-7.57,12.59-8.79,7.89-1.79,15.88-1.38,23.86-1a6.42,6.42,0,0,0,1.07,0c.54,0,1.27.3,1.56-.31s-.34-1-.68-1.45C124.15,98,117.23,94.3,109,92.66a52.14,52.14,0,0,0-25,.92,13.59,13.59,0,0,0-8.87,7.14A32.73,32.73,0,0,0,72,109.08a2.09,2.09,0,0,1,.41.57Z"/>
          <path class="cls-5" d="M141.64,166c-.59.44-.62,1.25-.81,1.91a57.78,57.78,0,0,1-4.17,10.75c-3.95,7.78-10.43,11.45-19,11.63-5.28.11-10.56.17-15.83,0A29.2,29.2,0,0,1,89.32,187c-3.44-1.78-5.21-5-6.74-8.32A125.51,125.51,0,0,1,72,140.89a110.28,110.28,0,0,1,.36-28.58,4.47,4.47,0,0,0,0-2.66c-.25.71-.47,1.42-.68,2.13-.26,2.48-.53,5-.73,7.45a124.5,124.5,0,0,0,0,17.49,128.74,128.74,0,0,0,7,32.34,90.09,90.09,0,0,0,5.45,12.7,13.39,13.39,0,0,0,6.61,6.31A33.89,33.89,0,0,0,105.19,191c5.26-.17,10.53.24,15.8-.37,7.54-.88,12.64-4.93,16.16-11.4a59.38,59.38,0,0,0,4.45-11.46c0-.58,0-1.17.05-1.75Z"/>
          <path class="cls-5" d="M72.4,109.65a2.09,2.09,0,0,0-.41-.57l-.27,2.7C71.93,111.07,72.15,110.36,72.4,109.65Z"/>
          <path class="cls-5" d="M141.64,166v0c0,.58,0,1.17-.05,1.75.21-.68.41-1.35.61-2h0A1.5,1.5,0,0,0,141.64,166Z"/>
          <path class="cls-6" d="M141,134.49c-3.39.46-6.8.74-10.21,1-5.83.44-11.67,1.06-17.52.22-2.63-.39-5.29-.84-7.21-2.86-5.27-5.56-5.3-12.58-.16-18.14a10.5,10.5,0,0,0-9.54,6.76A25.65,25.65,0,0,0,95,134.92c.72,5.11,4.16,8.21,8.49,10.2a42.68,42.68,0,0,0,25.88,3.13,47.46,47.46,0,0,0,11.24-3.14c7.56-3.37,10-9.41,8.07-17.55h0C147.39,132.83,146.46,133.74,141,134.49Z"/>
          <path class="cls-7" d="M109.36,113.83a8.9,8.9,0,0,0-3.48.88,2.09,2.09,0,0,1-.94,2c-4.91,4.39-1.13,16.88,6.17,17.87a62.31,62.31,0,0,0,7.22.82,138.67,138.67,0,0,0,16.42-1,65,65,0,0,0,7.23-.71c2.84-.61,5.15-1.73,5.69-5,.09-.52.2-1.17,1-1.18h0c-.91-5.92-4.78-9.31-9.93-11.53a34.46,34.46,0,0,0-12.71-2.5A125,125,0,0,0,109.36,113.83Zm30,6.91A4.09,4.09,0,0,1,141,124.9c-.29,1.51-1.63,1.85-2.88,2.18-4,1.08-8.08.22-12.1-.13-3-.26-5.77-1.55-8.54-2.67a3.69,3.69,0,0,1-2.53-4c.24-1.83,1.42-2.79,3.25-3.18a38.22,38.22,0,0,1,5.11-.27,32.6,32.6,0,0,1,7.45.51A18,18,0,0,1,139.33,120.74Z"/>
          <path class="cls-7" d="M147.67,128.74c-.54,3.23-2.85,4.35-5.69,5a65,65,0,0,1-7.23.71,138.67,138.67,0,0,1-16.42,1,62.31,62.31,0,0,1-7.22-.82c-7.3-1-11.08-13.48-6.17-17.87a2.09,2.09,0,0,0,.94-2c-5.14,5.56-5.11,12.58.16,18.14,1.92,2,4.58,2.47,7.21,2.86,5.85.84,11.69.22,17.52-.22,3.41-.26,6.82-.54,10.21-1,5.48-.75,6.41-1.66,7.67-6.93C147.87,127.57,147.76,128.22,147.67,128.74Z"/>
          <path class="cls-5" d="M50.16,146.34c2.72-.87,5.44-1.79,8.34-1.32a49.32,49.32,0,0,1,.28-7.59c.33-2.33-.05-2.62-2.43-2.24-1.69.27-3.32.77-5,1.2a3.52,3.52,0,0,0-2.67,2.73c-.62,2.2-.87,4.48-1.47,6.68,0,.09-.06.18-.09.27.13.43.11,1,.46,1.32A19.66,19.66,0,0,1,50.16,146.34Z"/>
          <path class="cls-5" d="M47.14,146.07c0-.09,0-.18.09-.27.6-2.2.85-4.48,1.47-6.68a3.52,3.52,0,0,1,2.67-2.73c1.66-.43,3.29-.93,5-1.2,2.38-.38,2.76-.09,2.43,2.24A49.32,49.32,0,0,0,58.5,145c.2,0,.4,0,.6.1h0c.18-3.06.32-6.11.54-9.17.1-1.41-.08-2.1-1.85-1.75-2.31.45-4.59,1-6.87,1.54a3.59,3.59,0,0,0-2.88,3c-.44,2.24-.89,4.47-1.34,6.71A.94.94,0,0,1,47.14,146.07Z"/>
          <path class="cls-5" d="M50.16,146.34a19.66,19.66,0,0,0-2.56,1c-.35-.37-.33-.89-.46-1.32a6.5,6.5,0,0,0-.23,2.05l.1.25c3.59-2,7.55-2.56,11.49-3.16V145C55.6,144.55,52.88,145.47,50.16,146.34Z"/>
          <path class="cls-5" d="M58.5,145.21l.6-.09c-.2-.05-.4-.07-.6-.1Z"/>
          <path class="cls-5" d="M46.91,148.12a6.5,6.5,0,0,1,.23-2.05.94.94,0,0,0-.44-.57C46.89,146.3,46.56,147.16,46.91,148.12Z"/>
          <path class="cls-8" d="M123.26,116.79a38.22,38.22,0,0,0-5.11.27c-1.83.39-3,1.35-3.25,3.18a3.69,3.69,0,0,0,2.53,4c2.77,1.12,5.54,2.41,8.54,2.67,4,.35,8.05,1.21,12.1.13,1.25-.33,2.59-.67,2.88-2.18a4.09,4.09,0,0,0-1.62-4.16,18,18,0,0,0-8.62-3.44A32.6,32.6,0,0,0,123.26,116.79Z"/>
        </g>
      </g>
      <g>
        <rect x="365.62" y="62.74" width="150.55" height="141.58"/>
        <rect class="cls-1" x="372.46" y="69.59" width="136.86" height="128.65"/>
        <g>
          <path class="cls-3" d="M390.75,177.2a145.66,145.66,0,0,1,.38-20.57c.35-3.74.81-7.48,1.22-11.22l1.35-6.72a3.58,3.58,0,0,1,2.88-3.06c2.29-.55,4.57-1.09,6.88-1.54,1.77-.35,2,.34,1.85,1.75-.21,3.06-.36,6.13-.53,9.19h0c.06,10.13.3,20.24.81,30.36.35,7.2.41,14.4.6,21.61a10.65,10.65,0,0,0,.13,1.24h7.12c-.41-13.86-.88-27.71-1.28-41.56-.33-11.65,0-23.28,2.19-34.77.82-4.39,1.49-8.85,3.34-13a33.1,33.1,0,0,1,3.19-8.38,13.61,13.61,0,0,1,8.89-7.15,52.15,52.15,0,0,1,25-.92c8.24,1.64,15.17,5.34,20.4,12,.34.43,1,.87.68,1.45s-1,.26-1.56.32a7.67,7.67,0,0,1-1.07-.05c-8-.39-16-.8-23.91,1-5.39,1.23-9.8,3.91-12.63,8.82-3.43,6-3.91,12.44-3.22,19.09a18.42,18.42,0,0,0,6.67,12.56c6.81,5.78,15,7.79,23.61,8.47a54.78,54.78,0,0,0,21.93-3.08c2.48-.83,2.5-.81,2.48,1.86,0,3.58-.07,7.16-.11,10.73h0c.13,10.89.53,21.78-1.24,32.59h7.33a143.11,143.11,0,0,0,1.31-20.8c0-9.16,0-18.32,0-27.48a3.33,3.33,0,0,1,.87-2.73c6.92-6.62,7.26-14.69,4.85-23.22-1.95-6.89-6.46-11.63-13-14.48a4.63,4.63,0,0,1-2.3-2.13C479.79,96.35,471,88.77,458.51,85.74A71.74,71.74,0,0,0,443,83.9a84,84,0,0,0-12.91,1.75c-8.51,1.79-14,6.82-17.26,14.75a100.1,100.1,0,0,0-6.24,24.2c-.21,1.47-.78,1.84-2.14,2a50.9,50.9,0,0,0-10,2.08,10.5,10.5,0,0,0-7.6,8.16A104.35,104.35,0,0,0,384.28,152a185.87,185.87,0,0,0-.91,22.26c.21,8.2,1.12,16.27,3.9,24h7.9C392.07,191.58,391.11,184.42,390.75,177.2Zm93.8-61.32c5.17,2.22,9.05,5.62,10,11.55h0c1.94,8.16-.51,14.21-8.09,17.59a47.45,47.45,0,0,1-11.27,3.15A42.81,42.81,0,0,1,449.23,145c-4.34-2-7.79-5.1-8.51-10.22a25.66,25.66,0,0,1,1.37-13.48,10.52,10.52,0,0,1,9.56-6.77,8.92,8.92,0,0,1,3.49-.89,123.82,123.82,0,0,1,16.68-.29A34.32,34.32,0,0,1,484.55,115.88Z"/>
          <path class="cls-9" d="M486.52,194.86c1.27-9,.75-18.11.92-27.17A58.7,58.7,0,0,1,483,179.17c-3.52,6.48-8.64,10.55-16.19,11.42-5.29.62-10.56.2-15.83.37a34,34,0,0,1-15.17-2.89,13.44,13.44,0,0,1-6.62-6.32A91.18,91.18,0,0,1,423.7,169a124,124,0,0,1-4.74-16.8,122.46,122.46,0,0,1-2.29-15.6,123.43,123.43,0,0,1,0-17.52c.2-2.49.47-5,.73-7.47a67.6,67.6,0,0,0-1.65,7.06,144.93,144.93,0,0,0-2.9,27.87c0,5.21.43,10.43.35,15.63-.2,11.94,1.11,23.83,1,35.77v.29h71.84a19.1,19.1,0,0,0,.28-1.89C486.38,195.85,486.44,195.36,486.52,194.86Z"/>
          <path class="cls-9" d="M488.05,165.65c-.2.68-.4,1.36-.61,2-.17,9.06.35,18.15-.92,27.17-.08.5-.14,1-.19,1.49a19.1,19.1,0,0,1-.28,1.89h.76C488.58,187.43,488.18,176.54,488.05,165.65Z"/>
          <path class="cls-9" d="M413.22,162.18c.08-5.2-.31-10.42-.35-15.63a144.93,144.93,0,0,1,2.9-27.87,67.6,67.6,0,0,1,1.65-7.06l.27-2.7c-1.85,4.14-2.52,8.6-3.34,13-2.16,11.49-2.52,23.12-2.19,34.77.4,13.85.87,27.7,1.28,41.56h.77V198C414.33,186,413,174.12,413.22,162.18Z"/>
          <path class="cls-9" d="M404.32,163c-.35-5.85-.25-11.69-.14-17.54v-.32c-4,.6-7.92,1.17-11.52,3.17a2.77,2.77,0,0,1-.1-.26,16.76,16.76,0,0,1,0,2.35,140.71,140.71,0,0,0-.68,31.64c.59,5.58,1.49,11.15,4.11,16.22h9.63c-.4-6.9-.68-13.81-.72-20.72C404.87,172.67,404.6,167.82,404.32,163Z"/>
          <path class="cls-9" d="M392.56,150.38a16.76,16.76,0,0,0,0-2.35c-.35-1,0-1.81-.21-2.62-.41,3.74-.87,7.48-1.22,11.22a145.66,145.66,0,0,0-.38,20.57c.36,7.22,1.32,14.38,4.42,21H396c-2.62-5.07-3.52-10.64-4.11-16.22A140.71,140.71,0,0,1,392.56,150.38Z"/>
          <path class="cls-9" d="M405.59,175.39c-.51-10.12-.75-20.23-.81-30.36h0l-.59.09v.32c-.11,5.85-.21,11.69.14,17.54.28,4.84.55,9.69.58,14.54,0,6.91.32,13.82.72,20.72h.7a10.65,10.65,0,0,1-.13-1.24C406,189.79,405.94,182.59,405.59,175.39Z"/>
          <path class="cls-10" d="M418.07,112.16a110.23,110.23,0,0,0-.36,28.63,126,126,0,0,0,10.59,37.82c1.53,3.35,3.31,6.55,6.75,8.34a29.37,29.37,0,0,0,12.55,3.27c5.28.21,10.58.14,15.86,0,8.58-.18,15.07-3.86,19-11.65a59.44,59.44,0,0,0,4.18-10.77c.18-.67.21-1.48.81-1.92-.09-3.42,0-6.85,0-10.27,0-2.17-.23-2.37-2.17-1.72A64,64,0,0,1,475,156.23a48.62,48.62,0,0,1-28.49-3.66c-7.87-3.57-13.07-9.37-13.93-18.35a34.55,34.55,0,0,1,1.6-14.39,18.81,18.81,0,0,1,12.7-12.66,34.72,34.72,0,0,1,6.69-1.46,111.63,111.63,0,0,1,19.69-.16c.47,0,1,.23,1.37-.55-3-3.32-6-6.69-10.17-8.58-11.43-5.16-23.19-5.69-35.16-2.21a12.34,12.34,0,0,0-6.54,4.64c-2.37,3.15-3.53,6.83-4.67,10.52l0,.12A4.51,4.51,0,0,1,418.07,112.16Z"/>
          <path class="cls-10" d="M418.13,109.37c1.14-3.69,2.3-7.37,4.67-10.52a12.34,12.34,0,0,1,6.54-4.64c12-3.48,23.73-2.95,35.16,2.21,4.19,1.89,7.21,5.26,10.17,8.58-.35.78-.9.58-1.37.55a111.63,111.63,0,0,0-19.69.16,34.72,34.72,0,0,0-6.69,1.46,18.81,18.81,0,0,0-12.7,12.66,34.55,34.55,0,0,0-1.6,14.39c.86,9,6.06,14.78,13.93,18.35A48.62,48.62,0,0,0,475,156.23a64,64,0,0,0,10.24-2.31c1.94-.65,2.15-.45,2.17,1.72.05,3.42-.05,6.85,0,10.27a1.62,1.62,0,0,1,.56-.26h0c0-3.57.09-7.15.11-10.73,0-2.67,0-2.69-2.48-1.86a54.78,54.78,0,0,1-21.93,3.08c-8.6-.68-16.8-2.69-23.61-8.47a18.42,18.42,0,0,1-6.67-12.56c-.69-6.65-.21-13.14,3.22-19.09,2.83-4.91,7.24-7.59,12.63-8.82,7.9-1.79,15.91-1.38,23.91-1a7.67,7.67,0,0,0,1.07.05c.54-.06,1.27.3,1.56-.32s-.34-1-.68-1.45c-5.23-6.68-12.16-10.38-20.4-12a52.15,52.15,0,0,0-25,.92,13.61,13.61,0,0,0-8.89,7.15,33.1,33.1,0,0,0-3.19,8.38,2,2,0,0,1,.41.57Z"/>
          <path class="cls-10" d="M487.49,165.91c-.6.44-.63,1.25-.81,1.92a59.44,59.44,0,0,1-4.18,10.77c-4,7.79-10.46,11.47-19,11.65-5.28.11-10.58.18-15.86,0A29.37,29.37,0,0,1,435.05,187c-3.44-1.79-5.22-5-6.75-8.34a126,126,0,0,1-10.59-37.82,110.23,110.23,0,0,1,.36-28.63,4.51,4.51,0,0,0,0-2.67c-.24.71-.47,1.42-.68,2.13-.26,2.49-.53,5-.73,7.47a123.43,123.43,0,0,0,0,17.52,122.46,122.46,0,0,0,2.29,15.6A124,124,0,0,0,423.7,169a91.18,91.18,0,0,0,5.47,12.74,13.44,13.44,0,0,0,6.62,6.32A34,34,0,0,0,451,191c5.27-.17,10.54.25,15.83-.37,7.55-.87,12.67-4.94,16.19-11.42a58.7,58.7,0,0,0,4.46-11.48c0-.59,0-1.17.05-1.76Z"/>
          <path class="cls-10" d="M418.1,109.49a2,2,0,0,0-.41-.57l-.27,2.7C417.63,110.91,417.86,110.2,418.1,109.49Z"/>
          <path class="cls-10" d="M487.49,165.91v0c0,.59,0,1.17-.05,1.76.21-.68.41-1.36.61-2h0A1.62,1.62,0,0,0,487.49,165.91Z"/>
          <path class="cls-6" d="M486.82,134.38c-3.39.46-6.82.74-10.23,1-5.85.44-11.69,1.06-17.55.22-2.64-.39-5.3-.84-7.23-2.87-5.29-5.57-5.31-12.6-.16-18.17a10.52,10.52,0,0,0-9.56,6.77,25.66,25.66,0,0,0-1.37,13.48c.72,5.12,4.17,8.22,8.51,10.22a42.81,42.81,0,0,0,25.92,3.14A47.45,47.45,0,0,0,486.42,145c7.58-3.38,10-9.43,8.09-17.59h0C493.24,132.72,492.32,133.63,486.82,134.38Z"/>
          <path class="cls-7" d="M455.14,113.67a8.92,8.92,0,0,0-3.49.89,2.09,2.09,0,0,1-.94,2c-4.92,4.4-1.13,16.92,6.18,17.91a62.73,62.73,0,0,0,7.23.82,139.21,139.21,0,0,0,16.46-1,62.94,62.94,0,0,0,7.24-.72c2.85-.61,5.16-1.72,5.71-5,.09-.52.19-1.17,1-1.19h0c-.91-5.93-4.79-9.33-10-11.55a34.32,34.32,0,0,0-12.73-2.5A123.82,123.82,0,0,0,455.14,113.67Zm30,6.93a4.1,4.1,0,0,1,1.62,4.17c-.29,1.51-1.63,1.85-2.89,2.19-4,1.08-8.09.21-12.12-.13-3-.26-5.78-1.56-8.55-2.68a3.69,3.69,0,0,1-2.54-4.05c.24-1.83,1.42-2.79,3.26-3.18a36.7,36.7,0,0,1,5.12-.28,32.73,32.73,0,0,1,7.46.52A18,18,0,0,1,485.17,120.6Z"/>
          <path class="cls-7" d="M493.53,128.62c-.55,3.24-2.86,4.35-5.71,5a62.94,62.94,0,0,1-7.24.72,139.21,139.21,0,0,1-16.46,1,62.73,62.73,0,0,1-7.23-.82c-7.31-1-11.1-13.51-6.18-17.91a2.09,2.09,0,0,0,.94-2c-5.15,5.57-5.13,12.6.16,18.17,1.93,2,4.59,2.48,7.23,2.87,5.86.84,11.7.22,17.55-.22,3.41-.26,6.84-.54,10.23-1,5.5-.75,6.42-1.66,7.69-6.95C493.72,127.45,493.62,128.1,493.53,128.62Z"/>
          <path class="cls-10" d="M395.81,146.25c2.73-.87,5.45-1.79,8.36-1.32a49.62,49.62,0,0,1,.28-7.61c.34-2.34,0-2.62-2.43-2.24a51,51,0,0,0-5,1.21,3.52,3.52,0,0,0-2.68,2.73c-.61,2.21-.87,4.48-1.47,6.69a2.29,2.29,0,0,0-.09.28,3,3,0,0,0,.46,1.32A19.71,19.71,0,0,1,395.81,146.25Z"/>
          <path class="cls-10" d="M392.79,146a2.29,2.29,0,0,1,.09-.28c.6-2.21.86-4.48,1.47-6.69a3.52,3.52,0,0,1,2.68-2.73,51,51,0,0,1,5-1.21c2.39-.38,2.77-.1,2.43,2.24a49.62,49.62,0,0,0-.28,7.61c.2,0,.4,0,.6.1h0c.17-3.06.32-6.13.53-9.19.1-1.41-.08-2.1-1.85-1.75-2.31.45-4.59,1-6.88,1.54a3.58,3.58,0,0,0-2.88,3.06l-1.35,6.72A.93.93,0,0,1,392.79,146Z"/>
          <path class="cls-10" d="M395.81,146.25a19.71,19.71,0,0,0-2.56,1.06,3,3,0,0,1-.46-1.32,6.4,6.4,0,0,0-.23,2,2.77,2.77,0,0,0,.1.26c3.6-2,7.56-2.57,11.52-3.17,0-.06,0-.13,0-.19C401.26,144.46,398.54,145.38,395.81,146.25Z"/>
          <path class="cls-10" d="M404.18,145.12l.59-.09c-.2-.05-.4-.07-.6-.1C404.17,145,404.18,145.06,404.18,145.12Z"/>
          <path class="cls-10" d="M392.56,148a6.4,6.4,0,0,1,.23-2,.93.93,0,0,0-.44-.58C392.54,146.22,392.21,147.07,392.56,148Z"/>
          <path class="cls-8" d="M469.07,116.64a36.7,36.7,0,0,0-5.12.28c-1.84.39-3,1.35-3.26,3.18a3.69,3.69,0,0,0,2.54,4.05c2.77,1.12,5.54,2.42,8.55,2.68,4,.34,8.07,1.21,12.12.13,1.26-.34,2.6-.68,2.89-2.19a4.1,4.1,0,0,0-1.62-4.17,18,18,0,0,0-8.64-3.44A32.73,32.73,0,0,0,469.07,116.64Z"/>
        </g>
      </g>
      <g>
        <rect x="720.06" y="63.24" width="149.92" height="140.8"/>
        <rect class="cls-1" x="726.88" y="70.06" width="136.29" height="128.11"/>
        <g>
          <path class="cls-3" d="M745.09,177.22a145.89,145.89,0,0,1,.38-20.48c.35-3.73.81-7.45,1.22-11.17q.67-3.34,1.34-6.69a3.57,3.57,0,0,1,2.87-3c2.28-.55,4.55-1.08,6.85-1.54,1.76-.34,1.94.34,1.84,1.75-.21,3.05-.35,6.1-.53,9.15h0c.06,10.08.31,20.16.81,30.23.36,7.17.41,14.35.6,21.52a10.26,10.26,0,0,0,.13,1.23h7.09c-.41-13.79-.88-27.58-1.27-41.38-.33-11.6,0-23.18,2.17-34.62.82-4.37,1.49-8.82,3.34-13a32.54,32.54,0,0,1,3.17-8.34A13.55,13.55,0,0,1,784,93.76a52.19,52.19,0,0,1,24.9-.92c8.21,1.64,15.11,5.33,20.31,12,.34.43,1,.86.68,1.44s-1,.26-1.56.32a7.67,7.67,0,0,1-1.06,0c-8-.39-15.94-.8-23.81,1-5.37,1.22-9.76,3.89-12.57,8.77-3.42,5.94-3.9,12.39-3.22,19a18.43,18.43,0,0,0,6.65,12.51c6.78,5.76,15,7.75,23.51,8.43a54.51,54.51,0,0,0,21.84-3.07c2.47-.83,2.49-.81,2.47,1.86,0,3.56-.07,7.12-.11,10.68h0c.13,10.83.52,21.68-1.24,32.44h7.31a141.88,141.88,0,0,0,1.3-20.71c0-9.12,0-18.24,0-27.36a3.31,3.31,0,0,1,.87-2.72c6.89-6.59,7.22-14.63,4.83-23.12-1.94-6.86-6.44-11.59-12.93-14.43a4.61,4.61,0,0,1-2.29-2.11c-6-11-14.78-18.56-27.24-21.57a71.11,71.11,0,0,0-15.42-1.84,84.57,84.57,0,0,0-12.86,1.74c-8.47,1.78-13.95,6.8-17.19,14.7a100,100,0,0,0-6.22,24.09c-.2,1.47-.77,1.84-2.12,2a50.33,50.33,0,0,0-10,2.06,10.49,10.49,0,0,0-7.57,8.13,105.13,105.13,0,0,0-2.54,15.12,184.37,184.37,0,0,0-.9,22.17c.21,8.16,1.11,16.2,3.88,23.88h7.87C746.41,191.54,745.45,184.42,745.09,177.22Zm93.42-61.06c5.14,2.21,9,5.6,9.91,11.5h0c1.94,8.13-.51,14.15-8.06,17.52a47.07,47.07,0,0,1-11.21,3.13,42.56,42.56,0,0,1-25.82-3.12c-4.32-2-7.76-5.08-8.47-10.18a25.54,25.54,0,0,1,1.36-13.42,10.45,10.45,0,0,1,9.52-6.74,8.86,8.86,0,0,1,3.47-.89,124.59,124.59,0,0,1,16.62-.29A34.3,34.3,0,0,1,838.51,116.16Z"/>
          <path class="cls-11" d="M840.46,194.81c1.28-9,.75-18,.93-27.06A59.81,59.81,0,0,1,837,179.19c-3.52,6.45-8.61,10.5-16.13,11.37-5.26.61-10.51.2-15.77.37A33.75,33.75,0,0,1,790,188a13.33,13.33,0,0,1-6.6-6.29,89.3,89.3,0,0,1-5.44-12.68,124.44,124.44,0,0,1-4.72-16.73,121.62,121.62,0,0,1-2.28-15.53,122.44,122.44,0,0,1,0-17.45c.2-2.49.46-5,.72-7.44a67,67,0,0,0-1.64,7,145.37,145.37,0,0,0-2.89,27.75c0,5.19.43,10.39.35,15.56-.2,11.9,1.11,23.74,1,35.63a2.53,2.53,0,0,0,0,.28H840a15.87,15.87,0,0,0,.28-1.87C840.33,195.8,840.39,195.31,840.46,194.81Z"/>
          <path class="cls-11" d="M842,165.73l-.6,2c-.18,9,.35,18.08-.93,27.06-.07.5-.13,1-.19,1.49a15.87,15.87,0,0,1-.28,1.87h.76C842.51,187.41,842.12,176.56,842,165.73Z"/>
          <path class="cls-11" d="M767.47,162.26c.08-5.17-.3-10.37-.35-15.56A145.37,145.37,0,0,1,770,119a67,67,0,0,1,1.64-7c.09-.9.19-1.8.28-2.7-1.85,4.13-2.52,8.58-3.34,13-2.14,11.44-2.5,23-2.17,34.62.39,13.8.86,27.59,1.27,41.38h.77a2.53,2.53,0,0,1,0-.28C768.58,186,767.27,174.16,767.47,162.26Z"/>
          <path class="cls-12" d="M758.61,163.07c-.35-5.83-.26-11.65-.14-17.47v-.32c-3.94.59-7.89,1.17-11.47,3.15a2.6,2.6,0,0,1-.1-.25,16.61,16.61,0,0,1,0,2.34,140.72,140.72,0,0,0-.67,31.51c.58,5.55,1.49,11.1,4.1,16.14h9.59c-.41-6.87-.69-13.74-.73-20.63C759.15,172.71,758.89,167.88,758.61,163.07Z"/>
          <path class="cls-12" d="M746.89,150.52a16.61,16.61,0,0,0,0-2.34c-.35-1,0-1.81-.21-2.61-.41,3.72-.87,7.44-1.22,11.17a145.89,145.89,0,0,0-.38,20.48c.36,7.2,1.32,14.32,4.41,20.95h.82c-2.61-5-3.52-10.59-4.1-16.14A140.72,140.72,0,0,1,746.89,150.52Z"/>
          <path class="cls-12" d="M759.87,175.42c-.5-10.07-.75-20.15-.81-30.23h0l-.59.09v.32c-.12,5.82-.21,11.64.14,17.47.28,4.81.54,9.64.57,14.47,0,6.89.32,13.76.73,20.63h.69a10.26,10.26,0,0,1-.13-1.23C760.28,189.77,760.23,182.59,759.87,175.42Z"/>
          <path class="cls-13" d="M772.3,112.45A109.31,109.31,0,0,0,772,141a125,125,0,0,0,10.54,37.67c1.52,3.33,3.29,6.53,6.72,8.3a29.29,29.29,0,0,0,12.5,3.26c5.26.21,10.53.14,15.8,0,8.54-.18,15-3.84,19-11.6a58.26,58.26,0,0,0,4.16-10.73c.19-.66.21-1.47.81-1.91-.09-3.41,0-6.82,0-10.23,0-2.16-.24-2.36-2.17-1.71a63.38,63.38,0,0,1-10.19,2.3,48.49,48.49,0,0,1-28.38-3.64c-7.83-3.56-13-9.33-13.87-18.28a34.61,34.61,0,0,1,1.59-14.33A18.75,18.75,0,0,1,801,107.49a34.43,34.43,0,0,1,6.66-1.46,110.72,110.72,0,0,1,19.61-.16c.47,0,1,.24,1.37-.54-2.95-3.31-6-6.67-10.14-8.55-11.37-5.13-23.08-5.67-35-2.2A12.32,12.32,0,0,0,777,99.2c-2.35,3.14-3.52,6.8-4.65,10.48l0,.11A4.47,4.47,0,0,1,772.3,112.45Z"/>
          <path class="cls-13" d="M772.36,109.68c1.13-3.68,2.3-7.34,4.65-10.48a12.32,12.32,0,0,1,6.51-4.62c11.93-3.47,23.64-2.93,35,2.2,4.18,1.88,7.19,5.24,10.14,8.55-.36.78-.9.57-1.37.54a110.72,110.72,0,0,0-19.61.16,34.43,34.43,0,0,0-6.66,1.46,18.75,18.75,0,0,0-12.65,12.6,34.61,34.61,0,0,0-1.59,14.33c.86,9,6,14.72,13.87,18.28A48.49,48.49,0,0,0,829,156.34a63.38,63.38,0,0,0,10.19-2.3c1.93-.65,2.14-.45,2.17,1.71,0,3.41-.06,6.82,0,10.23a1.45,1.45,0,0,1,.56-.25h0c0-3.56.09-7.12.11-10.68,0-2.67,0-2.69-2.47-1.86a54.51,54.51,0,0,1-21.84,3.07c-8.56-.68-16.73-2.67-23.51-8.43a18.43,18.43,0,0,1-6.65-12.51c-.68-6.63-.2-13.08,3.22-19,2.81-4.88,7.2-7.55,12.57-8.77,7.87-1.79,15.84-1.38,23.81-1a7.67,7.67,0,0,0,1.06,0c.54-.06,1.27.29,1.56-.32s-.34-1-.68-1.44c-5.2-6.65-12.1-10.34-20.31-12a52.19,52.19,0,0,0-24.9.92,13.55,13.55,0,0,0-8.86,7.12,32.54,32.54,0,0,0-3.17,8.34,2.47,2.47,0,0,1,.4.57Z"/>
          <path class="cls-13" d="M841.43,166c-.6.44-.62,1.25-.81,1.91a58.26,58.26,0,0,1-4.16,10.73c-4,7.76-10.41,11.42-19,11.6-5.27.11-10.54.18-15.8,0a29.29,29.29,0,0,1-12.5-3.26c-3.43-1.77-5.2-5-6.72-8.3A125,125,0,0,1,772,141a109.31,109.31,0,0,1,.35-28.51,4.47,4.47,0,0,0,0-2.66c-.24.71-.47,1.42-.68,2.13-.26,2.48-.52,5-.72,7.44a122.44,122.44,0,0,0,0,17.45,121.62,121.62,0,0,0,2.28,15.53,124.44,124.44,0,0,0,4.72,16.73,89.3,89.3,0,0,0,5.44,12.68A13.33,13.33,0,0,0,790,188a33.75,33.75,0,0,0,15.1,2.89c5.26-.17,10.51.24,15.77-.37,7.52-.87,12.61-4.92,16.13-11.37a59.81,59.81,0,0,0,4.44-11.44c0-.58,0-1.16,0-1.74Z"/>
          <path class="cls-13" d="M772.33,109.79a2.47,2.47,0,0,0-.4-.57c-.09.9-.19,1.8-.28,2.7C771.86,111.21,772.09,110.5,772.33,109.79Z"/>
          <path class="cls-13" d="M841.43,166v0c0,.58,0,1.16,0,1.74l.6-2h0A1.45,1.45,0,0,0,841.43,166Z"/>
          <path class="cls-6" d="M840.77,134.58c-3.39.46-6.79.74-10.2,1-5.81.44-11.64,1.06-17.47.21-2.63-.38-5.28-.83-7.2-2.85-5.26-5.55-5.29-12.55-.16-18.09a10.45,10.45,0,0,0-9.52,6.74A25.54,25.54,0,0,0,794.86,135c.71,5.1,4.15,8.19,8.47,10.18a42.56,42.56,0,0,0,25.82,3.12,47.07,47.07,0,0,0,11.21-3.13c7.55-3.37,10-9.39,8.06-17.52h0C847.16,132.93,846.24,133.84,840.77,134.58Z"/>
          <path class="cls-7" d="M809.21,114a8.86,8.86,0,0,0-3.47.89,2.06,2.06,0,0,1-.94,2c-4.89,4.39-1.12,16.86,6.16,17.84a64.48,64.48,0,0,0,7.2.82,138,138,0,0,0,16.39-1,64.69,64.69,0,0,0,7.21-.71c2.84-.61,5.14-1.72,5.68-4.94.09-.52.2-1.17,1-1.19h0c-.9-5.9-4.77-9.29-9.91-11.5a34.3,34.3,0,0,0-12.68-2.49A124.59,124.59,0,0,0,809.21,114Zm29.91,6.9a4.1,4.1,0,0,1,1.62,4.15c-.29,1.51-1.63,1.85-2.88,2.18-4,1.08-8.06.22-12.07-.13-3-.26-5.76-1.55-8.52-2.66a3.7,3.7,0,0,1-2.53-4c.24-1.82,1.41-2.78,3.25-3.17a37.9,37.9,0,0,1,5.1-.27,32.46,32.46,0,0,1,7.43.51A17.89,17.89,0,0,1,839.12,120.86Z"/>
          <path class="cls-7" d="M847.44,128.85c-.54,3.22-2.84,4.33-5.68,4.94a64.69,64.69,0,0,1-7.21.71,138,138,0,0,1-16.39,1,64.48,64.48,0,0,1-7.2-.82c-7.28-1-11.05-13.45-6.16-17.84a2.06,2.06,0,0,0,.94-2c-5.13,5.54-5.1,12.54.16,18.09,1.92,2,4.57,2.47,7.2,2.85,5.83.85,11.66.23,17.47-.21,3.41-.26,6.81-.54,10.2-1,5.47-.74,6.39-1.65,7.65-6.92C847.64,127.68,847.53,128.33,847.44,128.85Z"/>
          <path class="cls-14" d="M750.14,146.41c2.71-.87,5.42-1.79,8.32-1.32a49.24,49.24,0,0,1,.28-7.58c.33-2.33,0-2.61-2.42-2.23-1.69.27-3.32.77-5,1.2a3.51,3.51,0,0,0-2.67,2.73c-.61,2.19-.87,4.46-1.47,6.65,0,.09-.06.19-.08.28.13.43.1,1,.45,1.31A19.6,19.6,0,0,1,750.14,146.41Z"/>
          <path class="cls-14" d="M747.13,146.14c0-.09,0-.19.08-.28.6-2.19.86-4.46,1.47-6.65a3.51,3.51,0,0,1,2.67-2.73c1.65-.43,3.28-.93,5-1.2,2.37-.38,2.75-.1,2.42,2.23a49.24,49.24,0,0,0-.28,7.58c.2,0,.4,0,.6.1h0c.18-3.05.32-6.1.53-9.15.1-1.41-.08-2.09-1.84-1.75-2.3.46-4.57,1-6.85,1.54a3.57,3.57,0,0,0-2.87,3q-.66,3.35-1.34,6.69A1,1,0,0,1,747.13,146.14Z"/>
          <path class="cls-14" d="M750.14,146.41a19.6,19.6,0,0,0-2.56,1c-.35-.36-.32-.88-.45-1.31a6.13,6.13,0,0,0-.23,2,2.6,2.6,0,0,0,.1.25c3.58-2,7.53-2.56,11.47-3.15a1.21,1.21,0,0,1,0-.19C755.56,144.62,752.85,145.54,750.14,146.41Z"/>
          <path class="cls-14" d="M758.47,145.28l.59-.09c-.2-.05-.4-.07-.6-.1A1.21,1.21,0,0,0,758.47,145.28Z"/>
          <path class="cls-14" d="M746.9,148.18a6.13,6.13,0,0,1,.23-2,1,1,0,0,0-.44-.57C746.88,146.37,746.55,147.22,746.9,148.18Z"/>
          <path class="cls-8" d="M823.09,116.92a37.9,37.9,0,0,0-5.1.27c-1.84.39-3,1.35-3.25,3.17a3.7,3.7,0,0,0,2.53,4c2.76,1.11,5.52,2.4,8.52,2.66,4,.35,8,1.21,12.07.13,1.25-.33,2.59-.67,2.88-2.18a4.1,4.1,0,0,0-1.62-4.15,17.89,17.89,0,0,0-8.6-3.43A32.46,32.46,0,0,0,823.09,116.92Z"/>
        </g>
      </g>
      <g>
        <path d="M914.55,115.18a5.37,5.37,0,0,1-1.88-.31,4.25,4.25,0,0,1-1.48-.92,4,4,0,0,1-1-1.52,6.07,6.07,0,0,1-.33-2.07,5.91,5.91,0,0,1,.34-2.09,4.41,4.41,0,0,1,.93-1.54,4,4,0,0,1,1.4-1,4.4,4.4,0,0,1,1.7-.33,4.31,4.31,0,0,1,1.52.27,3.27,3.27,0,0,1,1.24.83,4,4,0,0,1,.83,1.39,5.92,5.92,0,0,1,.31,2c0,.13,0,.26,0,.4s0,.27,0,.38h-6.55a4.19,4.19,0,0,0,.3,1.41,2.65,2.65,0,0,0,1.6,1.51,3.42,3.42,0,0,0,1.12.18,3.68,3.68,0,0,0,.89-.11,2.37,2.37,0,0,0,.79-.33,3.22,3.22,0,0,0,.68-.55l.94.9a3.85,3.85,0,0,1-.93.83,3.94,3.94,0,0,1-1.13.5A5.39,5.39,0,0,1,914.55,115.18Zm-2.9-5.83h4.78a3.21,3.21,0,0,0-.16-1.07,2.6,2.6,0,0,0-.45-.8,1.85,1.85,0,0,0-.71-.52,2.52,2.52,0,0,0-.93-.17,2.6,2.6,0,0,0-.89.15,2.05,2.05,0,0,0-.74.48,2.79,2.79,0,0,0-.58.79A3.64,3.64,0,0,0,911.65,109.35Z"/>
        <path d="M920.37,118.44v-12.8h1.77v1.68a2.94,2.94,0,0,1,.66-1.07,2.64,2.64,0,0,1,1-.62,3.4,3.4,0,0,1,1.16-.19,3.65,3.65,0,0,1,1.47.3,3.38,3.38,0,0,1,1.23.9,4.6,4.6,0,0,1,.86,1.49,6.49,6.49,0,0,1,.31,2.12,6.73,6.73,0,0,1-.32,2.16,4.38,4.38,0,0,1-.9,1.54,3.86,3.86,0,0,1-1.26.92,3.41,3.41,0,0,1-1.43.31,3.7,3.7,0,0,1-1-.15,3.36,3.36,0,0,1-.93-.46,3.56,3.56,0,0,1-.73-.72v4.59Zm4.15-4.74a2.41,2.41,0,0,0,.91-.17,2.12,2.12,0,0,0,.8-.56,2.62,2.62,0,0,0,.56-1,5.66,5.66,0,0,0,.21-1.67,5.17,5.17,0,0,0-.27-1.78,2.52,2.52,0,0,0-.78-1.14,2.24,2.24,0,0,0-1.25-.44,2.22,2.22,0,0,0-1,.16,2.09,2.09,0,0,0-.81.65,2.88,2.88,0,0,0-.54,1.14,7,7,0,0,0-.18,1.71,6.23,6.23,0,0,0,.12,1.14,3.22,3.22,0,0,0,.31.89,2.18,2.18,0,0,0,.48.62,1.81,1.81,0,0,0,.65.37A2.28,2.28,0,0,0,924.52,113.7Z"/>
        <path d="M931.43,115v-1.4h2.38v-6.56h-2.26v-1.42h4v8h2.18V115Zm3.16-11.35a1.11,1.11,0,0,1-.84-.35,1.08,1.08,0,0,1-.35-.82,1.11,1.11,0,0,1,.34-.84,1.16,1.16,0,0,1,.85-.33,1.18,1.18,0,0,1,.83.35,1.12,1.12,0,0,1,.36.82,1.09,1.09,0,0,1-.36.82A1.14,1.14,0,0,1,934.59,103.67Z"/>
        <path d="M943.63,114.82a4.62,4.62,0,0,1-2.51-2.55,5.38,5.38,0,0,1,0-3.87,4.65,4.65,0,0,1,1-1.55,4.48,4.48,0,0,1,1.51-1,4.72,4.72,0,0,1,1.89-.37,4.66,4.66,0,0,1,2.15.47,3.92,3.92,0,0,1,1.5,1.29l-1,1.09-.12.14-.13-.12a.87.87,0,0,0-.06-.32,1.26,1.26,0,0,0-.31-.4,2.32,2.32,0,0,0-.93-.54,3.7,3.7,0,0,0-1.16-.16,2.67,2.67,0,0,0-1.07.23,2.94,2.94,0,0,0-.91.67,3.11,3.11,0,0,0-.63,1.06,3.92,3.92,0,0,0-.24,1.4,3.77,3.77,0,0,0,.24,1.38,3.28,3.28,0,0,0,.64,1.07,2.78,2.78,0,0,0,1,.71,2.84,2.84,0,0,0,1.2.25,3.28,3.28,0,0,0,.88-.12,3,3,0,0,0,.82-.38,3.37,3.37,0,0,0,.72-.65l1,1.15a4.47,4.47,0,0,1-1.62,1.15,4.86,4.86,0,0,1-1.89.37A5,5,0,0,1,943.63,114.82Z"/>
        <path d="M954.24,115.18a3.72,3.72,0,0,1-2.46-.72,2.32,2.32,0,0,1-.86-1.86,2.67,2.67,0,0,1,.36-1.37,3,3,0,0,1,1-1,5,5,0,0,1,1.56-.66,7.75,7.75,0,0,1,2-.24h.61l.67,0,.73.08.06,1.29-.67-.07c-.24,0-.46,0-.69,0l-.65,0a7,7,0,0,0-1.36.13,3.39,3.39,0,0,0-1,.35,1.77,1.77,0,0,0-.63.58,1.51,1.51,0,0,0-.23.82,1.29,1.29,0,0,0,.15.66,1,1,0,0,0,.39.42,1.63,1.63,0,0,0,.57.24,4,4,0,0,0,.72.07,3.31,3.31,0,0,0,1.3-.24,2.37,2.37,0,0,0,1-.69,3.11,3.11,0,0,0,.61-1.14,5.35,5.35,0,0,0,.21-1.58,5.48,5.48,0,0,0-.3-2,1.92,1.92,0,0,0-.89-1,3.49,3.49,0,0,0-1.5-.29,3.57,3.57,0,0,0-1.3.24,3.27,3.27,0,0,0-1.18.79l-.91-1.09a4.65,4.65,0,0,1,1.62-1,5.65,5.65,0,0,1,1.87-.32,6.23,6.23,0,0,1,1.68.21,3.25,3.25,0,0,1,1.33.72,3.44,3.44,0,0,1,.87,1.37,6.59,6.59,0,0,1,.31,2.16V115H957.3v-1.36a2.92,2.92,0,0,1-.63.75,2.86,2.86,0,0,1-.76.46,3.78,3.78,0,0,1-.83.24A4.84,4.84,0,0,1,954.24,115.18Z"/>
        <path d="M961.77,115v-1.4h2.73V102.77h-2.61v-1.4h4.39v12.25H969V115Z"/>
        <path d="M976.09,115.18a5.41,5.41,0,0,1-1.88-.31,4.12,4.12,0,0,1-1.47-.92,4,4,0,0,1-1-1.52,6.07,6.07,0,0,1-.33-2.07,6.15,6.15,0,0,1,.34-2.09,4.58,4.58,0,0,1,.94-1.54,3.94,3.94,0,0,1,1.39-1,4.4,4.4,0,0,1,1.7-.33,4.27,4.27,0,0,1,1.52.27,3.27,3.27,0,0,1,1.24.83,3.81,3.81,0,0,1,.83,1.39,5.68,5.68,0,0,1,.31,2c0,.13,0,.26,0,.4s0,.27,0,.38h-6.54a4,4,0,0,0,.29,1.41,2.84,2.84,0,0,0,.67,1,2.73,2.73,0,0,0,.93.55,3.42,3.42,0,0,0,1.12.18,3.62,3.62,0,0,0,.89-.11,2.29,2.29,0,0,0,.79-.33,3,3,0,0,0,.68-.55l.94.9a4,4,0,0,1-2.06,1.33A5.39,5.39,0,0,1,976.09,115.18Zm-2.89-5.83H978a3.2,3.2,0,0,0-.17-1.07,2.6,2.6,0,0,0-.45-.8,1.85,1.85,0,0,0-.71-.52,2.64,2.64,0,0,0-1.81,0,2.09,2.09,0,0,0-.75.48,2.59,2.59,0,0,0-.57.79A3.39,3.39,0,0,0,973.2,109.35Z"/>
        <path d="M984.89,110.44l-1.09,1V115H982V101.37h2v.17a.66.66,0,0,0-.16.26,2.77,2.77,0,0,0,0,.49v7.31l4.35-4.06.29,0,.3,0,.32,0h1l-3.9,3.71,4.5,5.67-2.16.08Z"/>
        <path d="M994.68,115a5.28,5.28,0,0,1-1.38-.5,5.93,5.93,0,0,1-1.19-.83l.88-1.56.13-.18.12.08a3.38,3.38,0,0,1,.11.34,1.21,1.21,0,0,0,.28.42,3.84,3.84,0,0,0,1.09.7,3.9,3.9,0,0,0,1.56.27,3.72,3.72,0,0,0,1.18-.17,1.8,1.8,0,0,0,.73-.46,1.07,1.07,0,0,0,.14-1.19,1.33,1.33,0,0,0-.39-.4,4.71,4.71,0,0,0-.72-.37,10.32,10.32,0,0,0-1.09-.38,11,11,0,0,1-1.83-.69,3.46,3.46,0,0,1-1.22-1,1.94,1.94,0,0,1-.43-1.25,2.09,2.09,0,0,1,.42-1.3,2.79,2.79,0,0,1,1.21-.86,5.13,5.13,0,0,1,1.91-.31,7,7,0,0,1,1.17.09,4.46,4.46,0,0,1,1,.28,4,4,0,0,1,.86.46,4.54,4.54,0,0,1,.75.64l-.94,1.21-.15.17-.1-.1a1.17,1.17,0,0,0-.09-.32,1.39,1.39,0,0,0-.32-.38,3.32,3.32,0,0,0-1-.54,3.63,3.63,0,0,0-1.11-.18,3.25,3.25,0,0,0-1.35.26.84.84,0,0,0-.34,1.36,2.23,2.23,0,0,0,.78.53,9.24,9.24,0,0,0,1.56.53,10,10,0,0,1,1.87.73,2.59,2.59,0,0,1,1,.89,2.13,2.13,0,0,1,.33,1.19,2.61,2.61,0,0,1-.43,1.45,2.88,2.88,0,0,1-1.3,1.08,5.28,5.28,0,0,1-2.16.39A7.79,7.79,0,0,1,994.68,115Z"/>
        <path d="M1002.43,118.44v-12.8h1.77v1.68a2.94,2.94,0,0,1,.66-1.07,2.56,2.56,0,0,1,1-.62,3.4,3.4,0,0,1,1.16-.19,3.68,3.68,0,0,1,1.47.3,3.38,3.38,0,0,1,1.23.9,4.41,4.41,0,0,1,.85,1.49,6.22,6.22,0,0,1,.32,2.12,6.45,6.45,0,0,1-.33,2.16,4.22,4.22,0,0,1-.89,1.54,4,4,0,0,1-1.26.92,3.42,3.42,0,0,1-1.44.31,3.68,3.68,0,0,1-1-.15,3.57,3.57,0,0,1-.94-.46,3.51,3.51,0,0,1-.72-.72v4.59Zm4.15-4.74a2.41,2.41,0,0,0,.91-.17,2.12,2.12,0,0,0,.8-.56,2.75,2.75,0,0,0,.56-1,5.66,5.66,0,0,0,.21-1.67,5.17,5.17,0,0,0-.27-1.78,2.52,2.52,0,0,0-.78-1.14,2.24,2.24,0,0,0-1.25-.44,2.28,2.28,0,0,0-1,.16,2.24,2.24,0,0,0-.81.65,3,3,0,0,0-.53,1.14,7,7,0,0,0-.18,1.71,6.23,6.23,0,0,0,.12,1.14,3.22,3.22,0,0,0,.31.89,2,2,0,0,0,.48.62,1.81,1.81,0,0,0,.65.37A2.28,2.28,0,0,0,1006.58,113.7Z"/>
        <path d="M1013.67,115l-1.84-9.38h1.51l1.38,7.14,1.52-6.2h1l1.87,6.18c.16-1.11.3-2,.4-2.75s.18-1.31.24-1.79.08-.87.1-1.21,0-.66,0-1v-.39h1.58c-.13,1-.26,2.08-.41,3.13s-.32,2.11-.5,3.16-.39,2.07-.61,3.09h-1.6l-1.6-5.74-1.5,5.74Z"/>
        <path d="M1023.15,115v-9.38h1.74v1.58a4.59,4.59,0,0,1,.82-.93,3.86,3.86,0,0,1,1-.63,3.17,3.17,0,0,1,1.18-.22,2.73,2.73,0,0,1,1.44.39,2.82,2.82,0,0,1,1,1.25,5.56,5.56,0,0,1,.39,2.28V115h-1.72v-5.61a4.14,4.14,0,0,0-.21-1.46,1.54,1.54,0,0,0-.57-.8,1.46,1.46,0,0,0-.84-.26,2.2,2.2,0,0,0-.88.2,2.61,2.61,0,0,0-.83.53,2.4,2.4,0,0,0-.61.85,2.64,2.64,0,0,0-.23,1.1V115Z"/>
        <path d="M1037.63,115.18a5.32,5.32,0,0,1-1.87-.31,4.25,4.25,0,0,1-1.48-.92,3.89,3.89,0,0,1-1-1.52,6.07,6.07,0,0,1-.33-2.07,5.91,5.91,0,0,1,.34-2.09,4.41,4.41,0,0,1,.93-1.54,4,4,0,0,1,1.39-1,4.45,4.45,0,0,1,1.71-.33,4.21,4.21,0,0,1,1.51.27,3.3,3.3,0,0,1,1.25.83,4.11,4.11,0,0,1,.83,1.39,5.93,5.93,0,0,1,.3,2c0,.13,0,.26,0,.4a2.17,2.17,0,0,1,0,.38h-6.54a4.19,4.19,0,0,0,.3,1.41,2.82,2.82,0,0,0,.66,1,2.87,2.87,0,0,0,.94.55,3.42,3.42,0,0,0,1.12.18,3.68,3.68,0,0,0,.89-.11,2.37,2.37,0,0,0,.79-.33,3.17,3.17,0,0,0,.67-.55l1,.9a4.09,4.09,0,0,1-.94.83,3.77,3.77,0,0,1-1.12.5A5.47,5.47,0,0,1,1037.63,115.18Zm-2.89-5.83h4.78a3.21,3.21,0,0,0-.16-1.07,2.6,2.6,0,0,0-.45-.8,1.92,1.92,0,0,0-.71-.52,2.54,2.54,0,0,0-.94-.17,2.58,2.58,0,0,0-.88.15,2.18,2.18,0,0,0-.75.48,3,3,0,0,0-.57.79A3.64,3.64,0,0,0,1034.74,109.35Z"/>
        <path d="M1044.55,105.64h1.82l0,2.73-.22-.25a3.37,3.37,0,0,1,1.14-2,3.07,3.07,0,0,1,.93-.53,3.21,3.21,0,0,1,1.07-.18,3.64,3.64,0,0,1,1.38.25,3.35,3.35,0,0,1,1.14.79l-.76,1.42-.08.18-.15-.08c0-.11-.08-.21-.13-.32a1.19,1.19,0,0,0-.34-.36,1.74,1.74,0,0,0-.59-.3,2.19,2.19,0,0,0-.66-.09,2.8,2.8,0,0,0-1,.19,2.66,2.66,0,0,0-.9.56,2.74,2.74,0,0,0-.62,1,3.91,3.91,0,0,0-.23,1.4v5h-1.78Z"/>
      </g>
      <path class="cls-2" d="M892.53,95.65A12,12,0,0,0,888.74,119c.6.11.82-.25.82-.57s0-1.22,0-2.23c-3,.56-3.79-.73-4-1.41a4.37,4.37,0,0,0-1.23-1.69c-.42-.22-1-.78,0-.79a2.4,2.4,0,0,1,1.84,1.23,2.55,2.55,0,0,0,3.49,1,2.53,2.53,0,0,1,.76-1.6c-2.66-.3-5.45-1.33-5.45-5.92a4.69,4.69,0,0,1,1.23-3.22,4.28,4.28,0,0,1,.12-3.17s1-.32,3.29,1.23a11.18,11.18,0,0,1,6,0c2.29-1.56,3.29-1.23,3.29-1.23a4.28,4.28,0,0,1,.12,3.17A4.63,4.63,0,0,1,900.2,107c0,4.6-2.8,5.62-5.47,5.92a2.84,2.84,0,0,1,.81,2.22c0,1.6,0,2.89,0,3.29s.22.69.82.57a12,12,0,0,0-3.82-23.35Z"/>
      <g>
        <path d="M181,145.19V131h4.74l2.67,9.39.16,1.11H189l.14-1.11,2.67-9.39h4.59v14.15h-2.75l.17-9.64v-1.19h-.43l-.17,1.07-2.91,9.76h-3.16l-2.89-9.76-.16-1.07h-.43v1.19l.16,9.64Z"/>
        <path d="M208.15,138.55v6.64h-2.26v-.82l.23-1h-.29a4,4,0,0,1-3.85,2c-2.3,0-3.59-1.11-3.59-2.9s1.15-2.87,3.87-3.2l3-.34v-.54a1.68,1.68,0,0,0-1.93-1.88c-1.25,0-1.89.59-1.91,1.78h-2.83c0-2.44,1.77-3.77,4.8-3.77C206.57,134.55,208.15,135.88,208.15,138.55Zm-2.89,2.64v-.55l-2.42.26c-1.05.15-1.58.58-1.58,1.3s.49,1.23,1.5,1.23A2.28,2.28,0,0,0,205.26,141.19Z"/>
        <path d="M217.3,139.92l3.16,4.86v.41h-3.1l-2.05-3.32-.18-.8h-.31l-.16.8-2.06,3.32h-3v-.41l3.12-4.86-3-4.72v-.43h3l2,3.22.2.78h.31l.16-.78,2-3.22h3v.41Z"/>
        <path d="M222,133.21v-2.79H225v2.79Zm.08,12V134.77H225v10.42Z"/>
        <path d="M242.41,137.91v7.28h-2.83v-6.75c0-1.12-.5-1.68-1.48-1.68a1.86,1.86,0,0,0-1.89,2.11v6.32h-2.83v-6.75c0-1.12-.49-1.68-1.49-1.68s-1.87.78-1.87,2.11v6.32h-2.83V134.77h2.15v.82l-.2,1h.24a3.49,3.49,0,0,1,3.37-2,2.93,2.93,0,0,1,2.71,1.33l-.19.8h.23a3.64,3.64,0,0,1,3.54-2.13A3.06,3.06,0,0,1,242.41,137.91Z"/>
        <path d="M254.25,140.45h-7.06c.08,1.89.82,2.83,2.22,2.83a1.86,1.86,0,0,0,2-1.49h2.77c-.33,2.21-2.08,3.61-5,3.61-3.26,0-5-1.93-5-5.36s1.95-5.49,5.21-5.49,4.82,1.84,4.82,5.27Zm-7-1.68h4.13c-.19-1.5-.87-2.23-2-2.23S247.46,137.27,247.25,138.77Z"/>
        <path d="M264.38,142.42h6.17v2.77h-9.26V131h3.09Z"/>
        <path d="M278.72,134.77h2.91v10.42h-2.27v-.8l.2-1h-.24a3.88,3.88,0,0,1-3.68,2,3.24,3.24,0,0,1-3.58-3.59v-7H275v6.46c0,1.27.55,1.91,1.68,1.91a2.06,2.06,0,0,0,2.09-2.3Z"/>
        <path d="M283.44,140c0-3.44,1.93-5.41,5.29-5.41,2.94,0,4.82,1.49,5,4.06h-3a2,2,0,0,0-2.09-1.95c-1.54,0-2.3,1.11-2.3,3.3s.8,3.28,2.3,3.28a2,2,0,0,0,2.09-1.93h3c-.19,2.55-2.05,4.09-5,4.09C285.35,145.42,283.44,143.43,283.44,140Z"/>
        <path d="M295.46,133.21v-2.79h3.06v2.79Zm.08,12V134.77h2.92v10.42Z"/>
        <path d="M310.43,140.45h-7.05c.08,1.89.82,2.83,2.21,2.83a1.85,1.85,0,0,0,2-1.49h2.77c-.32,2.21-2.07,3.61-4.94,3.61-3.26,0-5-1.93-5-5.36s1.94-5.49,5.21-5.49,4.81,1.84,4.81,5.27Zm-7-1.68h4.12c-.18-1.5-.86-2.23-2-2.23S303.65,137.27,303.44,138.77Z"/>
      </g>
      <g>
        <path d="M188.9,161.66c2.23.27,3.44,1.54,3.44,3.53,0,2.46-1.8,4.1-5.09,4.1h-6.09V155.16l6.18,0c3.11,0,4.67,1.23,4.67,3.36a2.89,2.89,0,0,1-2,2.92l-1.1-.09Zm-2.12-4.39h-2.62V161h2.62c1.46,0,2.2-.62,2.2-1.87S188.24,157.27,186.78,157.27Zm.09,9.85c1.68,0,2.52-.7,2.52-2.09s-.84-2.07-2.52-2.07h-2.71v4.16Z"/>
        <path d="M203.52,162.65v6.64h-2.25v-.82l.22-1h-.29a4,4,0,0,1-3.85,2c-2.3,0-3.59-1.11-3.59-2.89s1.15-2.88,3.88-3.2l3-.35v-.54a1.68,1.68,0,0,0-1.93-1.88c-1.25,0-1.88.59-1.91,1.78H194c0-2.44,1.77-3.77,4.8-3.77C201.94,158.65,203.52,160,203.52,162.65Zm-2.89,2.64v-.55l-2.42.27c-1.05.14-1.58.57-1.58,1.29s.49,1.23,1.5,1.23A2.28,2.28,0,0,0,200.63,165.29Z"/>
        <path d="M205.29,172.78V170.5a5,5,0,0,0,1.85.33,2,2,0,0,0,1.64-.7l.24-.55.54-.16v-.31h-1.23l-3.57-9.81v-.43h2.93l2.15,6.34.15,1.13h.34l.15-1.13,2.17-6.34h2.85v.41l-3.91,10.85a4.07,4.07,0,0,1-4.23,3A6.4,6.4,0,0,1,205.29,172.78Z"/>
        <path d="M217.15,169.29V154.53h2.91v14.76Z"/>
        <path d="M232.06,164.55H225c.08,1.89.82,2.83,2.22,2.83a1.85,1.85,0,0,0,2-1.49H232c-.33,2.21-2.07,3.61-5,3.61-3.26,0-5-1.93-5-5.36s1.95-5.49,5.21-5.49,4.82,1.84,4.82,5.27Zm-7-1.68h4.13c-.19-1.49-.86-2.23-2-2.23S225.27,161.38,225.06,162.87Z"/>
      </g>
      <g>
        <path d="M533.74,139.23v-1.95h6.44v7.57H538v-1.11l.37-1.35h-.43a4.18,4.18,0,0,1-4.26,2.68,5.28,5.28,0,0,1-4.33-1.93,8.26,8.26,0,0,1-1.58-5.37c0-4.67,2.32-7.3,6.42-7.3,3.51,0,5.68,1.93,6,5.13H537a2.8,2.8,0,0,0-2.83-2.65c-2.07,0-3.22,1.72-3.22,4.86s1.13,4.78,3.26,4.78c1.81,0,2.75-1.23,2.89-3.36Z"/>
        <path d="M551.73,138.2v6.65h-2.26V144l.23-1h-.29a4,4,0,0,1-3.85,2c-2.3,0-3.59-1.11-3.59-2.89s1.15-2.87,3.87-3.2l3-.35v-.53a1.69,1.69,0,0,0-1.93-1.89c-1.25,0-1.89.6-1.91,1.79h-2.83c0-2.44,1.77-3.78,4.8-3.78S551.73,135.54,551.73,138.2Zm-2.89,2.65v-.56l-2.42.27c-1,.14-1.58.57-1.58,1.29s.49,1.23,1.5,1.23A2.28,2.28,0,0,0,548.84,140.85Z"/>
        <path d="M560.49,134.43h2.91v10.42h-2.27v-.8l.2-1h-.25a3.83,3.83,0,0,1-3.67,2,3.24,3.24,0,0,1-3.58-3.59v-7h2.89v6.46c0,1.27.55,1.91,1.68,1.91a2.07,2.07,0,0,0,2.09-2.3Z"/>
        <path d="M572.29,142.53v2.26a9.11,9.11,0,0,1-2.22.26c-2.4,0-3.59-1.13-3.59-3.4V136.4H564.8v-2h1.68v-2.79h2.91v2.79h2.85v2h-2.85v4.76c0,1,.56,1.53,1.64,1.53A6.28,6.28,0,0,0,572.29,142.53Z"/>
        <path d="M583.88,137.77v7.08H581v-6.46c0-1.27-.57-1.91-1.74-1.91a2.08,2.08,0,0,0-2.19,2.28v6.09h-2.92V130.08H577v4.35l-.66.86-.21.88h.27a3.92,3.92,0,0,1,3.75-2C582.56,134.2,583.88,135.5,583.88,137.77Z"/>
        <path d="M586,132.87v-2.79h3.06v2.79Zm.08,12V134.43H589v10.42Z"/>
        <path d="M601,140.11h-7.05c.08,1.89.82,2.83,2.21,2.83a1.85,1.85,0,0,0,2-1.5h2.77c-.32,2.22-2.07,3.61-4.94,3.61-3.26,0-5-1.93-5-5.35s1.94-5.5,5.21-5.5,4.81,1.85,4.81,5.27Zm-7-1.68h4.12c-.18-1.5-.86-2.24-2-2.24S594.2,136.93,594,138.43Z"/>
        <path d="M609.75,134.45v2.71a4.69,4.69,0,0,0-1.38-.23c-1.64,0-2.62,1.11-2.62,2.93v5h-2.9V134.43h2.28v.78l-.22,1.27h.26a3.17,3.17,0,0,1,3.18-2.28A3.58,3.58,0,0,1,609.75,134.45Z"/>
      </g>
      <g>
        <path d="M536.67,154.34h3.08V168.5h-3.08v-5.75h-5.39v5.75h-3.1V154.34h3.1v5.83h5.39Z"/>
        <path d="M541.89,163.29c0-3.45,1.9-5.44,5.2-5.44s5.19,2,5.19,5.44-1.84,5.41-5.19,5.41S541.89,166.71,541.89,163.29Zm7.48,0c0-2.18-.76-3.26-2.28-3.26s-2.31,1.14-2.31,3.26.82,3.24,2.31,3.24S549.37,165.44,549.37,163.29Z"/>
        <path d="M561,158.1v2.7a4.89,4.89,0,0,0-1.37-.22c-1.64,0-2.63,1.11-2.63,2.93v5h-2.89V158.08h2.28v.78l-.23,1.27h.27a3.16,3.16,0,0,1,3.18-2.28A3.36,3.36,0,0,1,561,158.1Z"/>
        <path d="M562.5,156.52v-2.79h3.06v2.79Zm.08,12V158.08h2.92V168.5Z"/>
        <path d="M567.32,165.42h2.73c.21,1,.92,1.46,2.13,1.46s1.85-.44,1.85-1.24c0-.61-.55-1-1.66-1.25l-2-.35c-1.91-.38-2.93-1.43-2.93-2.85,0-2,1.74-3.34,4.63-3.34s4.41,1.17,4.55,3.22h-2.72c-.15-.92-.8-1.37-2-1.37s-1.75.43-1.75,1.08.56.93,1.66,1.15l1.91.33c2.11.43,3.18,1.4,3.18,2.93,0,2.16-1.91,3.51-4.86,3.51S567.53,167.61,567.32,165.42Z"/>
        <path d="M588.88,163.29c0,3.42-1.64,5.41-4.29,5.41a3.78,3.78,0,0,1-3.58-2h-.27l.2,1v.85h-2.27V153.73h2.91v4.49l-.64.82-.2.84H581a3.64,3.64,0,0,1,3.56-2C587.26,157.85,588.88,159.86,588.88,163.29Zm-5.17,3.22c1.4,0,2.22-1.21,2.2-3.24s-.8-3.22-2.2-3.22-2.19,1.23-2.17,3.22S582.32,166.51,583.71,166.51Z"/>
        <path d="M600.47,163.76h-7.05c.08,1.88.82,2.83,2.21,2.83a1.85,1.85,0,0,0,2-1.5h2.77c-.33,2.22-2.07,3.61-4.94,3.61-3.26,0-5-1.93-5-5.35s1.95-5.5,5.21-5.5,4.82,1.85,4.82,5.27Zm-7-1.68h4.12c-.18-1.5-.86-2.24-2-2.24S593.68,160.58,593.48,162.08Z"/>
        <path d="M609.23,158.1v2.7a4.89,4.89,0,0,0-1.37-.22c-1.64,0-2.63,1.11-2.63,2.93v5h-2.89V158.08h2.28v.78l-.23,1.27h.27a3.16,3.16,0,0,1,3.18-2.28A3.36,3.36,0,0,1,609.23,158.1Z"/>
        <path d="M618.07,158.08h2.42v9.74c0,3-1.74,4.65-5.27,4.65-3.05,0-4.78-1.35-5-3.73h2.89a1.89,1.89,0,0,0,2.09,1.72c1.42,0,2.16-.82,2.22-2.44l.61-1,.23-.88h-.25a3.85,3.85,0,0,1-3.63,2c-2.72,0-4.26-1.93-4.26-5.19s1.54-5.13,4.26-5.13a3.68,3.68,0,0,1,3.61,2h.27l-.23-.94Zm-2.74,1.82c-1.42,0-2.2,1.15-2.2,3.1s.8,3.12,2.2,3.12S617.5,165,617.5,163,616.72,159.9,615.33,159.9Z"/>
        <path d="M632.35,163.76H625.3c.08,1.88.82,2.83,2.21,2.83a1.85,1.85,0,0,0,2-1.5h2.77c-.33,2.22-2.07,3.61-4.94,3.61-3.26,0-5-1.93-5-5.35s1.95-5.5,5.21-5.5,4.82,1.85,4.82,5.27Zm-7-1.68h4.12c-.19-1.5-.86-2.24-2-2.24S625.56,160.58,625.36,162.08Z"/>
        <path d="M641.11,158.1v2.7a4.89,4.89,0,0,0-1.37-.22c-1.64,0-2.63,1.11-2.63,2.93v5h-2.89V158.08h2.28v.78l-.23,1.27h.27a3.16,3.16,0,0,1,3.18-2.28A3.36,3.36,0,0,1,641.11,158.1Z"/>
      </g>
      <g>
        <path d="M889.72,130.41l4.49,13.66v.49h-3l-.78-2.42h-5.83l-.75,2.42H881v-.47l4.47-13.68Zm-4.33,9.39h4.35L888,134.21l-.21-1.4h-.41l-.2,1.4Z"/>
        <path d="M895.84,144.56V129.8h2.91v14.76Z"/>
        <path d="M910.75,139.82h-7.06c.08,1.89.82,2.83,2.22,2.83a1.86,1.86,0,0,0,2-1.49h2.77c-.33,2.21-2.08,3.61-5,3.61-3.26,0-5-1.93-5-5.36s1.95-5.49,5.21-5.49,4.82,1.84,4.82,5.27Zm-7-1.68h4.13c-.19-1.49-.87-2.23-2-2.23S904,136.65,903.75,138.14Z"/>
        <path d="M918.52,139.15l4.08,5v.43h-3.22l-3.22-3.83-.3-.78h-.35v4.61h-2.89V129.8h2.89v8.65h.35l.35-.78,3.11-3.53h3.22v.43Z"/>
        <path d="M923.51,141.49h2.73c.2,1,.92,1.45,2.13,1.45s1.85-.43,1.85-1.23c0-.61-.56-1-1.67-1.25l-2-.35c-1.91-.39-2.94-1.43-2.94-2.85,0-2,1.75-3.34,4.64-3.34s4.41,1.17,4.55,3.22h-2.73c-.14-.93-.8-1.38-2-1.38s-1.74.43-1.74,1.09.55.92,1.66,1.15l1.91.33c2.11.43,3.18,1.39,3.18,2.93,0,2.15-1.91,3.51-4.86,3.51S923.71,143.68,923.51,141.49Z"/>
        <path d="M944.21,137.92v6.64H942v-.82l.23-1h-.29a4,4,0,0,1-3.86,2c-2.29,0-3.59-1.11-3.59-2.89s1.15-2.88,3.88-3.2l3-.35v-.54a1.68,1.68,0,0,0-1.92-1.88c-1.25,0-1.89.59-1.91,1.78h-2.83c0-2.44,1.76-3.77,4.8-3.77S944.21,135.25,944.21,137.92Zm-2.9,2.64V140l-2.42.27c-1,.14-1.57.57-1.57,1.29s.49,1.23,1.49,1.23A2.27,2.27,0,0,0,941.31,140.56Z"/>
        <path d="M956,137.49v7.07h-2.89V138.1c0-1.27-.57-1.91-1.74-1.91a2.08,2.08,0,0,0-2.2,2.3v6.07H946.3V134.14h2.28v.8l-.21,1h.25a3.91,3.91,0,0,1,3.73-2C954.71,133.92,956,135.21,956,137.49Z"/>
        <path d="M965.17,129.8h2.91v14.76h-2.27v-.84l.2-1h-.26a3.81,3.81,0,0,1-3.59,2c-2.69,0-4.31-2-4.31-5.42s1.64-5.43,4.33-5.43a3.65,3.65,0,0,1,3.57,2H966l-.2-.84-.64-.82Zm0,9.53c0-2.15-.71-3.22-2.17-3.22s-2.21,1.15-2.21,3.22.75,3.24,2.21,3.24S965.21,141.44,965.21,139.33Z"/>
        <path d="M979.53,137.92v6.64h-2.25v-.82l.22-1h-.29a4,4,0,0,1-3.85,2c-2.3,0-3.59-1.11-3.59-2.89s1.15-2.88,3.88-3.2l3-.35v-.54a1.68,1.68,0,0,0-1.93-1.88c-1.25,0-1.88.59-1.9,1.78H970c0-2.44,1.76-3.77,4.79-3.77C978,133.92,979.53,135.25,979.53,137.92Zm-2.89,2.64V140l-2.42.27c-1.05.14-1.58.57-1.58,1.29s.49,1.23,1.5,1.23A2.28,2.28,0,0,0,976.64,140.56Z"/>
        <path d="M988.52,134.16v2.71a5,5,0,0,0-1.38-.22c-1.64,0-2.62,1.1-2.62,2.93v5h-2.89V134.14h2.27v.78l-.22,1.27h.26a3.16,3.16,0,0,1,3.18-2.27A3.55,3.55,0,0,1,988.52,134.16Z"/>
      </g>
      <g>
        <path d="M891.85,154.34v2.53h-3.93V168.5H885V156.87h-4v-2.53Z"/>
        <path d="M891.63,163.29c0-3.45,1.91-5.44,5.21-5.44s5.19,2,5.19,5.44-1.85,5.41-5.19,5.41S891.63,166.71,891.63,163.29Zm7.49,0c0-2.18-.76-3.26-2.28-3.26s-2.32,1.14-2.32,3.26.82,3.24,2.32,3.24S899.12,165.44,899.12,163.29Z"/>
        <path d="M914.09,163.29c0,3.46-1.54,5.43-4.31,5.43a3.66,3.66,0,0,1-3.57-2H906l.2.84.64.82v3.94h-2.91V158.08h2.27v.84l-.2,1h.26a3.81,3.81,0,0,1,3.59-2C912.57,157.87,914.09,159.84,914.09,163.29Zm-3,0c0-2.05-.8-3.24-2.22-3.24s-2.19,1.12-2.19,3.24.78,3.22,2.19,3.22S911.14,165.38,911.14,163.31Z"/>
        <path d="M925.31,161.85v6.65h-2.25v-.83l.22-1H923a4,4,0,0,1-3.85,2c-2.3,0-3.59-1.11-3.59-2.89s1.15-2.87,3.88-3.2l3-.35v-.53a1.69,1.69,0,0,0-1.93-1.89,1.66,1.66,0,0,0-1.91,1.78h-2.83c0-2.44,1.77-3.77,4.8-3.77C923.73,157.85,925.31,159.18,925.31,161.85Zm-2.89,2.65v-.56l-2.42.27c-1,.14-1.58.57-1.58,1.29s.49,1.23,1.5,1.23A2.28,2.28,0,0,0,922.42,164.5Z"/>
        <path d="M927.59,168.5V153.73h2.91V168.5Z"/>
        <path d="M932.47,163.29c0-3.45,1.91-5.44,5.21-5.44s5.19,2,5.19,5.44-1.84,5.41-5.19,5.41S932.47,166.71,932.47,163.29Zm7.49,0c0-2.18-.76-3.26-2.28-3.26s-2.31,1.14-2.31,3.26.82,3.24,2.31,3.24S940,165.44,940,163.29Z"/>
        <path d="M947,168.5l-3.61-10v-.43h2.91l2.15,6.35.15,1.11H949l.14-1.11,2.13-6.35h2.87v.41l-3.61,10Z"/>
        <path d="M955.59,156.52v-2.79h3.06v2.79Zm.09,12V158.08h2.91V168.5Z"/>
        <path d="M960.54,163.29c0-3.45,1.93-5.42,5.29-5.42,2.93,0,4.82,1.5,5,4.06h-3c-.23-1.29-.92-2-2.09-2-1.54,0-2.3,1.11-2.3,3.31s.8,3.28,2.3,3.28c1.15,0,1.84-.64,2.09-1.93h3c-.18,2.54-2.05,4.08-5,4.08C962.45,168.72,960.54,166.73,960.54,163.29Z"/>
      </g>
    </g>
  </g>
</svg>
